<svg width="266" height="43" viewBox="0 0 266 43" fill="none" xmlns="http://www.w3.org/2000/svg">
<path d="M35.4158 10.767C34.9888 10.335 34.5438 10.34 34.0178 10.528C34.5928 11.244 34.5958 11.245 35.4158 10.767ZM53.8318 9.258C53.7018 9.351 53.7058 9.498 53.8398 9.586C53.9728 9.673 54.5448 9.911 54.7678 9.961L54.9758 9.979C55.0338 9.984 55.1338 9.913 55.1608 9.858C55.1908 9.798 55.1958 9.681 55.1498 9.652L54.8498 9.46C54.4978 9.279 53.9608 9.164 53.8318 9.258ZM151.343 2.478C151.692 2.763 152.076 2.589 152.195 2.093L151.595 1.863L151.457 1.81C151.164 1.987 150.971 2.172 151.027 2.222L151.058 2.246L151.343 2.478ZM231.056 26.688C231.404 26.669 231.52 26.543 231.313 26.409C231.106 26.275 230.346 26.401 230.064 26.445C229.783 26.489 230.707 26.707 231.056 26.688ZM235.032 30.047C235.075 30.091 234.978 30.221 234.814 30.336C234.652 30.452 234.612 30.802 234.862 30.701L235.075 30.619L235.333 30.519C235.679 30.435 235.798 30.233 235.599 30.07L235.425 29.933C235.364 29.884 235.293 29.805 235.228 29.807L235.111 29.809C234.982 29.853 234.989 30.004 235.032 30.047ZM64.4888 37.531C64.2068 37.531 64.0438 37.67 64.1278 37.839C64.2118 38.008 64.6428 38.334 64.9238 38.241C65.2048 38.148 64.7718 37.531 64.4888 37.531ZM162.229 2.115C161.977 2.115 162.028 2.33 162.346 2.594L162.678 2.692L162.778 2.722C163.097 2.388 162.483 2.115 162.229 2.115ZM199.756 2.043C200.01 2.185 200.211 2.227 200.203 2.137C200.196 2.047 200.255 1.782 200.292 1.707C200.328 1.633 200.212 1.372 199.913 1.357C199.613 1.342 199.502 1.901 199.756 2.043ZM233.015 6.115C232.698 5.872 232.682 5.812 232.978 5.981C233.274 6.15 234.212 6.401 234.292 6.346C234.372 6.291 234.25 5.981 233.802 5.816L233.561 5.907L233.015 6.115ZM193.32 1.617C193.464 1.413 193.372 1.335 193.116 1.442C192.86 1.55 192.22 1.468 192.11 1.549L192.111 1.623C192.111 1.779 191.974 1.993 192.311 2.065L192.492 2.104C192.7 2.188 193.177 1.821 193.32 1.617ZM228.231 26.31C228.308 26.171 228.097 26.025 227.762 25.987L227.562 26.074L227.337 26.172C227.181 26.405 227.139 26.718 227.243 26.867L227.369 26.88L227.544 26.898C227.745 26.807 228.155 26.451 228.231 26.31ZM26.5318 37.159C26.6538 36.934 26.7188 36.574 26.6748 36.357L26.3098 36.438C26.1868 36.465 26.0368 36.739 25.9658 36.489C25.8828 36.204 25.7878 36.084 25.4788 36.258L25.4288 36.286C25.5428 36.506 25.8098 36.813 26.0218 36.97L26.2518 37.055L26.5318 37.159ZM118.297 2.823C117.671 2.777 117.351 2.959 117.585 3.226L117.952 3.156C118.307 3.088 118.65 2.974 118.985 2.855C119.028 2.84 119.011 2.665 118.977 2.577C118.961 2.537 118.796 2.487 118.766 2.508L118.297 2.823ZM82.7888 4.084C82.8078 4.219 82.9758 4.172 83.1618 3.98C83.3498 3.789 83.4098 3.192 83.1578 3.242C82.9068 3.292 82.3048 3.479 82.2908 3.531C82.2768 3.582 82.3128 3.715 82.4008 3.705C82.4878 3.695 82.7708 3.951 82.7888 4.084ZM158.561 2.342C158.848 2.485 158.873 2.479 158.617 2.329C158.36 2.179 157.781 1.706 157.699 1.869C157.618 2.031 157.739 2.542 158.128 2.688L158.214 2.62L158.561 2.342ZM63.3008 4.542C63.2768 4.689 63.4448 4.735 63.6728 4.646C63.9008 4.556 64.4768 4.233 64.5618 4.105L64.4078 3.942C64.2968 3.823 64.3868 3.552 64.0548 3.609L63.7398 3.663C63.5388 3.893 63.3238 4.396 63.3008 4.542ZM30.3018 8.931C30.2628 8.785 30.0998 8.66 29.9378 8.652C29.7778 8.645 29.4468 8.765 29.2108 8.882C28.9758 8.998 28.6618 9.584 28.6718 9.665L28.7238 9.707L28.7748 9.748C28.8728 9.755 29.3518 9.523 29.8378 9.232L30.2668 8.954L30.3018 8.931ZM65.6788 3.869C65.3568 4.009 65.5058 4.223 66.0078 4.343L66.3558 4.455C66.7018 4.565 66.8368 4.348 66.9998 4.201C67.0658 4.141 67.0618 4.005 67.0388 3.912C67.0218 3.841 66.0448 3.713 65.9378 3.758L65.6788 3.869ZM261.114 32.843C261.188 32.6 260.966 32.494 260.618 32.607L260.339 32.744C260.117 32.852 259.917 33.003 260.274 33.211L260.369 33.267C260.407 33.489 261.039 33.086 261.114 32.843ZM214.641 1.718C215.006 1.639 215.258 1.453 215.2 1.304C215.144 1.155 214.526 0.932 214.363 0.996C214.2 1.062 214.276 1.797 214.641 1.718ZM220.235 1.686C220.405 1.822 220.71 1.748 220.913 1.524L220.97 1.342C221.011 1.21 220.923 1.028 220.829 0.899C220.706 0.731 220.522 0.66 220.278 0.813L220.095 0.928999C219.797 1.047 220.065 1.551 220.235 1.686ZM166.67 40.262C166.517 40.193 166.391 40.257 166.391 40.404C166.391 40.55 166.319 40.908 166.232 40.898C166.145 40.89 165.847 40.936 165.852 41.031C165.856 41.126 165.892 41.387 165.907 41.401C165.924 41.415 166.536 41.349 167.229 41.222L167.192 40.973L167.168 40.809C167.175 40.635 166.823 40.331 166.67 40.262ZM232.369 27.748C232.248 27.847 232.365 27.892 232.628 27.848C232.892 27.804 233.596 28.242 233.886 28.232C234.176 28.223 234.265 27.629 233.947 27.6C233.63 27.572 232.49 27.65 232.369 27.748ZM41.0158 5.795C41.3568 5.88 41.6338 5.898 41.6278 5.835C41.6218 5.772 41.6958 5.482 41.7618 5.351C41.8278 5.219 41.6168 5.088 41.4108 5.237L41.0608 5.034C40.7408 4.85 40.6378 5.251 40.4228 5.371C40.1988 5.496 40.2408 5.662 40.4288 5.814C40.5788 5.935 40.6708 6.066 40.9208 5.87L41.0158 5.795ZM258.043 31.306C258.217 31.406 258.402 31.36 258.454 31.204C258.507 31.047 258.155 30.533 258.077 30.392L257.851 30.578L257.428 30.923C257.059 30.844 256.666 30.782 256.555 30.786L256.515 30.829C256.478 30.871 256.491 30.997 256.538 31.025C256.773 31.166 257.028 31.285 257.272 31.415L257.343 31.453C257.408 31.507 257.869 31.205 258.043 31.306ZM238.343 5.767C238.331 5.571 238.263 5.515 238.19 5.642C238.118 5.77 237.801 5.947 237.602 5.829C237.402 5.71 236.722 5.649 236.795 5.716C236.868 5.782 236.915 5.961 236.808 6.031C236.7 6.1 236.634 6.312 237.154 6.183L237.381 6.269L237.705 6.394C238.075 6.381 238.354 5.962 238.343 5.767ZM46.8038 5.383C46.9688 5.084 46.6988 4.851 46.2048 4.865L45.8978 4.558L45.8838 4.543C45.6948 4.647 45.5048 4.844 45.4618 4.981C45.4178 5.118 46.0408 5.397 46.2228 5.437V5.475C46.2238 5.815 46.3548 5.888 46.6108 5.6L46.8038 5.383ZM37.2998 10.378C37.2888 10.548 37.1328 10.61 36.9528 10.517C36.7728 10.424 36.8948 10.856 37.3318 10.838L37.7178 10.878L38.4548 10.954C38.7158 10.602 38.7398 10.356 38.5078 10.406C38.2758 10.456 37.6318 10.319 37.5958 10.204C37.5598 10.088 37.4498 9.809 37.4248 9.812C37.3998 9.816 37.3108 10.209 37.2998 10.378ZM257.787 35.721C257.913 35.749 258.185 35.534 258.391 35.243C258.597 34.951 257.954 34.252 258.055 34.194L258.05 34.148L258.024 33.916C257.719 33.834 257.424 33.828 257.37 33.904C257.316 33.98 257.51 34.314 257.584 34.451C257.658 34.586 257.54 34.981 257.666 35.137C257.793 35.292 257.66 35.692 257.787 35.721ZM254.471 11.514C254.548 11.441 254.472 11.049 254.3 10.642L253.585 10.633L252.911 10.625C252.598 11.02 252.531 11.525 252.764 11.748L252.877 11.724L253.177 11.662C253.477 11.492 253.792 11.412 253.879 11.482C253.966 11.553 254.393 11.586 254.471 11.514ZM249.679 8.626C249.887 8.335 249.745 7.984 249.365 7.845L249.045 7.793L248.57 7.717C248.036 7.683 247.756 7.768 247.946 7.907C248.138 8.046 249.471 8.916 249.679 8.626ZM59.6788 3.823C59.7278 3.702 59.8018 3.563 59.8428 3.515C59.8838 3.467 60.2838 3.515 60.6828 3.611L61.1498 3.242L61.3558 3.08C61.5618 3.156 61.9548 3.218 62.2308 3.217C62.5068 3.217 63.4568 2.746 63.5048 2.769L63.5098 2.797L63.5448 2.969C63.5718 3.159 63.8778 3.2 64.2228 3.06C64.5678 2.92 65.9028 3.161 66.3318 3.193C66.7608 3.225 67.9718 2.759 68.2248 2.787C68.4778 2.815 69.1338 3.069 69.3358 3.1C69.5388 3.132 70.0948 2.85 70.2378 2.805C70.3828 2.76 70.7328 2.768 70.7378 2.556C70.7428 2.343 71.5318 2.704 71.7708 2.698L71.9328 2.608C72.3418 2.379 72.3968 2.508 72.5248 2.833L72.6208 3.078C72.8788 2.775 73.2238 2.606 73.3868 2.704C73.5508 2.803 74.2908 2.837 74.6488 2.76L74.9078 2.603L75.1448 2.458C75.3898 2.487 75.7288 2.545 75.8998 2.587L75.9978 2.67C76.1708 2.815 76.2818 3.008 76.4548 3.153L76.4928 3.185C76.6618 3.12 76.7818 2.96 76.7598 2.83C76.7368 2.701 77.2458 2.481 77.6248 2.405L77.9368 2.633L78.0138 2.688C78.3648 2.861 78.8288 2.876 79.0438 2.721L79.2598 2.618L79.3858 2.558C79.5668 2.553 79.7058 2.661 79.6928 2.799L79.6808 2.924L79.6728 3.002C79.6618 3.087 79.7848 3.152 79.9458 3.144L80.0098 3.082C80.1388 2.954 80.1908 2.775 80.3118 2.639L80.4628 2.467C80.6848 2.54 80.9778 2.577 81.1128 2.55C81.2498 2.522 81.9428 2.581 82.4398 2.967L83.1028 2.578C83.1988 2.521 83.5018 2.539 83.5408 2.597L83.8168 3.012C84.1908 2.837 84.5868 2.602 84.6968 2.49C84.8078 2.377 85.2298 2.161 85.3218 2.332C85.4128 2.503 85.8628 2.86 86.0798 2.669L86.3028 2.62L86.6878 2.532C87.1458 2.511 87.5758 2.488 87.6438 2.481C87.7108 2.474 88.1148 2.37 88.4108 2.309C88.7078 2.248 89.7998 2.64 89.9098 2.507L90.0488 2.427L90.1738 2.354C90.3548 2.324 90.4338 2.395 90.3468 2.514L90.3668 2.607C90.3868 2.696 90.5298 2.774 90.6348 2.842L90.8808 3C90.9188 2.81 91.0008 2.563 91.0638 2.452C91.1278 2.341 91.6678 2.151 92.1558 2.213L92.5668 2.29L92.6538 2.307C92.7398 2.414 92.7768 2.498 92.7368 2.495C92.6978 2.491 92.5588 2.736 92.4428 3.02C92.3288 3.304 91.2728 3.203 91.1918 3.244L91.1678 3.3L91.1408 3.36C91.1628 3.443 91.6088 3.733 92.1328 4.007L92.7418 3.754L92.9988 3.647C93.3218 3.572 93.3208 3.433 92.9978 3.337C92.6748 3.242 93.0638 2.398 93.3748 2.271L93.7528 2.263C94.4448 2.249 95.1548 2.417 95.8448 2.133C96.0318 2.057 96.4368 2.165 96.6228 2.299L96.8098 2.434C96.8948 2.717 97.0488 2.814 97.1498 2.649C97.2528 2.484 97.7648 2.086 98.0668 2.118C98.3708 2.15 99.3288 2.054 99.5588 1.754L99.8138 1.947L99.8798 1.997C99.9448 2.056 100.128 2.269 100.285 2.471L100.62 2.289L100.714 2.239C100.92 2.262 101.113 2.381 101.144 2.502C101.173 2.623 101.351 2.949 101.42 2.752L101.44 2.653C101.455 2.581 101.414 2.495 101.448 2.435C101.577 2.214 101.749 2.251 101.968 2.372C102.498 2.664 102.092 2.094 102.348 2.089L102.506 2.085C102.687 2.02 103.085 2.043 103.391 2.136L103.661 1.92C103.737 1.859 103.973 1.818 104.01 1.854L104.604 2.427C104.979 1.974 105.501 1.775 105.765 1.985C106.028 2.195 107.187 1.964 107.389 2.09C107.59 2.216 108.5 1.87 108.95 1.904L109.331 1.711L109.387 1.682C109.511 1.732 109.937 1.848 110.335 1.938L110.975 1.836L111.43 1.763C111.499 2.032 111.724 2.14 111.931 2.003C112.137 1.866 112.93 2.049 113.042 2.048C113.154 2.048 113.572 1.871 113.895 1.755L114.253 1.832L114.661 1.92C115.13 1.877 115.567 1.894 115.634 1.959C115.7 2.023 115.906 2.032 116.038 1.925C116.17 1.817 116.77 1.497 116.875 1.618C116.979 1.739 117.337 2.027 117.53 2.078C117.724 2.129 118.55 2.033 118.938 1.888C119.328 1.743 120.374 1.887 120.585 1.889C120.796 1.891 121.437 1.716 121.609 1.79C121.782 1.864 122.325 2.054 122.427 2.044L122.481 2.002L122.792 1.765C123.208 1.799 123.645 1.826 123.763 1.823C123.88 1.821 124.396 1.715 124.694 1.687C124.993 1.66 125.665 1.733 125.706 1.355L126.293 1.691L126.395 1.749C126.515 1.795 126.837 1.824 127.113 1.815C127.389 1.806 128.317 1.896 128.598 1.755C128.878 1.614 129.825 1.451 130.015 1.452L130.124 1.522C130.365 1.675 130.53 1.882 130.913 1.852L131.24 1.827C131.401 1.637 131.635 1.452 131.759 1.415L131.883 1.404L132.26 1.368C132.657 1.27 133.234 1.12 133.543 1.032L133.765 1.366C133.985 1.7 134.383 1.727 134.767 1.48L136.598 1.27L137.133 1.316C137.721 1.363 138.369 1.38 138.573 1.355C138.778 1.33 139.261 1.636 139.291 1.485C139.32 1.333 139.538 1.206 139.725 1.456C139.911 1.707 141.167 1.424 141.61 1.439C142.054 1.454 143.283 1.199 143.395 1.161L143.433 1.186L144.157 1.675C145.081 1.589 145.911 1.546 146.003 1.579L146.021 1.562C146.28 1.32 146.499 1.176 146.954 1.374L147.169 1.468C147.551 1.341 148.177 1.192 148.559 1.137L148.897 1.129L149.372 1.119C149.88 1.156 150.377 1.252 150.475 1.332C150.573 1.413 150.881 1.568 150.922 1.487C150.964 1.405 151.273 1.184 151.532 1.147C151.792 1.11 152.65 1.081 152.831 1.179L152.826 1.279L152.808 1.714C153.155 1.652 153.736 1.516 154.099 1.413L154.465 1.607C154.623 1.691 154.996 1.698 155.112 1.606C155.416 1.367 155.759 1.434 156.099 1.394L156.427 1.356C156.778 1.265 157.205 1.15 157.374 1.102C157.544 1.053 158.055 1.339 158.329 1.299C158.603 1.258 159.449 1.187 159.597 1.186C159.744 1.185 160.1 1.021 160.187 1.091C160.275 1.162 160.955 1.582 161.504 1.868L161.562 1.053C161.562 1.037 161.873 0.99 162.001 1.032L162.762 1.288C163.119 1.183 164.035 1.061 164.797 1.017H165.55C165.633 1.258 166.353 1.326 167.15 1.167L167.896 1.204C168.083 1.214 168.052 1.502 167.827 1.617L167.728 1.668C167.553 1.692 167.533 1.761 167.685 1.821C167.836 1.882 168.264 1.9 168.264 1.711C168.264 1.523 168.497 0.918 168.782 0.875C169.067 0.833 170.068 1.115 170.394 1.062L170.7 1.064C171.04 1.066 171.418 1.076 171.71 1.195L172.215 1.402C172.69 1.239 173.26 1.02 173.48 0.916C173.701 0.812 174.054 1.33 174.094 1.335C174.134 1.339 174.353 1.226 174.542 1.118L174.765 1.274C175.103 1.511 175.302 1.492 175.339 1.074L175.349 0.964001C175.554 0.849001 175.825 0.898 175.951 1.076C176.077 1.253 176.841 1.139 177.254 1.115C177.668 1.09 178.889 1.013 179.066 1.037L179.146 0.843C179.166 0.794 179.512 0.755999 179.573 0.810999C179.721 0.944999 179.645 1.317 180.034 1.159L180.187 1.097C180.24 0.797 180.659 0.707001 181.12 0.898001L181.548 1.073C181.644 1.112 182.695 1.011 182.773 0.950001C183.062 0.724001 183.344 0.490999 183.446 1.057L183.452 1.092C183.541 1.119 183.772 1.172 183.968 1.21C184.163 1.249 184.745 1.334 184.812 1.263C184.881 1.191 185.089 0.952 185.122 0.907C185.155 0.861 185.463 0.696999 185.732 0.643999C186.002 0.591999 186.754 0.810001 186.789 0.756001C186.825 0.701001 187.253 0.652 187.395 0.767C187.538 0.883 188.113 1.184 188.246 1.092C188.38 0.998999 188.804 0.821 188.901 0.896C189 0.971 189.342 1.115 189.365 0.992001C189.39 0.869001 189.615 0.723999 189.818 0.928999L190.009 0.940001L190.396 0.964001C190.523 1.206 190.744 1.271 190.887 1.108C191.029 0.946 191.472 0.544999 191.51 0.629999C191.548 0.715999 191.77 0.874999 191.928 0.809999C192.085 0.743999 192.569 0.616 192.608 0.691L192.639 0.775999C192.73 1.029 193.066 1.034 193.104 0.886C193.235 0.384 193.571 0.405 193.952 0.614L194.254 0.780001C194.547 0.704001 195.079 0.554001 195.436 0.447001L195.711 0.709C196.014 0.999 196.339 1.076 196.738 0.83C196.772 0.809 196.915 0.862 196.966 0.91L197.292 1.219C197.413 1.097 197.604 0.887 197.717 0.753H197.817L198.252 0.757C198.724 0.815 199.172 0.857 199.248 0.85C199.324 0.844 199.661 0.741999 199.854 0.705999C200.047 0.669999 200.779 1.068 201.022 0.941999C201.266 0.816999 201.976 0.671001 202.075 0.891001C202.175 1.112 203.121 0.716001 203.531 0.683001C203.941 0.650001 205.029 0.912999 205.056 0.785999C205.081 0.657999 205.235 0.33 205.319 0.444L205.357 0.51L205.393 0.570999C205.422 0.641999 205.72 0.722 206.057 0.747C206.393 0.773 207.113 1.064 206.943 1.19C206.772 1.316 204.502 1.36 204.031 1.443C203.562 1.526 203.598 1.783 203.891 1.695L204.189 1.798L204.22 1.808C204.305 1.723 204.595 1.551 204.864 1.427C205.134 1.303 205.511 2.005 205.624 2.036C205.737 2.066 205.884 1.796 205.871 1.674L205.905 1.573C206.038 1.174 206.009 1.255 205.703 1.161L205.329 1.046C204.982 1.133 204.646 1.239 204.583 1.281L204.517 1.315L204.164 1.496C204.562 1.384 205.2 1.466 205.583 1.678C205.966 1.891 206.813 1.935 207.043 1.88C207.272 1.825 208.098 1.974 208.308 1.906C208.517 1.838 208.501 1.402 208.435 1.306C208.367 1.211 208.046 0.961 207.875 0.961C207.704 0.961 207.452 0.877 207.695 0.774C207.937 0.671 208.594 0.313 208.637 0.24C208.679 0.167 209.17 0.201001 209.241 0.249001C209.313 0.298001 209.633 0.627 209.781 0.792C209.93 0.957 210.763 1.309 210.831 1.383C210.9 1.457 211.004 1.129 210.972 1.004L210.887 0.969999L210.59 0.848999C210.264 0.754999 210.072 0.551 210.165 0.396L210.117 0.339001C209.998 0.196001 209.939 0.0250004 210.192 0.1L210.605 0.222C211.061 0.278 211.666 0.385 211.949 0.461C212.233 0.536 213.406 0.256999 213.572 0.198999C213.739 0.141999 214.107 0.079 214.338 0L214.557 0.0790005C214.594 0.0920005 214.668 0.0650002 214.687 0.0830002L214.836 0.225C214.992 0.388 215.216 0.432 215.335 0.323C215.454 0.214 215.894 0.225 216.103 0.32C216.312 0.415 217.1 0.222 217.413 0.378L217.676 0.544001C217.708 0.564001 217.571 0.737 217.552 0.844L217.534 0.940001C217.562 1.054 217.668 0.982 217.77 0.782C217.872 0.582 218.539 0.410001 218.509 0.353001C218.479 0.296001 218.571 0.116 218.795 0.108C219.018 0.0999998 219.932 0.383 220.307 0.507C220.683 0.632 221.772 0.350999 221.85 0.368999C221.928 0.386999 222.105 0.489999 222.067 0.553999C222.028 0.616999 221.775 0.798001 221.644 0.874001C221.512 0.950001 221.848 1.644 222.419 1.725L222.645 1.288L222.825 0.940001C222.493 0.489001 222.532 0.0730007 222.911 0.0160007L223.023 0.0960007C223.25 0.258001 223.312 0.567001 223.706 0.589001C223.713 0.590001 223.716 0.638 223.72 0.664C223.793 1.164 223.796 1.149 224.391 1.225L224.693 1.263C225.088 1.38 225.41 1.29 225.41 1.064C225.41 0.837999 225.55 0.294999 225.721 0.271999L225.765 0.306L225.989 0.483C226.219 0.695 226.217 0.902 225.985 0.944C225.754 0.985 225.813 1.54 225.993 1.564C226.173 1.588 226.672 1.229 226.752 1.306C226.833 1.382 227.116 1.568 227.207 1.553L227.257 1.524L227.33 1.483C227.396 1.422 227.552 1.307 227.675 1.227C227.798 1.147 228.316 1.553 228.419 1.424C228.52 1.294 228.899 1.069 229.083 1.148C229.268 1.228 229.873 1.35 229.998 1.296C230.124 1.242 230.443 1.004 230.481 1.143C230.52 1.282 230.742 1.62 230.897 1.607L231 1.56L231.66 1.259C232.266 1.544 232.839 1.82 232.936 1.873C233.031 1.926 233.312 2.034 233.343 2C233.374 1.966 233.44 1.745 233.487 1.586C233.533 1.428 234.11 1.536 234.265 1.593C234.419 1.649 234.833 1.618 234.848 1.721C234.862 1.825 235.415 1.667 235.592 1.538C235.769 1.408 236.538 1.314 236.644 1.224L236.752 1.144C236.815 1.098 236.953 1.028 236.967 1.039L237.607 1.585C237.676 1.121 237.991 0.806 238.31 0.885C238.627 0.964 239.082 1.659 239.116 1.56C239.15 1.462 239.261 1.229 239.312 1.188C239.539 1.364 239.79 1.526 239.969 1.731C240.022 1.793 239.853 1.969 239.824 2.098L239.799 2.219C239.813 2.358 239.958 2.485 240.118 2.499L240.185 2.447C240.591 2.126 240.771 2.232 240.865 2.638L240.87 2.663C241.109 2.651 241.312 2.55 241.319 2.439C241.328 2.328 241.332 2.088 241.188 2.059C241.044 2.03 241.27 1.667 241.469 1.622C241.667 1.577 242.057 2.09 242.12 2.387L242.089 2.654C242.077 2.759 241.84 2.932 241.715 2.927L241.169 2.906C240.573 2.823 240.103 2.891 240.123 3.056C240.143 3.222 241.035 3.308 241.159 3.482C241.284 3.656 241.318 3.984 241.352 4.103C241.386 4.222 241.2 4.642 241.036 4.83L240.862 4.987C240.649 5.176 240.419 5.352 240.193 5.532L240.173 5.549C240.132 5.553 240.108 5.375 240.12 5.153C240.131 4.932 239.721 4.351 239.542 4.465C239.362 4.579 238.905 4.957 239.017 5.079L239.102 5.141L239.211 5.222C239.346 5.296 239.393 5.402 239.314 5.456C239.236 5.511 239.105 5.728 239.199 5.818C239.292 5.908 241.098 6.14 240.97 6.185C240.842 6.23 240.733 6.338 241.002 6.327C241.271 6.316 241.495 6.847 241.58 6.836C241.664 6.826 241.863 6.751 241.835 6.694C241.806 6.637 241.867 6.52 242.037 6.56L242.19 6.597C242.697 6.853 242.934 7.077 242.717 7.095C242.5 7.113 241.88 7.282 241.881 7.426C241.882 7.571 242.123 7.876 242.277 8.059C242.432 8.241 243.249 8.331 243.306 8.278C243.363 8.225 243.742 8.107 243.963 8.187C244.185 8.267 244.686 8.315 244.537 8.098C244.389 7.881 245.104 7.1 245.393 6.733L245.715 6.724L246.185 6.71C246.32 6.445 246.449 6.329 246.471 6.452C246.492 6.575 246.655 6.932 246.756 6.807C246.856 6.682 247.284 6.51 247.509 6.67C247.733 6.83 248.531 7.197 248.781 7.128C249.03 7.059 249.726 6.62 250.245 6.76L250.716 6.875C250.728 6.878 250.77 6.75 250.825 6.702C250.924 6.615 251.052 6.469 251.151 6.477L251.493 6.506C251.412 6.724 251.263 7.004 251.162 7.131C251.062 7.257 251.15 7.844 251.693 8.042L251.978 7.42C252.044 7.277 252.389 7.192 252.625 7.139C252.717 7.119 252.927 7.242 252.973 7.335C253.041 7.476 253.03 7.627 253.261 7.451C253.456 7.301 253.662 7.274 253.789 7.482C253.884 7.637 253.983 7.856 253.917 7.996C253.798 8.247 253.549 8.457 253.365 8.69L253.18 8.925C253.321 9.166 253.732 9.462 254.095 9.583C254.456 9.704 255.209 9.765 255.477 9.763C255.744 9.761 256.827 10.375 256.986 10.587C257.146 10.799 257.991 10.925 258.045 10.981C258.098 11.038 258.09 11.471 258.056 11.917L258.368 12.281L258.485 12.416C258.557 12.601 258.395 12.845 258.127 12.956L257.94 13.127C257.64 13.401 257.668 13.423 257.436 13.274C257.4 13.252 257.375 13.219 257.339 13.198L256.962 12.97C256.801 13.263 256.59 13.336 256.493 13.131C256.397 12.927 255.51 12.883 255.262 12.924C255.013 12.965 254.325 13.203 254.65 13.302C254.977 13.4 255.59 13.767 255.469 13.953L255.723 14.077L256.145 14.283C256.433 13.958 256.68 13.746 256.694 13.811C256.708 13.876 256.934 14.042 257.122 14.076C257.311 14.109 257.084 14.64 256.777 14.703L256.617 14.866L256.439 15.046C256.287 15.361 256.261 15.659 256.382 15.709C256.502 15.759 256.546 16.113 256.235 16.394C255.926 16.675 255.215 17.413 255.312 17.442C255.408 17.471 255.606 17.684 255.475 17.833L255.359 17.836L255.121 17.844C254.885 17.906 254.626 18.166 254.546 18.424L254.809 18.636C254.891 18.702 254.484 19.903 254.369 19.973L254.098 20.139C253.802 20.313 253.557 20.564 253.554 20.695C253.551 20.826 253.185 21.27 253.103 21.446L252.98 21.577L252.705 21.87C252.894 22.171 253.046 22.674 253.045 22.986L252.976 23.267L252.877 23.667C253.236 23.712 253.385 23.858 253.205 23.993C253.025 24.127 252.261 24.511 251.957 24.505L251.643 24.517L251.176 24.536C250.827 24.806 250.44 25.056 250.316 25.09L250.304 25.073C250.029 24.669 249.753 25.249 249.44 25.061C249.181 24.904 248.841 24.827 248.508 24.751L248.475 24.744C248.346 24.998 248.029 25.094 247.771 24.957C247.515 24.82 246.784 25.181 246.724 25.191L246.705 25.173C246.494 24.972 246.168 25.17 246.026 25.095L245.62 24.878C245.274 25.036 244.695 25.021 244.335 24.846L243.964 25.127L243.897 25.178C243.74 25.153 243.141 24.993 242.565 24.823L242.039 25.153L241.953 25.207C241.792 25.186 241.496 25.199 241.295 25.237C241.094 25.275 240.419 25.062 240.256 25.014C240.093 24.966 239.554 25.048 239.388 25.139C239.222 25.229 238.313 25.115 237.938 25.149L237.587 25.17C237.42 25.18 237.191 25.182 237.089 25.102L236.839 24.91C236.604 25.011 236.095 25.183 235.706 25.291L235.356 25.402C235.262 25.432 235.202 25.535 235.126 25.605L234.934 25.785C234.837 25.591 234.66 25.47 234.54 25.517C234.42 25.563 234.05 26.019 234.057 26.401L234.032 26.761L234.027 26.823C233.367 26.82 232.677 26.874 232.494 26.945L232.587 26.874L233.236 26.383C233.227 26.813 233.367 27.13 233.549 27.088C233.729 27.047 233.744 26.578 233.737 26.4C233.73 26.221 233.437 25.736 233.354 25.676C233.271 25.615 232.808 25.915 232.623 26.071C232.438 26.228 233.507 26.994 234.338 27.21L234.571 27.022L234.836 26.809C235.071 26.452 235.533 26.243 235.863 26.346C236.192 26.449 237.002 26.806 236.979 26.553L237.041 26.398L237.065 26.339C237.29 26.326 237.452 26.362 237.425 26.42C237.396 26.477 237.417 26.682 237.553 26.699C237.689 26.716 238.033 26.836 237.995 26.926L237.976 26.925L237.597 26.896C237.273 27.122 237.223 27.362 237.483 27.428L237.573 27.364L237.947 27.097C238.395 27.105 238.945 27.166 239.169 27.233C239.394 27.3 239.928 26.94 240.029 26.913L240.091 26.942L240.325 27.049C240.559 27.172 240.949 27.211 241.194 27.136L241.433 27.312C241.506 27.367 241.726 27.29 241.88 27.278L241.974 27.27C242.077 27.269 242.162 27.368 242.162 27.488V27.744C242.162 27.905 242.003 28.243 241.809 28.495L241.399 28.481L240.962 28.466C240.354 28.472 240.428 28.798 241.125 29.19L241.86 29.142L242.166 29.122C242.326 28.939 242.621 28.754 242.823 28.711L243.135 28.939C243.155 29.29 243.288 29.687 243.429 29.821L243.629 29.786C243.7 29.773 243.786 29.613 243.77 29.533L243.757 29.465C243.624 29.406 243.34 29.413 243.125 29.481L242.854 29.41C242.68 29.364 242.478 29.576 242.103 29.479L241.598 29.349C240.936 29.484 240.203 29.807 239.969 30.066L240.272 30.344L240.349 30.414C240.507 30.461 241.015 30.211 241.477 29.859L242.106 30.083L243.151 30.644L243.609 30.187C243.369 29.852 243.289 29.429 243.432 29.247C243.574 29.065 244.103 28.718 244.396 29.004L244.536 29.216C244.592 29.301 244.524 29.474 244.448 29.574L244.347 29.706C244.228 30.214 244.4 30.585 244.729 30.53C245.059 30.475 245.576 31.193 245.432 31.293C245.287 31.393 244.853 31.798 245.121 31.739C245.391 31.681 248.062 31.366 248.472 31.208C248.882 31.05 248.33 30.948 247.78 31.022L247.319 31.211L247.182 31.267C247.006 31.29 246.886 31.263 246.915 31.206C246.944 31.149 246.882 30.945 246.71 30.879L246.681 30.908C246.494 31.085 246.351 31.292 246.179 31.481L246.049 31.624C246.191 31.815 246.534 32.039 246.809 32.121C247.084 32.204 247.628 31.637 247.702 31.572C247.777 31.507 248.029 31.604 248.077 31.938L248.587 31.731L248.875 31.615C248.243 31.549 247.31 31.383 246.801 31.247C246.292 31.111 246.333 30.659 246.465 30.528C246.597 30.396 246.958 30.059 246.985 30.071L246.997 30.102C247.069 30.293 247.066 30.601 247.212 30.657L247.617 30.811C247.638 30.524 247.727 30.218 247.816 30.131C247.905 30.044 249.092 30.24 249.92 30.403L250.684 30.046L250.946 29.923C250.899 30.14 250.949 30.379 251.057 30.455C251.164 30.531 251.574 30.681 251.603 30.53C251.63 30.379 251.958 30.125 252.286 30.213C252.615 30.301 252.344 31.094 252.5 31.239C252.657 31.384 253.61 31.45 254.371 31.155L255.056 30.944L255.142 30.917C255.364 31.144 255.602 31.29 255.667 31.241C255.733 31.191 255.917 31.03 255.935 30.987L255.925 30.982L255.646 30.823C255.333 30.659 254.942 30.534 254.776 30.546L254.622 30.558C254.527 30.565 254.408 30.595 254.34 30.561C253.728 30.261 253.81 30.627 253.794 30.92L253.79 30.982C253.732 31.048 253.675 30.976 253.662 30.822C253.649 30.668 253.062 30.585 252.983 30.486L253.003 30.404C253.019 30.338 253.207 30.23 253.265 30.249C253.606 30.362 253.908 29.899 254.29 30.216L254.338 30.256C254.728 30.034 255.096 29.975 255.157 30.124L255.294 30.216L255.356 30.259C255.565 30.164 255.875 30.012 256.044 29.92C256.213 29.828 256.811 29.656 256.884 29.808C256.956 29.959 257.208 30.374 257.26 30.349L257.347 30.326L257.865 30.194C258.43 30.043 259.144 29.999 259.452 30.098L259.45 30.123C259.421 30.5 259.691 30.926 259.221 31.25C259.182 31.277 259.246 31.475 259.326 31.523C259.399 31.567 259.622 31.553 259.67 31.499C259.815 31.337 259.901 31.14 260.026 30.964L260.099 30.861C260.206 30.761 260.329 30.782 260.374 30.909C260.418 31.035 260.669 31.392 260.792 31.436C260.914 31.48 261.317 31.409 261.42 31.487C261.523 31.565 261.845 31.725 261.879 31.649C261.913 31.573 262.095 31.447 262.192 31.567C262.29 31.687 262.85 31.851 263.127 31.551L263.431 31.363L263.449 31.351C263.644 31.522 263.724 31.73 263.628 31.814C263.532 31.897 263.351 32.179 263.502 32.198C263.653 32.217 264.078 32.379 264.019 32.503C263.959 32.628 263.937 33.042 264.143 33.068C264.349 33.094 264.541 33.364 264.03 33.6L263.619 33.815C263.478 33.89 263.336 34.013 263.284 34.138C263.232 34.263 263.234 34.459 263.325 34.55C263.407 34.632 263.665 34.669 263.803 34.63L264.09 34.548C264.091 34.301 264.164 34.016 264.253 33.914L264.362 33.871C264.69 33.742 265.654 34.102 265.689 34.376L265.699 34.455C265.544 34.559 265.243 34.747 265.03 34.874C264.816 35.002 264.349 35.469 264.335 35.522C264.321 35.576 264.153 35.573 263.994 35.357L263.826 35.327L263.679 35.3C263.426 35.474 263.33 35.681 263.467 35.761C263.603 35.84 264.073 36.545 264.062 37.065L264.087 37.604L264.114 38.2C263.547 38.546 263.062 38.739 263.037 38.628C263.012 38.517 262.832 38.3 262.695 38.392C262.558 38.483 262.631 38.999 262.489 39.019C262.348 39.038 262.006 39.267 262.189 39.464H262.328C262.562 39.464 262.788 39.306 263.029 39.274C263.212 39.251 263.528 39.168 263.529 39.461C263.53 39.615 263.466 39.868 263.346 39.907L262.928 40.044C262.495 40.118 262.171 39.822 262.208 39.386L261.555 39.501L261.039 39.592C261.251 39.986 261.229 40.32 260.991 40.333C260.754 40.346 260.07 40.286 260.048 40.167C260.025 40.048 259.831 39.843 259.675 40.009C259.518 40.175 259.019 40.57 258.99 40.436C258.961 40.303 258.77 39.959 258.653 40.085C258.536 40.21 257.78 40.522 257.261 40.47L256.899 40.65L256.514 40.842C256.142 40.818 255.504 40.82 255.097 40.848L254.722 40.829L254.597 40.824C254.456 40.87 253.997 40.848 253.576 40.773C253.155 40.699 251.972 40.953 251.873 40.909C251.775 40.864 251.308 40.804 251.065 40.783C250.822 40.762 250.2 40.811 250.014 40.7C249.828 40.588 249.057 41.077 248.694 41.214L248.63 40.696L248.608 40.527C248.353 40.63 248.007 40.767 247.839 40.832C247.671 40.897 247.362 41.125 247.26 40.985C247.157 40.845 246.362 41.021 246.137 41.048C245.911 41.076 245.249 40.963 245.114 40.915C244.979 40.868 244.586 41.136 244.503 41.201C244.419 41.265 244.006 41.147 243.898 41.107C243.79 41.067 243.209 41.158 242.854 41.311C242.5 41.464 241.226 41.045 240.843 41.018C240.461 40.991 239.475 41.47 239.308 41.495C239.141 41.52 238.51 41.446 238.259 41.67L237.802 41.378C237.607 41.254 237.127 41.457 236.776 41.456C236.484 41.454 236.193 41.341 235.9 41.335C235.683 41.33 235.459 41.411 235.243 41.467L234.746 41.596C234.716 41.295 234.717 41.208 234.749 41.403C234.781 41.598 233.949 41.374 233.656 41.474L233.394 41.453L232.305 41.364C231.104 41.3 229.775 41.269 229.353 41.297C228.929 41.324 227.776 41.587 227.69 41.625C227.605 41.663 227.189 41.72 226.786 41.773L226.677 41.666C226.328 41.329 225.939 41.678 225.714 41.58L225.31 41.405C224.893 41.446 224.368 41.44 224.144 41.394C223.92 41.347 223.001 41.685 222.489 41.748L221.997 41.506L221.719 41.369C221.247 41.473 220.726 41.511 220.561 41.453C220.396 41.394 219.998 41.572 219.904 41.465C219.811 41.359 219.387 41.153 219.18 41.255C218.973 41.357 218.218 41.62 218.012 41.636C217.806 41.653 217.246 41.553 217.082 41.479C216.917 41.405 215.988 41.679 215.432 41.795C214.875 41.911 213.313 41.615 213.191 41.714C213.069 41.812 212.562 41.561 212.436 41.537C212.31 41.512 211.974 41.602 211.921 41.527C211.868 41.452 211.677 41.306 211.628 41.39C211.58 41.474 211.231 41.61 210.979 41.475C210.728 41.339 209.856 41.694 209.647 41.717L209.524 41.646C209.071 41.387 208.68 41.396 208.219 41.654C207.827 41.873 207.411 41.338 207.157 41.493C206.772 41.726 206.352 41.767 206.049 41.649C205.785 41.547 205.677 41.575 205.449 41.638C205.3 41.678 204.937 41.495 204.921 41.519C204.719 41.836 204.485 41.393 204.331 41.54C204.167 41.697 204.099 41.626 203.935 41.532L203.605 41.342C203.183 41.401 202.284 41.518 201.607 41.602C200.931 41.686 198.595 41.611 198.306 41.673L198.04 41.679L197.274 41.697C196.436 41.674 195.59 41.749 195.395 41.864C195.201 41.979 194.196 41.774 193.782 41.708L193.395 41.69C192.946 41.669 192.494 41.68 192.044 41.687L191.753 41.692C191.645 41.507 191.517 41.358 191.468 41.362C191.418 41.365 191.175 41.436 191.037 41.514C190.899 41.591 190.473 41.813 190.327 41.727C190.182 41.642 189.221 41.869 188.543 41.849C187.866 41.829 185.89 41.656 185.645 41.619C185.4 41.582 184.641 41.791 184.463 41.669C184.286 41.547 183.423 41.834 183.188 41.853C182.954 41.871 182.075 41.934 181.773 41.968C181.473 42.002 180.586 41.736 180.368 41.797C180.149 41.858 179.347 41.868 179.129 41.802C178.911 41.737 177.877 41.861 177.429 41.843L177.001 41.736L176.659 41.65C176.102 41.795 175.057 41.913 174.337 41.912C173.618 41.911 171.281 41.974 170.742 42.061L170.582 41.489L170.569 41.444C170.201 41.452 169.939 41.52 169.985 41.596C170.032 41.671 169.989 41.901 169.76 41.896C169.53 41.891 168.668 41.996 168.323 42.1L167.941 41.927L167.726 41.829C167.586 41.689 167.376 41.568 167.259 41.561L167.21 41.601C167.106 41.686 167.021 41.899 166.966 41.891L165.891 41.735C164.713 41.932 163.732 41.979 163.714 41.84C163.694 41.701 163.433 41.378 163.181 41.475L162.974 41.452C162.52 41.403 162.699 41.775 162.513 41.849C162.33 41.922 162.08 41.873 161.868 41.91C161.624 41.953 161.395 42.056 161.15 42.086L161.005 42.104C160.831 42.049 160.499 41.962 160.266 41.912C160.033 41.861 159.422 41.983 159.278 42.04C159.136 42.097 158.466 41.975 158.251 42.029C158.035 42.083 156.96 42.13 156.348 42.277L155.806 41.919C155.673 41.831 155.303 41.839 155.161 41.929L154.708 42.216C154.236 42.075 153.595 41.926 153.283 41.886L153.246 41.951C152.967 42.434 152.593 41.806 152.271 42.036L151.962 42.255C151.62 42.082 150.964 41.873 150.504 41.79L150.067 42.052L149.76 42.236C149.524 41.942 149.058 41.76 148.723 41.831L148.624 41.965C148.394 42.276 148.213 41.824 148.029 41.981L147.972 42.03C147.9 42.072 147.515 42.044 147.114 41.967C146.715 41.89 144.525 42.13 144.406 42.154L144.365 42.121C144.088 41.892 143.736 41.769 143.442 41.995C143.078 42.272 143.002 41.758 142.653 41.879L142.387 41.972C141.996 41.835 141.15 41.791 140.506 41.872L139.915 41.899C139.565 41.915 138.994 41.97 138.901 41.835L138.649 41.465C138.387 41.624 138.092 41.746 137.995 41.736C137.897 41.726 137.501 41.752 137.209 41.712L136.959 41.703C136.73 41.694 136.496 41.842 136.256 41.893L136.226 41.9C136.145 41.766 135.988 41.594 135.876 41.517C135.763 41.439 135.49 41.764 135.396 41.927L135.132 41.907L134.802 41.883C134.437 41.895 133.805 41.934 133.395 41.968L133.009 41.917L132.622 41.866C132.18 41.888 131.797 41.803 131.771 41.678C131.746 41.553 131.666 41.248 131.645 41.247C131.622 41.246 131.54 41.346 131.51 41.468C131.48 41.591 131.239 41.923 131.05 41.889L130.984 41.821C130.623 41.444 130.632 41.439 130.128 41.771L130.073 41.808C130.013 41.843 129.546 41.906 129.035 41.947C128.524 41.989 127.188 41.559 127.032 41.646C126.876 41.733 126.574 41.555 126.719 41.437C126.863 41.319 127.132 40.977 126.863 41.044C126.595 41.112 125.986 41.526 125.883 41.67L125.791 41.669C125.592 41.668 125.395 41.539 125.196 41.537C125.02 41.535 124.845 41.66 124.661 41.678C124.446 41.699 124.187 41.72 124.008 41.645L123.38 41.382C122.71 41.531 121.969 41.663 121.731 41.676L121.538 41.621C121.225 41.53 120.511 41.379 120.224 41.474L119.63 41.671C119.092 41.448 118.583 41.37 118.498 41.499C118.414 41.627 117.116 41.493 116.338 41.468L115.617 41.464L115.079 41.462C114.495 41.437 113.598 41.512 113.084 41.628L112.589 41.478C112.318 41.396 111.614 41.216 111.399 41.106C111.292 41.051 110.97 41.088 110.965 41.112C110.879 41.547 110.671 41.613 110.292 41.29L110.265 41.267C110.219 41.257 109.756 41.352 109.237 41.481L108.839 41.389C108.352 41.275 107.975 41.148 107.524 41.445C107.409 41.521 107.111 41.427 106.903 41.389L106.742 41.359C106.573 41.3 106.281 41.338 106.092 41.444C105.903 41.551 105.039 41.368 104.807 41.341C104.574 41.314 103.551 41.313 103.056 41.399L102.692 41.061C102.684 41.053 102.576 41.136 102.508 41.147L101.39 41.33C100.786 41.196 100.213 41.082 100.114 41.075C100.017 41.069 99.2308 41.133 98.4848 41.135L97.8148 41.225L97.7478 41.233C97.6238 40.998 97.4818 40.93 97.4338 41.081C97.3838 41.232 96.2658 41.332 95.5818 41.427L95.0358 41.034L94.9898 41C94.8278 41.071 94.3788 41.136 93.9918 41.143L93.6428 41.034C93.3538 40.944 93.1178 41.495 92.7348 41.114C92.6718 41.052 92.4388 41.095 92.2858 41.102C92.1888 41.107 92.0908 41.162 91.9998 41.152L91.8428 41.135C91.6838 41.093 91.2658 41.138 90.9138 41.235L90.6998 40.971C90.4058 40.607 90.1858 41.2 89.8288 40.969C89.4678 40.735 89.6658 40.406 89.4468 40.211C89.3458 40.12 88.9988 40.114 88.8388 40.183L88.5158 40.323C88.1978 40.549 88.0068 40.754 88.0898 40.779C88.1728 40.803 88.1168 40.934 87.7478 41.004L87.4118 40.945C87.2078 40.91 87.0058 40.804 86.8088 40.814L86.1928 40.845C85.8208 40.481 85.5168 40.294 85.5168 40.429C85.5168 40.563 85.2198 41.093 84.8558 41.081C84.4928 41.071 83.6808 40.64 83.6348 40.706L83.5808 40.759L83.4878 40.85C83.3848 40.94 82.9868 40.987 82.6058 40.956C82.2258 40.925 81.1408 40.709 81.0178 40.612C80.8948 40.516 80.5188 40.505 80.5018 40.652C80.4858 40.8 79.9498 40.803 79.9228 40.798C79.8948 40.794 79.8098 40.517 79.7718 40.163L79.2038 40.498C78.9418 40.653 78.5978 40.723 78.2788 40.798L78.1148 40.837C77.8478 40.819 77.6278 40.645 77.6248 40.451L77.6308 40.281C77.6358 40.093 77.6498 39.893 77.3118 39.928C76.9608 39.963 77.1308 40.202 77.0868 40.356L77.0668 40.422C77.0008 40.555 76.8788 40.572 76.7978 40.461C76.7168 40.35 76.3158 40.219 76.1408 40.486L75.9998 40.648C75.9368 40.72 75.8038 40.798 75.7098 40.792L75.6228 40.787C75.5428 40.689 75.4268 40.466 75.3668 40.291C75.3068 40.116 74.7838 40.037 74.8968 40.092C75.0118 40.148 74.8678 40.584 74.3258 40.935L73.8448 40.495L73.6538 40.32C73.4588 40.401 73.1488 40.554 72.9658 40.66C72.7818 40.765 71.8298 40.408 71.7448 40.369L71.6678 40.37L71.5908 40.372C71.5078 40.413 71.4708 40.483 71.5088 40.527C71.5458 40.571 71.2018 40.816 70.6128 40.921L70.2968 40.767L69.8068 40.53C69.3378 40.619 68.9958 40.603 69.0478 40.496C69.0998 40.388 68.8118 39.781 68.2558 39.463L67.5198 39.856L67.0688 40.097C66.3288 39.881 65.8898 39.719 66.0938 39.736L66.1108 39.699L66.3218 39.249C66.7768 39.342 67.2068 39.435 67.2758 39.457C67.3458 39.478 67.3968 39.102 66.9078 39.139L66.6398 38.979L66.0478 38.627C65.8688 38.977 65.7078 39.203 65.6898 39.128C65.6728 39.053 65.5068 38.832 65.3588 38.804C65.2118 38.774 64.8828 39.051 64.8478 39.124C64.8118 39.198 64.4758 39.488 64.2428 39.663C64.0118 39.839 63.6598 40.675 63.6248 40.508C63.5898 40.341 63.3748 39.931 63.2188 39.939C63.0618 39.948 62.5498 39.881 62.4368 39.839C62.3238 39.798 62.0488 39.906 62.1978 39.977C62.3478 40.048 62.7438 40.316 62.7638 40.395L62.7368 40.459C62.7208 40.5 62.6108 40.555 62.5678 40.543L62.2928 40.469C61.9358 40.352 61.6428 40.148 61.6428 40.014C61.6428 39.88 61.5078 39.512 61.3428 39.565C61.1788 39.619 61.0468 40.132 60.9848 40.276C60.9248 40.421 60.3078 40.35 60.2458 40.33C60.1858 40.311 60.0458 39.955 60.2298 39.631C60.4138 39.307 60.4868 38.65 60.2178 38.972C59.9478 39.292 59.1118 40.021 58.9368 39.902C58.7628 39.783 58.3748 40.165 58.2948 40.301C58.2158 40.436 57.5428 40.481 57.4358 40.312C57.3268 40.143 58.1988 39.838 58.4298 39.757C58.6598 39.675 59.3248 39.427 59.3768 39.348C59.4288 39.269 59.4738 38.971 59.4508 38.878L59.4028 38.867C59.2898 38.843 59.1018 38.824 59.0508 38.874L58.8628 39.059C58.6898 39.284 58.4968 39.46 58.4328 39.451C58.3688 39.442 58.1858 39.316 58.1748 39.196C58.1638 39.076 57.8958 38.702 57.8028 38.594C57.7088 38.486 57.4068 38.232 57.3418 38.273C57.2758 38.313 56.9108 38.559 56.7148 38.78L56.9418 38.792L57.4608 38.822C57.6808 39.119 57.8618 39.394 57.8648 39.434C57.8678 39.473 57.6988 39.664 57.4768 39.678L57.2758 39.707L57.1118 39.73C56.9378 39.78 56.7368 39.853 56.6658 39.892C56.5948 39.932 56.3158 39.773 56.2118 39.852C56.1078 39.931 55.7858 39.985 55.6938 39.821C55.6028 39.657 55.0778 39.281 54.7988 39.475L54.6068 39.611L54.4048 39.753C54.2428 39.642 53.8628 39.434 53.5618 39.29L53.3738 39.053L53.1858 38.815C52.8898 38.963 52.5168 39.144 52.3558 39.218L52.2718 39.319L52.1068 39.516C51.9478 39.78 51.5738 39.916 51.2768 39.818C50.9798 39.72 50.4638 39.324 50.2678 39.27C50.0718 39.217 49.6068 39.18 49.6868 39.398L49.6198 39.46C49.4898 39.579 49.2468 39.611 49.0898 39.717L49.0498 39.744C49.1288 39.893 49.1238 40.044 49.0398 40.079C48.9568 40.113 48.7108 39.983 48.6258 39.832C48.5408 39.682 47.8128 39.272 47.2508 39.346L47.3028 39.975C47.3168 40.152 46.6708 40.233 46.5558 40.059C46.4388 39.885 46.4788 39.729 46.8048 39.69C46.9018 39.679 47.0658 39.465 47.0328 39.403L46.8978 39.153C46.7818 39.314 46.4078 39.417 46.0678 39.382C45.7278 39.348 44.8188 39.65 44.7028 39.596L44.5848 39.576C44.4358 39.55 44.2338 39.506 44.1318 39.562L43.7128 39.79C43.2788 39.658 42.8538 39.532 42.7698 39.509C42.6848 39.487 42.2728 39.533 41.9068 39.563L41.6198 39.366L41.5278 39.303C41.3498 39.252 41.1748 39.321 41.1398 39.455C41.1048 39.59 40.6958 40.045 40.3388 40.056C39.9808 40.065 39.0108 40.004 38.9738 40.068L38.9308 40.125L38.8768 40.197C38.8108 40.271 38.7318 40.273 38.7028 40.202L38.6588 40.145L38.5448 39.997C38.4218 39.852 38.0318 39.889 37.6798 40.078L37.6338 40.039L37.3028 39.759C37.0708 39.94 36.7718 40.049 36.6388 40.001C36.5058 39.953 35.8938 40.044 35.6428 39.955C35.3908 39.867 34.5528 40.173 34.3408 40.22C34.1298 40.267 33.4548 40.074 33.1678 40.223L32.8258 39.941L32.5708 39.73C32.1488 39.874 31.5228 39.993 31.1798 39.995L30.8788 40.14L30.5698 40.288C30.2498 40.164 29.8298 39.931 29.6368 39.768L29.3838 40.069C29.1638 40.331 28.9488 39.942 28.7368 39.941C28.5038 39.94 28.1508 40.187 28.0588 40.124C27.7038 39.882 27.3168 39.906 26.9328 39.931C26.4668 39.961 25.9448 39.761 25.5438 40.128L25.5028 40.166C25.3848 40.152 25.1188 40.078 24.9128 40.001C24.7068 39.924 23.8248 39.827 23.4088 39.958L23.0558 39.907C22.3148 39.799 21.5878 39.613 20.8748 39.414C20.7188 39.371 20.6528 39.132 20.5248 38.996C20.4578 38.924 20.3428 38.831 20.2538 38.834C20.0798 38.84 19.8888 38.964 19.7438 38.93L19.6438 38.906C19.5868 38.725 19.3288 38.519 19.0718 38.446C18.8148 38.373 18.0458 38.478 17.8668 38.507L17.6928 38.396C17.3248 38.162 16.8698 38.103 16.1208 38.105C16.0578 38.105 15.9108 37.878 15.9428 37.842C16.1038 37.667 16.4038 37.541 15.8308 37.485C15.5698 37.46 15.5958 37.22 15.7898 37.071L15.8858 36.997C15.9788 36.909 15.9928 36.728 15.9188 36.596C15.8458 36.463 16.2258 36.277 16.3668 36.379C16.5098 36.481 17.0528 36.32 17.1968 36.432L17.2718 36.556C17.3258 36.645 17.2488 36.782 17.2928 36.879C17.3278 36.955 17.4478 37.022 17.5498 37.055L17.6058 37.073C17.6978 37.025 17.9028 36.832 18.0618 36.643C18.2208 36.455 18.5848 35.787 18.4928 35.613C18.4018 35.44 17.5858 35.594 17.3578 35.53L17.3298 35.429L17.2528 35.152C17.0718 34.895 16.8478 34.792 16.7548 34.925C16.6608 35.057 16.5408 35.621 16.3078 35.415C16.0738 35.208 15.0828 34.906 14.9318 34.784C14.7788 34.663 15.1978 34.234 15.3938 34.364C15.5888 34.494 16.1788 34.789 16.2708 34.733C16.3638 34.677 16.5618 34.338 16.6948 34.119L17.0468 34.325C17.1518 34.386 17.4408 34.396 17.4828 34.344C17.6128 34.184 17.5888 34.06 17.2868 33.96L17.0628 33.886C16.8648 33.607 16.8658 33.293 17.0668 33.188L17.1868 33.049L17.2558 32.968C17.2108 32.81 17.0928 32.644 16.9928 32.599C16.8948 32.553 16.3018 32.258 15.8348 32.185L15.7278 32.53L15.5558 33.081C15.0748 32.944 14.8008 32.786 14.9468 32.73C15.0928 32.674 15.3548 32.52 15.2998 32.475C15.2438 32.431 14.9328 32.175 14.7248 32.001L14.5258 31.851L14.3508 31.719C14.1218 31.782 13.7448 31.733 13.5128 31.61L13.2738 31.569C13.0158 31.525 12.7358 31.559 12.4658 31.559C12.0148 31.559 11.5518 31.508 11.1158 31.574C10.6928 31.639 10.3668 31.37 9.9368 31.456C9.7228 31.499 9.4188 31.358 9.1988 31.245L8.8968 31.089C8.5428 31.089 7.8878 31.036 7.4398 30.969C6.9928 30.903 5.5008 30.269 4.9848 30.121L4.4978 30.023L4.1668 29.957C3.7898 29.927 3.3018 29.852 3.0828 29.792L2.8778 29.689L2.0538 29.274C2.1868 28.822 2.3698 28.275 2.4628 28.058L1.8498 28.154C1.5478 28.201 1.3878 28.064 1.4528 27.816L1.4968 27.648C1.5478 27.463 1.5158 27.239 1.4248 27.149C1.3348 27.059 1.1148 26.761 1.2348 26.705C1.3538 26.647 1.7928 26.352 1.9598 26.178L1.6198 26.075C1.3368 25.989 1.2188 25.869 1.3558 25.712L1.6018 25.435C1.3688 25.291 0.995798 24.611 0.771798 23.924L0.264798 23.381L0.144799 23.252C0.347799 22.884 0.394798 22.569 0.250798 22.551C0.104798 22.534 -0.112201 22.364 0.0687991 22.211C0.250799 22.058 0.0737996 21.519 0.2068 21.489C0.3398 21.458 0.703799 21.138 0.596799 20.874L0.505799 20.627C0.409799 20.366 0.218799 20.088 0.263799 19.842C0.309799 19.593 0.5518 19.336 0.7898 19.153C0.9498 19.031 1.3808 19.091 1.4648 18.967L1.6428 18.707C1.8988 18.739 2.2268 18.774 2.3708 18.785C2.5148 18.794 3.1958 18.181 3.3318 18.233C3.4678 18.285 4.2628 18.036 4.5438 18.02L4.8148 17.934C5.0258 17.868 5.4148 18.116 5.5848 18.033C5.8758 17.892 6.0058 17.915 6.2698 18.058C6.4328 18.144 6.7818 18.105 6.9798 18.019L7.5688 17.766C7.5098 18.063 7.9238 17.966 8.4898 17.55L9.3218 17.68L9.4558 17.701C9.6308 17.603 9.8688 17.564 9.9838 17.614C10.1008 17.663 10.7678 17.634 11.2458 17.279L11.9248 17.591C12.1358 17.688 12.6858 17.404 12.8038 17.507L13.1808 17.831C13.4668 17.649 13.9798 17.371 14.3208 17.213L14.6118 17.154C14.9098 17.095 15.3178 17.094 15.6318 17.147C16.1528 17.234 16.6038 17.339 17.1108 17.078L17.5068 16.875C18.0368 16.852 18.5178 16.904 18.5738 16.99L18.6378 17.061L18.7628 17.203C18.9108 17.358 19.1668 17.291 19.3298 17.055C19.4938 16.817 20.6608 17.015 21.0388 17.038C21.4158 17.061 22.5318 16.6 22.8178 16.583L23.0858 16.592C23.7068 16.614 24.0268 16.593 24.3018 16.494C24.4158 16.453 24.5348 16.37 24.6428 16.379L24.8478 16.397C25.0298 16.315 25.4008 16.191 25.6738 16.121L25.9018 16.169L26.0898 16.209C26.2608 16.404 26.3898 16.336 26.3778 16.057L26.9038 16.134C27.2228 16.181 27.6208 16.268 27.9058 15.992C27.9248 15.974 28.0818 16.01 28.0838 16.028C28.1048 16.212 28.1208 16.437 28.4288 16.353C28.5718 16.315 28.6038 16.031 28.7528 15.975C29.0918 15.848 29.4698 15.734 29.8348 15.725L30.2588 15.715C30.7408 15.767 31.2918 15.753 31.4828 15.683C31.6748 15.613 32.3508 15.521 32.5258 15.54C32.7018 15.558 33.2778 15.576 33.3478 15.519C33.4178 15.462 33.7078 15.304 33.7338 15.377C33.7608 15.45 34.0058 15.618 34.2028 15.54C34.3988 15.462 35.0448 15.319 35.1668 15.408C35.2878 15.497 35.7718 15.73 35.8948 15.668C36.0158 15.607 36.2588 15.305 36.3918 15.161C36.5248 15.017 37.1638 15.091 37.3898 15.028L37.6218 15.023L37.9108 15.017C38.2448 15.01 38.8078 15.062 39.1608 15.134L39.4978 15.175C39.5878 15.185 39.7038 15.164 39.7808 15.123L40.5128 14.745C40.9508 15.021 41.3258 15.153 41.3478 15.038C41.3688 14.923 41.5948 14.62 41.7858 14.704L41.9368 14.735L42.0828 14.766C42.2558 14.764 42.5668 14.599 42.7758 14.398L43.1268 14.371L43.2658 14.361C43.4158 14.191 43.4008 13.931 43.2318 13.783L43.0488 13.74C42.7368 13.668 42.7528 13.889 42.6858 14.063C42.6588 14.131 42.3828 14.142 42.2178 14.167C41.8618 14.223 41.4128 14.402 41.1678 14.29C40.7618 14.104 40.3878 14.205 40.0068 14.176C39.6038 14.144 39.1948 14.169 38.7898 14.169C38.3838 14.169 37.9728 14.136 37.5728 14.177C37.0008 14.235 36.8028 13.853 36.5088 13.612L36.1668 13.33C35.7978 13.331 35.3348 13.382 35.1388 13.443C34.9408 13.504 34.6358 13.522 34.4848 13.542C34.3338 13.562 33.8438 13.272 33.6918 13.184C33.5418 13.096 32.9418 12.903 32.8328 13.017L32.7588 13.142C32.6438 13.335 32.6548 13.338 33.0428 13.347C33.1068 13.349 33.2268 13.376 33.2268 13.386C33.2178 13.486 33.2088 13.664 33.1638 13.672C32.8988 13.715 32.5128 13.912 32.4538 13.504L32.4248 13.298C32.4868 13.042 32.5598 12.783 32.5838 12.722C32.6088 12.66 32.5868 12.512 32.4818 12.538L32.3858 12.559C32.2628 12.584 32.1388 12.606 32.0148 12.628L31.5278 12.714C31.7238 12.964 31.6248 13.288 31.3078 13.433C30.9908 13.579 30.0288 13.575 30.0178 13.464L30.0428 13.369L30.0858 13.215C30.1588 13.05 30.1198 12.924 29.9978 12.934C29.8768 12.945 29.4988 12.706 29.5468 12.369L29.4468 12.338L28.5168 12.049C28.7018 11.419 29.0838 10.958 29.3658 11.025L29.5698 11.089C29.7638 11.151 29.9398 11.255 30.1388 11.298C30.2448 11.321 30.4038 11.282 30.4968 11.225L30.7308 11.082C31.0258 11.063 31.4208 10.916 31.6078 10.756L31.5978 10.62L31.5858 10.476C31.3778 10.337 31.0048 10.219 30.7548 10.212L30.5928 10.3C30.4598 10.371 30.5858 10.714 30.2518 10.633L30.0178 10.576C29.7858 10.396 29.5178 10.388 29.4208 10.559C29.3238 10.729 28.7478 10.537 28.7738 10.483C28.8018 10.429 28.7948 10.244 28.6728 10.244C28.5508 10.244 28.1608 10.325 28.1388 10.424C28.1158 10.523 27.9738 10.811 27.8808 10.802L27.8628 10.77C27.8118 10.678 27.8248 10.555 27.7548 10.478L27.4768 10.171C27.0128 10.188 26.5768 10.198 26.5078 10.192C26.4388 10.185 26.3338 9.796 26.6828 9.369L27.1768 9.608L27.5568 9.791C27.9798 9.781 28.3348 9.617 28.3458 9.428C28.3558 9.238 28.2788 8.701 28.1458 8.701C28.0138 8.701 27.6508 8.788 27.7748 8.893L27.8118 8.986L27.8468 9.075C27.8138 9.22 27.5908 9.289 27.3478 9.228C27.1048 9.168 26.6978 8.928 26.9828 8.83L26.9928 8.735C27.0078 8.596 26.8298 8.428 26.6888 8.306C26.6588 8.279 26.4368 8.442 26.3118 8.433C26.1828 8.422 26.0508 8.319 25.9538 8.231C25.9358 8.215 26.0668 8.079 26.1428 8.008L26.1608 7.99C26.2228 7.999 26.6418 8.067 27.0918 8.141C27.5408 8.215 28.7488 7.857 28.8668 7.934L28.9698 7.926C29.1038 7.915 29.2328 7.828 29.3498 7.757C29.3848 7.735 29.3938 7.647 29.3688 7.608L29.3318 7.547C29.2568 7.494 29.2958 7.408 29.4188 7.356C29.5418 7.305 29.9678 7.216 30.0618 7.287C30.1538 7.358 30.4888 7.498 30.5788 7.425C30.6678 7.353 31.0488 7.305 31.1878 7.51C31.3288 7.715 31.7198 8.248 31.7468 8.241C31.7738 8.234 31.7708 7.896 31.6798 7.507L31.6418 7.149L31.6338 7.075C31.8038 6.981 32.0228 6.964 32.1208 7.037L32.1608 7.119L32.2658 7.338C32.3758 7.639 32.6148 7.569 32.7948 7.184L33.0378 6.995L33.3218 6.774C33.4648 6.485 33.6258 6.306 33.6798 6.374C33.7328 6.443 34.1168 6.675 34.3648 6.675L34.5898 6.771L34.8038 6.863C35.1398 6.913 35.4138 6.842 35.4138 6.704C35.4138 6.566 35.5088 6.292 35.6238 6.351L35.7348 6.394C35.9938 6.494 36.2538 6.649 36.5188 6.658C36.6488 6.663 36.7858 6.276 36.9328 6.269L37.1968 6.258C37.5108 6.264 37.8398 6.304 37.9278 6.346C38.0168 6.387 38.3748 6.309 38.3548 6.012L38.3988 5.809L38.4488 5.582C38.5658 5.341 39.1308 5.293 39.7048 5.476L40.3598 4.975C40.7518 4.675 41.0808 4.155 41.7698 4.663L41.7908 4.679C42.0848 4.455 42.4568 4.391 42.6168 4.537L42.7948 4.642L42.8808 4.693C43.0218 4.685 43.3028 4.678 43.5048 4.675C43.7058 4.672 44.3378 4.426 44.5868 4.363C44.8358 4.301 45.7548 4.264 46.0648 4.253C46.3748 4.243 47.0938 3.876 47.2668 4.013C47.4398 4.15 47.8348 4.568 47.8018 4.672C47.7688 4.776 47.8568 5.135 48.1098 5.124L48.3578 5.148L48.7648 5.187C49.0128 4.959 49.3428 4.6 49.4968 4.39C49.6518 4.179 50.1808 3.658 50.2968 3.742L50.3908 3.785L50.8628 4.005C50.7908 4.251 50.5988 4.54 50.4358 4.646L50.3708 4.77L50.3198 4.87C50.3788 5.017 50.4978 5.121 50.5838 5.099C50.6698 5.077 51.1248 4.769 51.4818 4.52L51.9678 4.705L52.1058 4.758C52.2458 4.831 52.4748 4.698 52.6138 4.461C52.7548 4.225 53.3118 3.648 53.5028 3.771L53.6888 3.814L54.0228 3.892C54.3158 4.068 54.6838 4.238 54.8398 4.27C54.9958 4.303 54.9818 4.778 55.0538 4.853C55.1238 4.928 55.3918 4.951 55.4388 5.05C55.4878 5.149 55.8798 5.003 55.9278 4.844C55.9768 4.685 56.6388 4.727 56.7798 4.758C56.9228 4.788 57.4618 4.566 57.9498 4.667L58.4108 4.711L58.8458 4.753C59.3138 4.857 59.7778 4.807 59.8758 4.64C59.9728 4.473 59.6288 3.944 59.6788 3.823Z" fill="#F0444A"/>
</svg>
