<svg width="83" height="136" viewBox="0 0 83 136" fill="none" xmlns="http://www.w3.org/2000/svg">
<path d="M65.4387 0.865525C64.611 1.54155 62.099 3.29462 59.8184 4.81853C55.1879 7.86062 53.2257 9.734 52.1318 12.1917C50.8005 15.1479 50.5921 19.3644 51.6861 20.6534C52.045 21.0946 51.9523 21.2664 51.0378 22.057C49.174 23.6669 47.5186 26.5944 44.092 34.0879C41.2848 40.2981 40.6944 41.4096 40.0403 41.6444C39.2126 41.908 38.4428 43.5465 38.7727 44.3657C38.8885 44.6579 38.6801 45.036 38.2981 45.3568C37.7656 45.7693 37.644 46.1761 37.644 47.1156C37.6928 47.4319 37.6732 47.7548 37.5864 48.0629C37.4996 48.3711 37.3476 48.6575 37.1404 48.9031C36.7038 49.4151 36.3271 49.9744 36.0175 50.5702C24.4347 74.3179 14.9495 99.208 4.54735 123.5C2.17999 129.029 0.142558 133.933 0.049948 134.322C-0.0192388 134.554 -0.0164905 134.8 0.0578306 135.03C0.132152 135.26 0.27461 135.463 0.466696 135.611C1.7343 136.757 2.03529 136.31 10.5207 120.796C19.9844 103.409 36.4285 73.2455 42.4019 62.3605C44.885 57.8231 46.7198 54.105 46.8067 53.4347C46.8381 53.0587 46.9629 52.6962 47.1699 52.3794C47.3769 52.0626 47.6597 51.8013 47.9932 51.6186C48.8788 51.0457 49.6487 49.4244 49.2319 49.0119C49.1451 48.926 49.4113 48.5135 49.8107 48.1067C50.2794 47.6172 50.5351 46.965 50.5227 46.2907C50.6863 45.115 51.0257 43.9701 51.5298 42.8934C56.0214 32.6213 57.8968 27.5282 57.8968 25.6548C57.8968 24.658 57.9257 24.658 59.4654 24.4518C61.6533 24.1882 64.4027 22.7846 66.4748 20.8826C67.9729 19.3565 69.3289 17.6998 70.5265 15.9328C72.1076 13.6585 73.8484 11.4972 75.7359 9.46473C76.8206 8.40743 77.8484 7.29447 78.8152 6.13046C78.9888 5.66069 78.2827 5.86693 77.154 6.60024C75.7069 7.53407 71.4758 9.46473 71.4758 9.11527C71.4758 8.35331 74.0515 6.53722 77.2639 4.98467C80.4764 3.43211 83 1.79935 83 1.15197C83 0.682198 82.4675 0.859796 81.1362 1.76498C80.1621 2.35139 79.1074 2.79521 78.0048 3.08264C76.3784 3.52377 75.8458 3.52377 72.1472 3.08264C68.2113 2.64724 65.7281 2.76182 64.5763 3.43784C64.1943 3.63836 64.9004 2.73317 66.2317 1.27228C67.563 -0.188609 67.0652 -0.480786 65.4387 0.865525ZM74.6998 4.05657L77.2176 4.26281L75.3538 5.1107C72.9286 6.22213 72.1009 6.92679 70.7233 9.12099C70.2061 9.99029 69.6257 10.8213 68.9869 11.6074C68.0145 12.6615 68.6338 12.398 69.7278 11.2866C70.7974 10.3714 72.0328 9.66573 73.3685 9.20693L76.0253 8.18717L73.93 10.2897C72.5367 11.7396 71.2503 13.2866 70.0808 14.9187C66.8279 19.628 62.9846 22.7331 59.7606 23.2601C58.6666 23.4377 58.6377 23.4034 59.257 23.0252C60.351 22.4122 62.481 20.2467 63.4592 18.7801C64.5532 17.1416 64.6168 16.5859 63.546 17.9035C60.6519 21.444 58.7245 22.819 56.6002 22.819H55.3268L56.3629 22.2919C57.81 21.53 60.2931 18.8545 61.2134 17.0556C62.2147 15.062 62.1858 14.7984 61.1208 16.4827C59.1412 19.5879 56.334 21.9883 54.7075 21.9883C53.8161 21.9883 53.7004 21.9024 53.5499 20.9628C53.1968 19.0035 54.2908 15.5203 55.9751 13.3547C57.2485 11.7162 56.8318 11.636 55.3558 13.2344C53.9069 14.9259 52.9557 16.9791 52.6064 19.1696C52.427 20.4587 52.3691 20.579 52.0739 20.0805C51.1825 18.4421 51.3909 15.1593 52.6064 12.4667C53.5499 10.3298 55.9172 8.13561 59.5232 6.02734L62.7762 4.12532L61.1787 5.59194C59.3785 7.23043 59.2859 7.52261 61.034 6.16484C61.9494 5.47644 62.9302 4.87781 63.9628 4.37739C65.6992 3.5295 65.7918 3.5295 68.9869 3.7071C70.7928 3.79304 73.3627 3.94199 74.7229 4.05657H74.6998ZM54.2618 23.1799C55.3847 23.7528 55.4715 23.9075 55.3268 24.7268C54.968 26.4855 52.5138 32.2203 48.4331 40.7679L47.4897 42.7616L46.5115 42.3491C45.6629 42.0335 44.7924 41.7788 43.9068 41.5872L42.2803 41.2663L43.438 38.7169C47.6054 29.2355 49.556 25.4601 51.3041 23.558C52.3691 22.3779 52.6353 22.3492 54.2618 23.1799ZM56.1545 28.0095C55.5294 30.0261 54.7017 32.163 52.0449 38.4878C49.3882 44.8126 49.6487 44.3428 49.1161 43.8157C48.6705 43.3746 48.8788 42.8189 51.4777 37.256C54.8522 30.0261 56.033 27.2761 56.3282 25.7981C56.4787 25.0075 56.5655 24.8929 56.6581 25.3627C56.6141 26.2711 56.4447 27.1694 56.1545 28.0324V28.0095ZM46.1992 43.7227C46.3352 43.9214 46.3946 44.1617 46.3668 44.4001C46.3668 45.861 46.1005 45.9526 43.8489 45.1907C42.9131 44.8521 41.9426 44.6158 40.9548 44.486C40.2429 44.486 40.1271 44.3714 40.1271 43.6381C40.1271 42.9048 40.2429 42.7616 40.9548 42.6699C42.1195 42.6451 45.3684 42.5085 46.1992 43.7227ZM49.3187 46.4167C49.2574 46.6943 49.1022 46.9428 48.8788 47.1214C48.1379 47.7344 47.7849 47.1214 48.1669 45.9756C48.491 45.0647 48.5547 45.036 48.9367 45.5344C49.1309 45.804 49.2615 46.1134 49.3187 46.4396V46.4167ZM44.474 48.7713C43.9415 49.39 43.6753 49.5046 43.3743 49.2411C43.0733 48.9775 41.5742 48.5078 39.7972 48.1297C39.12 48.0094 38.9695 47.8088 38.9695 47.0755C38.9695 44.8826 46.9857 45.9266 44.474 48.7713ZM47.727 48.7312C47.8512 49.1345 47.8302 49.5679 47.6676 49.9575C47.5051 50.3472 47.211 50.669 46.8356 50.8681C45.9211 51.2806 45.5043 50.8108 46.1584 50.1062C46.4426 49.7707 46.6535 49.3805 46.7777 48.9604C47.015 48.227 47.4897 48.1125 47.727 48.7541V48.7312ZM44.885 52.2431C44.885 53.1826 43.108 57.3992 41.4121 60.5558C40.677 61.9021 39.2821 64.5375 38.3097 66.3822C37.3372 68.2269 35.705 71.2117 34.6978 72.9992C33.6907 74.7866 32.2437 77.4449 31.5086 78.8828C29.4075 82.9791 23.2836 94.0704 22.9595 94.3969C22.809 94.5402 24.4354 90.9997 26.6292 86.4909C44.6072 49.201 43.7216 50.9254 44.312 51.2462C44.491 51.3498 44.6387 51.4991 44.7395 51.6785C44.8403 51.8579 44.8905 52.0608 44.885 52.266V52.2431ZM13.0907 110.833C13.4253 111.092 13.6816 111.437 13.8315 111.83C13.8315 111.973 11.2616 116.832 8.12443 122.601C4.98725 128.37 2.23787 133.377 2.03529 133.749C1.8327 134.122 1.5896 134.362 1.50278 134.276C1.41595 134.19 2.03529 132.518 2.89193 130.53C6.87997 121.22 11.2616 111.051 11.5279 110.593C11.8809 109.9 12.234 109.934 13.0907 110.833Z" fill="#F0444A"/>
</svg>
