<svg width="140" height="44" viewBox="0 0 140 44" fill="none" xmlns="http://www.w3.org/2000/svg">
<path d="M109.304 0.0664845C108.814 0.135807 108.542 0.239788 108.337 0.459307C108.024 0.805912 107.711 1.54534 107.82 1.69554C107.861 1.7533 107.806 2.00748 107.697 2.28477C107.248 3.3477 106.84 7.2528 106.881 10.0141C106.894 10.9615 106.921 12.7523 106.935 14.0001C106.962 15.814 106.908 16.6574 106.676 18.1131C106.513 19.1183 106.377 20.135 106.377 20.3892C106.377 20.6318 106.254 21.3712 106.105 22.0298C105.955 22.6884 105.819 23.4047 105.778 23.6242C105.683 24.2481 105.315 24.768 104.838 24.9413C104.185 25.1724 104.062 25.0106 104.062 23.9823C104.049 23.4971 103.967 22.8963 103.858 22.6421C103.749 22.388 103.627 21.972 103.6 21.7179C103.3 19.6729 103.205 19.2569 102.987 19.0143C102.742 18.7486 102.728 18.7486 101.421 18.8641C100.686 18.9334 100.019 19.0374 99.9237 19.1067C99.8421 19.1645 99.6515 19.5227 99.5153 19.8924C99.3792 20.2621 99.175 20.782 99.0524 21.0477C98.9027 21.4175 98.8755 21.8912 98.9163 23.0696C98.9844 24.4329 99.0252 24.664 99.3383 25.1839C99.6651 25.7154 99.6787 25.8078 99.5425 26.2931C99.3656 26.9285 99.4609 27.2058 99.8284 27.2058C99.9782 27.2058 100.632 27.6679 101.367 28.2803C102.756 29.4587 103.259 29.7822 103.572 29.6783C103.681 29.6436 104.049 29.7476 104.403 29.9093C104.743 30.0711 105.138 30.2097 105.261 30.2097C105.397 30.2097 106.05 29.9786 106.731 29.6898C107.806 29.2392 108.038 29.089 108.474 28.5576C109.045 27.8643 109.44 26.8823 109.658 25.6576C109.74 25.207 109.889 24.5716 109.985 24.2596C110.203 23.5895 110.311 22.5497 110.461 19.5227C110.516 18.3096 110.638 17.1426 110.72 16.9231C110.802 16.7036 110.87 16.3108 110.87 16.0566C110.842 14.9706 111.033 12.0129 111.224 10.534C111.346 9.65594 111.401 8.85874 111.36 8.76631C111.237 8.50058 111.741 5.19626 111.959 4.78034C112.04 4.63014 112.326 4.38752 112.571 4.23732C112.898 4.06402 113.048 3.89071 113.048 3.70586C113.048 3.55566 113.13 3.39391 113.225 3.3708C113.347 3.32459 113.347 3.30148 113.225 3.30148C113.102 3.28993 113.089 3.20905 113.184 2.98953C113.361 2.61982 113.361 2.56205 113.17 2.66603C113.075 2.71225 113.034 2.64293 113.062 2.46963C113.13 1.98438 112.885 1.62621 111.959 0.82902C111.305 0.286003 110.938 0.0549316 110.693 0.0549316C110.502 0.0549316 110.271 0.0318241 110.162 0.00871658C110.066 -0.014389 109.685 0.00871658 109.304 0.0664845ZM112.027 1.21029C112.068 1.27961 112.013 1.29116 111.904 1.2565C111.659 1.17563 111.618 1.09475 111.809 1.09475C111.891 1.09475 111.986 1.14097 112.027 1.21029Z" fill="#F0444A"/>
<path d="M136.029 2.51595C135.743 2.59682 135.416 2.73546 135.307 2.83945C134.858 3.22071 134.463 5.08084 134.245 7.91146C133.51 16.9926 133.415 18.1132 133.211 19.0029C133.129 19.3495 133.034 19.8347 132.993 20.0889C132.952 20.3315 132.802 20.7706 132.652 21.0479C132.503 21.3367 132.421 21.614 132.462 21.6717C132.503 21.7295 132.462 21.7757 132.38 21.7757C132.298 21.7757 132.244 21.845 132.258 21.9144C132.271 21.9952 132.217 22.2148 132.135 22.3881C131.999 22.6538 131.904 22.7116 131.604 22.6769C131.359 22.6538 131.209 22.5614 131.168 22.4112C131.141 22.2841 131.087 22.157 131.032 22.1223C130.978 22.0877 130.828 21.5216 130.692 20.8514C130.556 20.1813 130.284 19.0606 130.093 18.3674C129.902 17.6627 129.725 16.8886 129.698 16.6344C129.671 16.3802 129.603 16.0914 129.562 15.9989C129.521 15.9065 129.48 15.791 129.494 15.7448C129.508 15.6986 129.358 15.2826 129.154 14.832C128.84 14.1042 128.691 13.9424 127.901 13.3763C126.921 12.6831 127.084 12.7062 125.124 12.9141C124.484 12.9835 124.47 12.995 124.334 13.5958C124.157 14.3815 124.198 15.3982 124.429 16.4033C124.661 17.3507 124.77 21.1056 124.62 22.7C124.552 23.4972 124.702 24.2135 125.178 25.1956C125.437 25.7502 125.655 25.9235 126.281 26.0968C126.403 26.1314 126.662 26.4087 126.853 26.7207C127.329 27.5178 127.465 27.5872 128.391 27.5063C129.126 27.437 129.208 27.4601 129.616 27.772C129.848 27.9569 130.066 28.1995 130.093 28.3266C130.12 28.4537 130.447 28.6616 130.91 28.8465C131.672 29.1585 131.699 29.1585 132.407 28.9851C132.802 28.8812 133.32 28.7887 133.565 28.7772C133.85 28.7541 134.136 28.6039 134.477 28.3035C134.749 28.0609 134.967 27.9107 134.967 27.9569C134.967 28.1071 135.716 26.8246 135.974 26.2238C136.11 25.9003 136.287 25.5884 136.356 25.5075C136.56 25.288 137.063 23.7514 137.581 21.718C138.085 19.7076 138.221 19.0491 138.302 18.1364C138.357 17.628 138.452 17.0041 138.507 16.7499C138.575 16.4958 138.575 16.2762 138.52 16.2531C138.452 16.23 138.425 16.126 138.452 16.0221C138.479 15.9181 138.575 14.936 138.656 13.8615C138.738 12.7755 138.861 11.2504 138.929 10.4532C138.997 9.65604 139.092 8.51224 139.119 7.91146C139.201 6.47882 139.269 6.14376 139.623 5.77405C139.854 5.53142 139.922 5.24258 139.977 4.54937C140.031 3.74062 140.004 3.59043 139.732 3.25537C139.187 2.58527 138.833 2.43507 137.635 2.41196C137.023 2.38885 136.301 2.43507 136.029 2.51595Z" fill="#F0444A"/>
<path d="M41.5186 2.79314C41.4914 2.81625 41.0557 2.85091 40.5384 2.87401C35.9912 3.08198 34.2758 3.25528 31.022 3.82141C30.1235 3.9716 29.0479 4.15646 28.6395 4.22578C26.2842 4.59549 24.6914 4.96521 23.9154 5.32337C23.0849 5.71619 22.2544 5.85483 22.4586 5.57755C22.5267 5.49667 22.4722 5.47356 22.2953 5.51978C22.1591 5.55444 21.7643 5.65842 21.424 5.72774C19.7358 6.12056 15.3928 7.40301 14.6304 7.74961C14.1539 7.96914 13.6638 8.14244 13.5549 8.14244C13.446 8.14244 13.1329 8.23487 12.8606 8.36195C12.5883 8.47749 11.7851 8.81254 11.0771 9.10138C10.3692 9.39022 9.32087 9.89858 8.76268 10.2105C8.2045 10.534 7.68716 10.7998 7.6327 10.7998C7.48294 10.7998 4.96431 12.244 3.65734 13.0758C2.40482 13.873 0.25377 15.814 0.403527 16.0104C0.430755 16.0566 0.34907 16.1491 0.226541 16.2184C0.00871312 16.3108 -0.0185154 16.4841 0.00871313 17.5239L0.0359417 18.7139L0.961712 19.488C1.47905 19.9155 2.01001 20.3083 2.15977 20.343C2.30952 20.3892 2.59542 20.5279 2.79964 20.6665C3.00385 20.7936 3.35782 21.0247 3.57565 21.1633C3.79348 21.3135 4.06576 21.429 4.18829 21.429C4.31082 21.429 4.40612 21.4637 4.40612 21.5215C4.40612 21.5677 4.62395 21.7063 4.88262 21.8219C5.14129 21.9489 5.33189 22.0645 5.29105 22.0991C5.14129 22.2262 5.78116 22.4689 6.91115 22.6999C7.90499 22.9079 8.13643 22.931 8.32703 22.7924C8.53124 22.6653 8.53124 22.6653 8.3951 22.827C8.09559 23.139 9.40256 23.3007 12.0029 23.266C13.2554 23.2545 15.1614 23.3007 16.2369 23.3816C17.3261 23.4625 18.565 23.4971 19.0142 23.4509C20.7705 23.2892 34.2214 23.1621 34.7115 23.3123C35.1607 23.4394 35.2016 23.9362 34.9838 26.1198C34.8748 27.1943 34.7795 28.4305 34.7795 28.8811C34.7795 29.3201 34.6979 29.9787 34.6026 30.3253C34.3303 31.3882 34.3847 37.0379 34.6842 38.5861C35.3377 42.0175 35.5556 42.5836 36.2635 42.6298C36.3724 42.6414 36.6175 42.6529 36.8081 42.6645C37.0395 42.6876 37.094 42.7222 36.9714 42.7916C36.8761 42.8378 36.8081 42.9533 36.8353 43.0457C36.8898 43.2653 37.516 43.4155 37.6522 43.2306C37.7338 43.1266 37.7883 43.1266 37.8836 43.2537C37.9517 43.3346 38.0606 43.3808 38.1423 43.3346C38.224 43.2999 38.4418 43.323 38.646 43.4039C38.9727 43.531 39.0408 43.5079 39.5718 43.0573L40.1436 42.572V41.151C40.1436 39.8801 40.1163 39.6952 39.8304 39.3139L39.5173 38.8865L39.5854 34.5192C39.6398 31.0994 39.6943 30.0018 39.8713 29.4588C40.3478 27.8528 40.6609 24.7449 40.4295 23.7629C40.3478 23.4394 40.8243 22.9888 41.3416 22.9079C41.5458 22.8732 41.7092 22.8848 41.7092 22.931C41.7092 23.1621 43.3565 23.2776 44.8541 23.1621C45.7118 23.0927 46.9915 23.0234 47.6995 23.0003C48.4074 22.9772 49.5102 22.9079 50.15 22.8386C50.7899 22.7692 51.7021 22.6884 52.1922 22.6537C52.6823 22.6075 53.2677 22.5497 53.4855 22.5151C53.717 22.4804 54.0437 22.4342 54.2343 22.4111C54.4249 22.3764 54.915 22.3071 55.3235 22.2378C55.7319 22.1685 56.2492 22.0991 56.4535 22.0645C56.6713 22.0414 57.0525 21.8912 57.2975 21.7294C58.0327 21.2442 59.0538 21.3597 60.1565 22.0298C60.6603 22.3418 60.7556 22.3649 61.6405 22.3071C63.3831 22.1916 64.4859 22.5844 64.6356 23.3585C64.6901 23.6011 64.8807 24.2481 65.0849 24.8027C65.4253 25.7616 65.4797 25.8425 66.2693 26.4086C66.7322 26.7437 67.2904 27.0787 67.5355 27.1596C67.7669 27.252 67.9984 27.3676 68.0528 27.4369C68.0937 27.4947 68.2842 27.5524 68.4612 27.5524C68.7063 27.5524 68.8697 27.4369 69.0603 27.1134C69.4278 26.501 69.6184 26.3971 70.5034 26.2931C71.1841 26.2122 71.3202 26.2353 71.7695 26.4895C72.6136 26.9632 73.4304 27.9452 73.5666 28.6269C73.798 29.7938 74.8327 32.5898 75.1322 32.8671C75.2548 32.9826 75.5679 33.1097 75.8129 33.1443C76.0716 33.1906 76.5617 33.3985 76.9021 33.618C77.6373 34.1033 78.1274 34.1611 78.0184 33.7567C77.9912 33.618 77.9095 33.4101 77.8551 33.3061C77.7189 33.0173 78.1274 32.9133 78.4133 33.1559C78.6311 33.3292 78.6719 33.3292 78.9578 33.075C79.4479 32.6591 79.5569 31.5384 79.162 30.903C79.0123 30.6488 78.8761 30.3484 78.8761 30.2444C78.8761 30.1404 78.6855 29.8169 78.4677 29.5165C78.0457 28.962 77.6645 27.7373 77.6509 26.9747C77.6509 26.7552 77.5964 26.3971 77.5283 26.2007C77.3377 25.6461 77.5692 25.0453 78.0593 24.8373C78.7672 24.5254 83.9134 24.6756 84.4035 25.0222C84.5261 25.1031 84.5941 25.1146 84.5941 25.0337C84.5941 24.9644 84.812 24.9875 85.1251 25.1031C85.4246 25.207 85.6288 25.3341 85.6016 25.3804C85.5608 25.4266 85.8058 25.5768 86.1189 25.7154C86.4457 25.854 86.8541 26.0851 87.0447 26.2238C87.2353 26.374 87.9024 26.6859 88.5287 26.9054C89.6586 27.3098 89.7267 27.3213 91.905 27.3676L94.1105 27.4253L94.6687 27.0325C94.9682 26.8245 95.3903 26.6166 95.6081 26.5704C96.1118 26.4779 96.3569 25.9811 96.5747 24.6178C96.7517 23.5433 96.6564 21.3251 96.4249 20.9553C96.1935 20.5741 96.4249 20.0888 96.9014 19.9502C97.5277 19.7538 97.8272 19.4418 97.8953 18.8641C97.9497 18.402 97.9225 18.3327 97.4188 17.9052C96.2888 16.9578 96.3841 16.9809 94.6823 16.9463C93.1575 16.9 93.1303 16.9116 92.8035 17.2004C92.6266 17.3622 92.3815 17.5008 92.2726 17.5008C92.1501 17.5008 92.1092 17.5586 92.1637 17.6395C92.2317 17.7203 92.1909 17.7434 92.0548 17.6972C91.728 17.5933 91.6872 17.8936 91.7416 20.3083C91.7689 21.6948 91.7416 22.5959 91.6463 22.7346C91.5238 22.9425 91.483 22.9194 91.1971 22.4573C91.0337 22.18 90.8295 21.7525 90.7342 21.5215C90.6389 21.2904 90.421 21.0131 90.2304 20.9091C90.0535 20.8167 89.4817 20.4123 88.9779 20.0195C87.8616 19.153 87.3715 18.9681 86.187 18.9681C85.6833 18.9566 85.3429 18.9219 85.4382 18.8757C85.7514 18.7139 85.4518 18.6446 84.4852 18.6446C83.7228 18.6446 83.3689 18.7024 82.8379 18.945L82.1436 19.2339L82.1572 19.9733C82.1708 20.3892 82.13 20.7705 82.0755 20.8398C81.8985 21.094 80.4146 20.9553 78.9442 20.551L78.2635 20.3546V19.2223C78.2635 18.5984 78.3044 18.1709 78.3588 18.2865C78.4133 18.4136 78.4541 18.3096 78.4541 18.0207C78.4677 17.7666 78.6039 16.9116 78.7536 16.1144C79.1484 14.1041 79.0531 12.3133 78.386 9.24002C78.1818 8.30419 78.0457 7.92292 77.7053 7.25281C77.5964 7.0564 77.5147 6.81378 77.5147 6.72135C77.5147 6.10901 75.5543 3.7983 74.6149 3.30149C73.4304 2.6776 72.5591 2.61983 71.2522 3.05887C70.9118 3.16285 70.2175 3.40548 69.6865 3.57878C68.3659 4.00626 67.9711 4.2951 67.3721 5.27715C67.0862 5.7393 66.705 6.27076 66.528 6.44407C66.3646 6.62892 66.2149 6.85999 66.2149 6.97553C66.2149 7.09106 66.0379 7.40301 65.8201 7.69185C65.5614 8.01535 65.3436 8.53526 65.2074 9.12449C65.0849 9.63285 64.8943 10.4069 64.7718 10.8575C64.6084 11.493 64.5812 12.036 64.6356 13.3415C64.8943 18.7255 64.8943 18.3904 64.5948 18.6446C64.1319 19.0374 63.8732 18.9681 62.1034 18.0092C61.586 17.7203 60.8781 17.4084 60.5241 17.316C59.6664 17.0733 58.7679 16.7267 58.659 16.5881C58.4956 16.357 57.6379 16.8654 57.5834 17.2351C57.5154 17.5933 56.8755 17.7203 56.0859 17.5124C53.7851 16.9116 50.4359 16.3339 46.9507 15.9411C46.1338 15.8487 45.1536 15.7216 44.7724 15.6638C44.4048 15.5945 43.0298 15.4789 41.7228 15.4096C39.4356 15.271 39.3267 15.2479 38.9183 14.9475C38.6868 14.7742 38.3465 14.3698 38.1695 14.0463C37.8019 13.3646 37.339 13.1105 36.4677 13.1105C36.0184 13.1105 35.8278 13.1798 35.4739 13.4917C35.2288 13.6997 35.0382 13.9308 35.0382 14.0116C35.0382 14.081 34.8612 14.312 34.6434 14.5316L34.235 14.9128L31.6755 14.9359C28.7076 14.9475 28.1902 15.0515 27.7954 15.6638C27.6593 15.8718 27.5504 16.2761 27.5504 16.5419C27.5504 17.004 27.564 17.0271 28.2855 17.3275C28.694 17.5008 29.0616 17.7088 29.1024 17.8012C29.1432 17.8936 29.2658 17.963 29.3883 17.963C29.5653 17.963 29.8239 18.0554 30.2596 18.2749C30.3821 18.3442 29.7967 19.1183 29.6334 19.1183C29.5381 19.1183 29.4564 19.1645 29.4564 19.2223C29.4564 19.4187 28.1766 19.4649 27.5368 19.3032C27.0194 19.1645 26.5293 19.153 25.0862 19.2454C24.0787 19.3032 21.9821 19.3263 20.4029 19.2916C13.4051 19.153 12.1254 19.1414 12.5066 19.2223C12.8334 19.3032 12.7381 19.3147 12.0982 19.3147C11.6489 19.3032 11.3902 19.2801 11.5264 19.257C11.6489 19.2339 11.7578 19.1761 11.7578 19.1299C11.7578 19.0721 10.941 19.0374 9.94713 19.0259C8.93967 19.0259 7.98667 18.9912 7.80969 18.945C7.51017 18.8641 7.51017 18.841 7.71439 18.7139C7.93222 18.5869 7.93222 18.5637 7.728 18.4944C7.60547 18.4598 7.4421 18.4598 7.37403 18.506C7.27873 18.5406 7.26512 18.5175 7.31957 18.4482C7.37403 18.3673 7.33319 18.3096 7.22427 18.3096C7.11536 18.3096 6.95199 18.2287 6.85669 18.1363C6.76139 18.0438 6.62525 17.963 6.54356 17.963C6.47549 17.963 6.51633 18.0669 6.65247 18.194C7.00645 18.5175 6.85669 18.5753 6.33935 18.3096C5.87646 18.0669 5.76755 17.8474 6.12152 17.8474C6.28489 17.8474 6.31212 17.8128 6.2032 17.6972C6.13513 17.6279 6.02622 17.3968 5.98538 17.212C5.90369 16.9 5.97176 16.8076 6.74777 16.2299C7.78246 15.4558 8.57209 14.959 8.7763 14.959C8.85799 14.959 9.08943 14.8666 9.28003 14.7511C9.79737 14.4391 10.0969 14.3698 10.1786 14.5316C10.2194 14.624 10.3147 14.6009 10.4509 14.4507C10.5734 14.3236 10.6687 14.2543 10.6687 14.3005C10.6687 14.3467 11.0227 14.1734 11.4719 13.9192C11.9076 13.665 12.3841 13.4571 12.5202 13.4571C12.67 13.4571 13.4188 13.1798 14.2084 12.8447C15.3656 12.3479 15.6243 12.1862 15.597 12.0013C15.5562 11.828 15.5834 11.8165 15.706 11.9205C15.8829 12.0591 17.0674 11.7818 18.0204 11.3774C19.0823 10.9153 22.8262 9.82926 24.351 9.52887C26.0392 9.20536 27.8907 8.83565 28.8437 8.61613C29.4428 8.48904 30.0554 8.37351 30.2052 8.37351C30.3685 8.37351 30.5455 8.32729 30.6136 8.26953C30.6953 8.21176 31.1854 8.13088 31.7027 8.09622C32.2337 8.06156 33.1186 7.98069 33.6768 7.92292C35.6509 7.71495 37.162 7.56476 38.5098 7.44922C39.2586 7.3799 40.0074 7.31058 40.1572 7.27592C40.6609 7.18349 41.2599 7.44922 41.7637 7.99224C42.0359 8.29263 42.2538 8.59303 42.2538 8.68546C42.2538 8.76633 42.3082 8.83565 42.3627 8.83565C42.4308 8.83565 42.6894 8.9974 42.9345 9.18226C43.1932 9.37867 43.6288 9.58663 43.9283 9.65595C44.6635 9.8177 48.598 9.82926 49.2923 9.66751C50.0956 9.4711 52.3964 9.29779 54.3024 9.28624C55.4324 9.28624 56.045 9.22847 56.3037 9.11294C56.9572 8.8241 57.352 8.1771 57.5154 7.12572C57.6379 6.30542 57.6379 6.12056 57.4201 5.65842C57.1206 4.97676 56.3309 4.42219 55.2009 4.09869C54.7108 3.96005 54.0437 3.72898 53.7034 3.56723C53.363 3.41703 52.9001 3.28994 52.6959 3.28994C52.4781 3.28994 51.8927 3.20907 51.3889 3.11664C50.1364 2.88557 46.2836 2.68916 43.7105 2.73537C42.5261 2.75848 41.5322 2.78159 41.5186 2.79314ZM72.3277 7.5301C72.4911 7.64563 72.7089 7.99224 72.8178 8.31574C72.9267 8.62769 73.1445 9.20536 73.3079 9.58663C73.4577 9.9679 73.6483 10.7304 73.7027 11.2966C73.8797 12.8101 73.7436 19.2339 73.5257 19.7769C73.3351 20.2852 73.3351 20.2852 71.3883 20.0542C70.4762 19.9502 70.163 19.8577 69.8907 19.6382C69.564 19.3609 69.5504 19.2916 69.5231 17.6857C69.4959 15.9758 69.3598 15.4212 68.8288 14.9244C68.6246 14.728 68.5974 14.4738 68.6246 13.1567C68.6518 11.8165 68.7063 11.4814 69.0194 10.7073C69.5504 9.39022 70.1358 8.44283 70.762 7.8536C71.3747 7.28748 71.8376 7.19505 72.3277 7.5301ZM5.6314 17.5701C5.6314 17.6626 5.57695 17.7319 5.49526 17.7319C5.42719 17.7319 5.35912 17.6279 5.35912 17.4893C5.35912 17.3622 5.42719 17.2929 5.49526 17.3275C5.57695 17.3622 5.6314 17.4777 5.6314 17.5701ZM5.83562 22.1222C5.87646 22.18 5.84923 22.2378 5.78116 22.2378C5.69948 22.2378 5.6314 22.18 5.6314 22.1222C5.6314 22.0529 5.65863 22.0067 5.68586 22.0067C5.7267 22.0067 5.79478 22.0529 5.83562 22.1222ZM7.37403 22.5844C7.40126 22.6884 7.37403 22.7115 7.30596 22.6422C7.2515 22.5728 7.07452 22.5035 6.92476 22.492C6.775 22.4689 6.59802 22.4111 6.54356 22.3533C6.47549 22.3071 6.62525 22.2955 6.8703 22.3418C7.11536 22.388 7.33319 22.492 7.37403 22.5844ZM39.3539 39.1291C39.3131 39.2215 39.2723 39.1869 39.2723 39.0598C39.2586 38.9327 39.2995 38.8634 39.3403 38.9096C39.3812 38.9442 39.3948 39.0482 39.3539 39.1291ZM39.7624 39.7645C39.7215 39.8801 39.6943 39.8107 39.6943 39.6259C39.6943 39.4295 39.7215 39.3486 39.7624 39.4179C39.7896 39.4988 39.7896 39.6605 39.7624 39.7645Z" fill="#F0444A"/>
<path d="M117.323 6.98716C115.716 7.26445 115.675 7.28756 115.512 7.923C115.43 8.23495 115.362 8.60466 115.362 8.73175C115.362 8.85884 115.308 9.05525 115.24 9.17079C115.131 9.32098 115.199 9.40186 115.539 9.52895C115.784 9.60982 116.343 10.0026 116.792 10.3955C117.622 11.1233 118.14 11.366 118.276 11.0771C118.317 10.9962 118.548 10.8807 118.793 10.8229C119.229 10.7305 119.242 10.7074 119.242 10.1413C119.256 9.66759 119.338 9.48273 119.692 9.08991C120.114 8.63932 120.141 8.57 120.1 7.7728L120.059 6.9294L118.97 6.90629C118.371 6.90629 117.622 6.94095 117.323 6.98716Z" fill="#F0444A"/>
<path d="M119.528 9.71365C119.392 9.8754 119.311 10.0372 119.351 10.0603C119.379 10.0949 119.515 9.97938 119.637 9.80608C119.773 9.64433 119.855 9.48258 119.814 9.45947C119.787 9.42481 119.651 9.54035 119.528 9.71365Z" fill="#F0444A"/>
<path d="M115.131 21.7179C115.117 22.0645 115.008 22.6653 114.899 23.0581C114.614 24.0055 114.627 24.6294 114.968 25.519C115.213 26.1313 115.43 26.4086 116.261 27.1365C117.132 27.899 117.336 28.0261 117.84 28.0839C118.344 28.1416 118.453 28.107 118.63 27.899C119.242 27.1365 119.31 27.0903 119.937 27.0903H120.536L120.549 26.2469C120.59 24.4907 120.549 24.3174 119.896 23.3354C119.27 22.3995 118.439 21.5446 118.153 21.5446C118.058 21.5446 117.854 21.4406 117.69 21.325C117.432 21.1402 117.323 21.1171 116.982 21.2211C116.588 21.3366 115.798 21.3019 115.362 21.1517C115.199 21.094 115.158 21.198 115.131 21.7179Z" fill="#F0444A"/>
</svg>
