
<svg width="140" height="53" viewBox="0 0 140 53" fill="none" xmlns="http://www.w3.org/2000/svg">
<path d="M109.304 0.0808716C108.814 0.164917 108.542 0.290989 108.337 0.557133C108.024 0.97736 107.711 1.87385 107.82 2.05595C107.861 2.12598 107.806 2.43415 107.697 2.77033C107.248 4.05903 106.84 8.7936 106.881 12.1414C106.894 13.29 106.921 15.4612 106.935 16.974C106.962 19.1732 106.908 20.1958 106.676 21.9607C106.513 23.1794 106.377 24.4121 106.377 24.7202C106.377 25.0144 106.254 25.9109 106.105 26.7093C105.955 27.5078 105.819 28.3762 105.778 28.6424C105.683 29.3988 105.315 30.0291 104.838 30.2392C104.185 30.5194 104.062 30.3233 104.062 29.0766C104.049 28.4883 103.967 27.7599 103.858 27.4517C103.749 27.1436 103.627 26.6393 103.6 26.3311C103.3 23.8518 103.205 23.3475 102.987 23.0533C102.742 22.7312 102.728 22.7312 101.421 22.8712C100.686 22.9553 100.019 23.0814 99.9237 23.1654C99.8421 23.2354 99.6515 23.6697 99.5153 24.1179C99.3792 24.5662 99.175 25.1965 99.0524 25.5187C98.9027 25.9669 98.8755 26.5412 98.9163 27.97C98.9844 29.6229 99.0252 29.9031 99.3383 30.5334C99.6651 31.1778 99.6787 31.2898 99.5425 31.8781C99.3656 32.6485 99.4609 32.9847 99.8284 32.9847C99.9782 32.9847 100.632 33.545 101.367 34.2874C102.756 35.7162 103.259 36.1084 103.572 35.9824C103.681 35.9403 104.049 36.0664 104.403 36.2625C104.743 36.4586 105.138 36.6267 105.261 36.6267C105.397 36.6267 106.05 36.3466 106.731 35.9964C107.806 35.4501 108.038 35.268 108.474 34.6236C109.045 33.7832 109.44 32.5925 109.658 31.1077C109.74 30.5614 109.889 29.791 109.985 29.4128C110.203 28.6004 110.311 27.3397 110.461 23.6697C110.516 22.1989 110.638 20.7841 110.72 20.518C110.802 20.2518 110.87 19.7756 110.87 19.4674C110.842 18.1507 111.033 14.5647 111.224 12.7718C111.346 11.7072 111.401 10.7407 111.36 10.6286C111.237 10.3064 111.741 6.30025 111.959 5.79597C112.04 5.61388 112.326 5.31972 112.571 5.13762C112.898 4.9275 113.048 4.71739 113.048 4.49327C113.048 4.31117 113.13 4.11506 113.225 4.08705C113.347 4.03102 113.347 4.003 113.225 4.003C113.102 3.98899 113.089 3.89094 113.184 3.6248C113.361 3.17655 113.361 3.10651 113.17 3.23258C113.075 3.28862 113.034 3.20457 113.062 2.99445C113.13 2.40614 112.885 1.9719 111.959 1.00537C111.305 0.347019 110.938 0.066864 110.693 0.066864C110.502 0.066864 110.271 0.0388489 110.162 0.0108337C110.066 -0.0171814 109.685 0.0108337 109.304 0.0808716ZM112.027 1.46762C112.068 1.55167 112.013 1.56568 111.904 1.52365C111.659 1.4256 111.618 1.32755 111.809 1.32755C111.891 1.32755 111.986 1.38358 112.027 1.46762Z" fill="#F0444A"/>
<path d="M136.029 3.0504C135.743 3.14845 135.416 3.31654 135.307 3.44261C134.858 3.90486 134.463 6.16008 134.245 9.59195C133.51 20.6019 133.415 21.9607 133.211 23.0392C133.129 23.4595 133.034 24.0478 132.993 24.356C132.952 24.6501 132.802 25.1824 132.652 25.5186C132.503 25.8688 132.421 26.205 132.462 26.275C132.503 26.345 132.462 26.4011 132.38 26.4011C132.298 26.4011 132.244 26.4851 132.258 26.5692C132.271 26.6672 132.217 26.9334 132.135 27.1435C131.999 27.4657 131.904 27.5357 131.604 27.4937C131.359 27.4657 131.209 27.3536 131.168 27.1715C131.141 27.0174 131.087 26.8633 131.032 26.8213C130.978 26.7793 130.828 26.0929 130.692 25.2805C130.556 24.468 130.284 23.1093 130.093 22.2688C129.902 21.4144 129.725 20.4759 129.698 20.1677C129.671 19.8595 129.603 19.5093 129.562 19.3973C129.521 19.2852 129.48 19.1451 129.494 19.0891C129.508 19.0331 129.358 18.5288 129.154 17.9825C128.84 17.1 128.691 16.9039 127.901 16.2175C126.921 15.3771 127.084 15.4051 125.124 15.6572C124.484 15.7413 124.47 15.7553 124.334 16.4837C124.157 17.4362 124.198 18.6689 124.429 19.8875C124.661 21.0362 124.77 25.5886 124.62 27.5217C124.552 28.4882 124.702 29.3567 125.178 30.5473C125.437 31.2197 125.655 31.4298 126.281 31.6399C126.403 31.6819 126.662 32.0181 126.853 32.3963C127.329 33.3629 127.465 33.4469 128.391 33.3488C129.126 33.2648 129.208 33.2928 129.616 33.671C129.848 33.8951 130.066 34.1893 130.093 34.3434C130.12 34.4975 130.447 34.7496 130.91 34.9737C131.672 35.3519 131.699 35.3519 132.407 35.1418C132.802 35.0158 133.32 34.9037 133.565 34.8897C133.85 34.8617 134.136 34.6796 134.477 34.3154C134.749 34.0212 134.967 33.8391 134.967 33.8951C134.967 34.0772 135.716 32.5224 135.974 31.794C136.11 31.4018 136.287 31.0236 136.356 30.9255C136.56 30.6594 137.063 28.7964 137.581 26.331C138.085 23.8937 138.221 23.0953 138.302 21.9887C138.357 21.3723 138.452 20.6159 138.507 20.3078C138.575 19.9996 138.575 19.7335 138.52 19.7054C138.452 19.6774 138.425 19.5514 138.452 19.4253C138.479 19.2992 138.575 18.1086 138.656 16.8059C138.738 15.4891 138.861 13.6401 138.929 12.6736C138.997 11.7071 139.092 10.3203 139.119 9.59195C139.201 7.855 139.269 7.44878 139.623 7.00054C139.854 6.70638 139.922 6.35619 139.977 5.51573C140.031 4.5352 140.004 4.3531 139.732 3.94688C139.187 3.13444 138.833 2.95234 137.635 2.92433C137.023 2.89631 136.301 2.95234 136.029 3.0504Z" fill="#F0444A"/>
<path d="M41.5186 3.38662C41.4914 3.41464 41.0557 3.45666 40.5384 3.48468C35.9912 3.73681 34.2758 3.94693 31.022 4.6333C30.1235 4.8154 29.0479 5.03952 28.6395 5.12357C26.2842 5.57181 24.6914 6.02005 23.9154 6.45429C23.0849 6.93055 22.2544 7.09864 22.4586 6.76245C22.5267 6.6644 22.4722 6.63639 22.2953 6.69242C22.1591 6.73444 21.7643 6.86051 21.424 6.94456C19.7358 7.42081 15.3928 8.97566 14.6304 9.39589C14.1539 9.66203 13.6638 9.87215 13.5549 9.87215C13.446 9.87215 13.1329 9.98421 12.8606 10.1383C12.5883 10.2784 11.7851 10.6846 11.0771 11.0348C10.3692 11.385 9.32087 12.0013 8.76268 12.3795C8.2045 12.7717 7.68716 13.0939 7.6327 13.0939C7.48294 13.0939 4.96431 14.8448 3.65734 15.8534C2.40482 16.8199 0.25377 19.1732 0.403527 19.4113C0.430755 19.4674 0.34907 19.5794 0.226541 19.6635C0.00871312 19.7755 -0.0185154 19.9856 0.00871313 21.2463L0.0359417 22.6891L0.961712 23.6276C1.47905 24.1459 2.01001 24.6222 2.15977 24.6642C2.30952 24.7202 2.59542 24.8883 2.79964 25.0564C3.00385 25.2105 3.35782 25.4906 3.57565 25.6587C3.79348 25.8408 4.06576 25.9809 4.18829 25.9809C4.31082 25.9809 4.40612 26.0229 4.40612 26.093C4.40612 26.149 4.62395 26.3171 4.88262 26.4571C5.14129 26.6112 5.33189 26.7513 5.29105 26.7933C5.14129 26.9474 5.78116 27.2416 6.91115 27.5217C7.90499 27.7739 8.13643 27.8019 8.32703 27.6338C8.53124 27.4797 8.53124 27.4797 8.3951 27.6758C8.09559 28.054 9.40256 28.2501 12.0029 28.2081C13.2554 28.1941 15.1614 28.2501 16.2369 28.3482C17.3261 28.4462 18.565 28.4883 19.0142 28.4322C20.7705 28.2361 34.2214 28.082 34.7115 28.2641C35.1607 28.4182 35.2016 29.0205 34.9838 31.668C34.8748 32.9707 34.7795 34.4695 34.7795 35.0158C34.7795 35.5481 34.6979 36.3465 34.6026 36.7667C34.3303 38.0554 34.3847 44.9052 34.6842 46.7822C35.3377 50.9424 35.5556 51.6288 36.2635 51.6848C36.3724 51.6989 36.6175 51.7129 36.8081 51.7269C37.0395 51.7549 37.094 51.7969 36.9714 51.881C36.8761 51.937 36.8081 52.0771 36.8353 52.1891C36.8898 52.4553 37.516 52.6374 37.6522 52.4132C37.7338 52.2872 37.7883 52.2872 37.8836 52.4413C37.9517 52.5393 38.0606 52.5953 38.1423 52.5393C38.224 52.4973 38.4418 52.5253 38.646 52.6234C38.9727 52.7774 39.0408 52.7494 39.5718 52.2031L40.1436 51.6148V49.8919C40.1436 48.351 40.1163 48.1269 39.8304 47.6647L39.5173 47.1464L39.5854 41.8515C39.6398 37.7053 39.6943 36.3745 39.8713 35.7162C40.3478 33.7691 40.6609 30.0011 40.4295 28.8104C40.3478 28.4182 40.8243 27.8719 41.3416 27.7739C41.5458 27.7318 41.7092 27.7458 41.7092 27.8019C41.7092 28.082 43.3565 28.2221 44.8541 28.082C45.7118 27.998 46.9915 27.9139 47.6995 27.8859C48.4074 27.8579 49.5102 27.7739 50.15 27.6898C50.7899 27.6058 51.7021 27.5077 52.1922 27.4657C52.6823 27.4097 53.2677 27.3396 53.4855 27.2976C53.717 27.2556 54.0437 27.1996 54.2343 27.1715C54.4249 27.1295 54.915 27.0455 55.3235 26.9614C55.7319 26.8774 56.2492 26.7933 56.4535 26.7513C56.6713 26.7233 57.0525 26.5412 57.2975 26.3451C58.0327 25.7568 59.0538 25.8968 60.1565 26.7093C60.6603 27.0875 60.7556 27.1155 61.6405 27.0455C63.3831 26.9054 64.4859 27.3817 64.6356 28.3202C64.6901 28.6143 64.8807 29.3987 65.0849 30.0711C65.4253 31.2337 65.4797 31.3318 66.2693 32.0182C66.7322 32.4244 67.2904 32.8306 67.5355 32.9287C67.7669 33.0407 67.9984 33.1808 68.0528 33.2648C68.0937 33.3349 68.2842 33.4049 68.4612 33.4049C68.7063 33.4049 68.8697 33.2648 69.0603 32.8726C69.4278 32.1302 69.6184 32.0042 70.5034 31.8781C71.1841 31.78 71.3202 31.8081 71.7695 32.1162C72.6136 32.6905 73.4304 33.8812 73.5666 34.7076C73.798 36.1224 74.8327 39.5122 75.1322 39.8484C75.2548 39.9885 75.5679 40.1426 75.8129 40.1846C76.0716 40.2406 76.5617 40.4928 76.9021 40.7589C77.6373 41.3472 78.1274 41.4173 78.0184 40.927C77.9912 40.7589 77.9095 40.5068 77.8551 40.3807C77.7189 40.0305 78.1274 39.9045 78.4133 40.1986C78.6311 40.4087 78.6719 40.4087 78.9578 40.1006C79.4479 39.5963 79.5569 38.2375 79.162 37.4671C79.0123 37.159 78.8761 36.7948 78.8761 36.6687C78.8761 36.5426 78.6855 36.1504 78.4677 35.7862C78.0457 35.1138 77.6645 33.629 77.6509 32.7045C77.6509 32.4384 77.5964 32.0042 77.5283 31.766C77.3377 31.0937 77.5692 30.3653 78.0593 30.1131C78.7672 29.7349 83.9134 29.917 84.4035 30.3373C84.5261 30.4353 84.5941 30.4493 84.5941 30.3513C84.5941 30.2672 84.812 30.2952 85.1251 30.4353C85.4246 30.5614 85.6288 30.7155 85.6016 30.7715C85.5608 30.8275 85.8058 31.0096 86.1189 31.1777C86.4457 31.3458 86.8541 31.626 87.0447 31.794C87.2353 31.9761 87.9024 32.3544 88.5287 32.6205C89.6586 33.1108 89.7267 33.1248 91.905 33.1808L94.1105 33.2508L94.6687 32.7746C94.9682 32.5224 95.3903 32.2703 95.6081 32.2143C96.1118 32.1022 96.3569 31.4999 96.5747 29.847C96.7517 28.5443 96.6564 25.8548 96.4249 25.4066C96.1935 24.9443 96.4249 24.356 96.9014 24.1879C97.5277 23.9498 97.8272 23.5716 97.8953 22.8712C97.9497 22.3109 97.9225 22.2269 97.4188 21.7086C96.2888 20.5599 96.3841 20.588 94.6823 20.5459C93.1575 20.4899 93.1303 20.5039 92.8035 20.8541C92.6266 21.0502 92.3815 21.2183 92.2726 21.2183C92.1501 21.2183 92.1092 21.2883 92.1637 21.3864C92.2317 21.4844 92.1909 21.5125 92.0548 21.4564C91.728 21.3304 91.6872 21.6946 91.7416 24.6222C91.7689 26.3031 91.7416 27.3957 91.6463 27.5638C91.5238 27.8159 91.483 27.7879 91.1971 27.2276C91.0337 26.8914 90.8295 26.3731 90.7342 26.093C90.6389 25.8128 90.421 25.4766 90.2304 25.3505C90.0535 25.2385 89.4817 24.7482 88.9779 24.272C87.8616 23.2214 87.3715 22.9973 86.187 22.9973C85.6833 22.9833 85.3429 22.9412 85.4382 22.8852C85.7514 22.6891 85.4518 22.6051 84.4852 22.6051C83.7228 22.6051 83.3689 22.6751 82.8379 22.9693L82.1436 23.3194L82.1572 24.2159C82.1708 24.7202 82.13 25.1825 82.0755 25.2665C81.8985 25.5747 80.4146 25.4066 78.9442 24.9163L78.2635 24.6782V23.3054C78.2635 22.549 78.3044 22.0307 78.3588 22.1708C78.4133 22.3249 78.4541 22.1988 78.4541 21.8486C78.4677 21.5405 78.6039 20.5039 78.7536 19.5374C79.1484 17.1001 79.0531 14.9289 78.386 11.2029C78.1818 10.0683 78.0457 9.606 77.7053 8.79356C77.5964 8.55543 77.5147 8.26127 77.5147 8.14921C77.5147 7.40681 75.5543 4.60529 74.6149 4.00296C73.4304 3.24655 72.5591 3.17651 71.2522 3.7088C70.9118 3.83487 70.2175 4.12903 69.6865 4.33914C68.3659 4.85742 67.9711 5.20761 67.3721 6.39826C67.0862 6.95856 66.705 7.60291 66.528 7.81303C66.3646 8.03715 66.2149 8.3173 66.2149 8.45738C66.2149 8.59745 66.0379 8.97566 65.8201 9.32585C65.5614 9.71806 65.3436 10.3484 65.2074 11.0628C65.0849 11.6791 64.8943 12.6176 64.7718 13.1639C64.6084 13.9343 64.5812 14.5927 64.6356 16.1756C64.8943 22.7031 64.8943 22.2969 64.5948 22.6051C64.1319 23.0813 63.8732 22.9973 62.1034 21.8346C61.586 21.4844 60.8781 21.1062 60.5241 20.9942C59.6664 20.7 58.7679 20.2798 58.659 20.1117C58.4956 19.8316 57.6379 20.4479 57.5834 20.8961C57.5154 21.3304 56.8755 21.4844 56.0859 21.2323C53.7851 20.5039 50.4359 19.8035 46.9507 19.3273C46.1338 19.2152 45.1536 19.0611 44.7724 18.9911C44.4048 18.9071 43.0298 18.767 41.7228 18.6829C39.4356 18.5148 39.3267 18.4868 38.9183 18.1226C38.6868 17.9125 38.3465 17.4222 38.1695 17.03C37.8019 16.2036 37.339 15.8954 36.4677 15.8954C36.0184 15.8954 35.8278 15.9795 35.4739 16.3577C35.2288 16.6098 35.0382 16.89 35.0382 16.988C35.0382 17.0721 34.8612 17.3522 34.6434 17.6184L34.235 18.0806L31.6755 18.1086C28.7076 18.1226 28.1902 18.2487 27.7954 18.9911C27.6593 19.2432 27.5504 19.7335 27.5504 20.0557C27.5504 20.616 27.564 20.644 28.2855 21.0082C28.694 21.2183 29.0616 21.4704 29.1024 21.5825C29.1432 21.6946 29.2658 21.7786 29.3883 21.7786C29.5653 21.7786 29.8239 21.8907 30.2596 22.1568C30.3821 22.2409 29.7967 23.1794 29.6334 23.1794C29.5381 23.1794 29.4564 23.2354 29.4564 23.3054C29.4564 23.5436 28.1766 23.5996 27.5368 23.4035C27.0194 23.2354 26.5293 23.2214 25.0862 23.3335C24.0787 23.4035 21.9821 23.4315 20.4029 23.3895C13.4051 23.2214 12.1254 23.2074 12.5066 23.3054C12.8334 23.4035 12.7381 23.4175 12.0982 23.4175C11.6489 23.4035 11.3902 23.3755 11.5264 23.3475C11.6489 23.3194 11.7578 23.2494 11.7578 23.1934C11.7578 23.1233 10.941 23.0813 9.94713 23.0673C8.93967 23.0673 7.98667 23.0253 7.80969 22.9693C7.51017 22.8712 7.51017 22.8432 7.71439 22.6891C7.93222 22.535 7.93222 22.507 7.728 22.423C7.60547 22.3809 7.4421 22.3809 7.37403 22.437C7.27873 22.479 7.26512 22.451 7.31957 22.3669C7.37403 22.2689 7.33319 22.1988 7.22427 22.1988C7.11536 22.1988 6.95199 22.1008 6.85669 21.9887C6.76139 21.8767 6.62525 21.7786 6.54356 21.7786C6.47549 21.7786 6.51633 21.9047 6.65247 22.0588C7.00645 22.451 6.85669 22.521 6.33935 22.1988C5.87646 21.9047 5.76755 21.6385 6.12152 21.6385C6.28489 21.6385 6.31212 21.5965 6.2032 21.4564C6.13513 21.3724 6.02622 21.0922 5.98538 20.8681C5.90369 20.4899 5.97176 20.3778 6.74777 19.6775C7.78246 18.739 8.57209 18.1366 8.7763 18.1366C8.85799 18.1366 9.08943 18.0246 9.28003 17.8845C9.79737 17.5063 10.0969 17.4222 10.1786 17.6184C10.2194 17.7304 10.3147 17.7024 10.4509 17.5203C10.5734 17.3662 10.6687 17.2822 10.6687 17.3382C10.6687 17.3942 11.0227 17.1841 11.4719 16.8759C11.9076 16.5678 12.3841 16.3156 12.5202 16.3156C12.67 16.3156 13.4188 15.9795 14.2084 15.5732C15.3656 14.9709 15.6243 14.7748 15.597 14.5507C15.5562 14.3406 15.5834 14.3266 15.706 14.4526C15.8829 14.6207 17.0674 14.2845 18.0204 13.7943C19.0823 13.234 22.8262 11.9173 24.351 11.5531C26.0392 11.1608 27.8907 10.7126 28.8437 10.4465C29.4428 10.2924 30.0554 10.1523 30.2052 10.1523C30.3685 10.1523 30.5455 10.0963 30.6136 10.0262C30.6953 9.95619 31.1854 9.85814 31.7027 9.81612C32.2337 9.77409 33.1186 9.67604 33.6768 9.606C35.6509 9.35386 37.162 9.17176 38.5098 9.03169C39.2586 8.94764 40.0074 8.8636 40.1572 8.82158C40.6609 8.70951 41.2599 9.03169 41.7637 9.69004C42.0359 10.0542 42.2538 10.4184 42.2538 10.5305C42.2538 10.6286 42.3082 10.7126 42.3627 10.7126C42.4308 10.7126 42.6894 10.9087 42.9345 11.1328C43.1932 11.371 43.6288 11.6231 43.9283 11.7071C44.6635 11.9032 48.598 11.9173 49.2923 11.7211C50.0956 11.483 52.3964 11.2729 54.3024 11.2589C55.4324 11.2589 56.045 11.1889 56.3037 11.0488C56.9572 10.6986 57.352 9.91417 57.5154 8.63948C57.6379 7.64494 57.6379 7.42081 57.4201 6.86051C57.1206 6.03406 56.3309 5.36169 55.2009 4.96948C54.7108 4.80139 54.0437 4.52124 53.7034 4.32513C53.363 4.14304 52.9001 3.98895 52.6959 3.98895C52.4781 3.98895 51.8927 3.8909 51.3889 3.77884C50.1364 3.49868 46.2836 3.26056 43.7105 3.31659C42.5261 3.3446 41.5322 3.37262 41.5186 3.38662ZM72.3277 9.12974C72.4911 9.26982 72.7089 9.69004 72.8178 10.0823C72.9267 10.4605 73.1445 11.1608 73.3079 11.6231C73.4577 12.0853 73.6483 13.0098 73.7027 13.6962C73.8797 15.5312 73.7436 23.3194 73.5257 23.9778C73.3351 24.5941 73.3351 24.5941 71.3883 24.314C70.4762 24.1879 70.163 24.0759 69.8907 23.8097C69.564 23.4735 69.5504 23.3895 69.5231 21.4424C69.4959 19.3693 69.3598 18.6969 68.8288 18.0946C68.6246 17.8565 68.5974 17.5483 68.6246 15.9514C68.6518 14.3266 68.7063 13.9203 69.0194 12.9818C69.5504 11.385 70.1358 10.2363 70.762 9.52195C71.3747 8.83558 71.8376 8.72352 72.3277 9.12974ZM5.6314 21.3024C5.6314 21.4144 5.57695 21.4985 5.49526 21.4985C5.42719 21.4985 5.35912 21.3724 5.35912 21.2043C5.35912 21.0502 5.42719 20.9662 5.49526 21.0082C5.57695 21.0502 5.6314 21.1903 5.6314 21.3024ZM5.83562 26.8213C5.87646 26.8914 5.84923 26.9614 5.78116 26.9614C5.69948 26.9614 5.6314 26.8914 5.6314 26.8213C5.6314 26.7373 5.65863 26.6813 5.68586 26.6813C5.7267 26.6813 5.79478 26.7373 5.83562 26.8213ZM7.37403 27.3817C7.40126 27.5077 7.37403 27.5357 7.30596 27.4517C7.2515 27.3676 7.07452 27.2836 6.92476 27.2696C6.775 27.2416 6.59802 27.1715 6.54356 27.1015C6.47549 27.0455 6.62525 27.0315 6.8703 27.0875C7.11536 27.1435 7.33319 27.2696 7.37403 27.3817ZM39.3539 47.4405C39.3131 47.5526 39.2723 47.5106 39.2723 47.3565C39.2586 47.2024 39.2995 47.1184 39.3403 47.1744C39.3812 47.2164 39.3948 47.3425 39.3539 47.4405ZM39.7624 48.211C39.7215 48.351 39.6943 48.267 39.6943 48.0429C39.6943 47.8047 39.7215 47.7067 39.7624 47.7907C39.7896 47.8888 39.7896 48.0849 39.7624 48.211Z" fill="#F0444A"/>
<path d="M117.323 8.4714C115.716 8.80758 115.675 8.83559 115.512 9.60601C115.43 9.98422 115.362 10.4325 115.362 10.5865C115.362 10.7406 115.308 10.9788 115.24 11.1188C115.131 11.3009 115.199 11.399 115.539 11.5531C115.784 11.6511 116.342 12.1274 116.792 12.6036C117.622 13.4861 118.14 13.7803 118.276 13.4301C118.317 13.332 118.548 13.192 118.793 13.1219C119.229 13.0099 119.242 12.9818 119.242 12.2955C119.256 11.7212 119.338 11.497 119.692 11.0208C120.114 10.4745 120.141 10.3904 120.1 9.42391L120.059 8.40136L118.97 8.37334C118.371 8.37334 117.622 8.41537 117.323 8.4714Z" fill="#F0444A"/>
<path d="M119.528 11.7772C119.392 11.9733 119.311 12.1694 119.351 12.1974C119.379 12.2394 119.515 12.0993 119.637 11.8892C119.773 11.6931 119.855 11.497 119.814 11.469C119.787 11.427 119.651 11.567 119.528 11.7772Z" fill="#F0444A"/>
<path d="M115.131 26.3311C115.117 26.7513 115.008 27.4797 114.9 27.956C114.614 29.1046 114.627 29.861 114.968 30.9396C115.213 31.682 115.431 32.0182 116.261 32.9006C117.132 33.8251 117.337 33.9792 117.84 34.0493C118.344 34.1193 118.453 34.0773 118.63 33.8251C119.243 32.9006 119.311 32.8446 119.937 32.8446H120.536L120.549 31.8221C120.59 29.6929 120.549 29.4828 119.896 28.2921C119.27 27.1575 118.439 26.121 118.153 26.121C118.058 26.121 117.854 25.9949 117.69 25.8548C117.432 25.6307 117.323 25.6027 116.983 25.7287C116.588 25.8688 115.798 25.8268 115.362 25.6447C115.199 25.5747 115.158 25.7007 115.131 26.3311Z" fill="#F0444A"/>

</svg>
