<svg width="40" height="40" viewBox="0 0 40 40" fill="none" xmlns="http://www.w3.org/2000/svg">
<path d="M0.75 0.75C0.3125 1.1875 0 1.9375 0 2.4375C0 3 3.75 7.125 8.25 11.6875L16.5625 20L8.25 28.3125C3.75 32.875 0 37 0 37.5625C0 38.75 1.25 40 2.4375 40C3 40 7.125 36.25 11.6875 31.75L20 23.4375L28.3125 31.75C32.875 36.25 37 40 37.5625 40C38.75 40 40 38.75 40 37.5625C40 37 36.25 32.875 31.75 28.3125L23.4375 20L31.75 11.6875C36.25 7.125 40 3 40 2.4375C40 1.25 38.75 0 37.5625 0C37 0 32.875 3.75 28.3125 8.25L20 16.5625L11.6875 8.25C7.125 3.75 3 0 2.4375 0C1.9375 0 1.1875 0.3125 0.75 0.75Z" fill="#3E3E3E"/>
</svg>
