<svg width="724" height="595" viewBox="0 0 724 595" fill="none" xmlns="http://www.w3.org/2000/svg">
<path fill-rule="evenodd" clip-rule="evenodd" d="M402.548 0.608508C402.616 1.0579 402.865 1.48795 403.101 1.56387C403.375 1.6516 403.459 1.43245 403.332 0.959781C403.051 -0.0904688 402.4 -0.3823 402.548 0.608508ZM636.471 26.8834C636.542 27.2117 636.764 27.472 636.966 27.4617C637.511 27.4334 637.411 26.6324 636.839 26.4465C636.53 26.3463 636.393 26.5099 636.471 26.8834ZM532.855 30.8495C532.855 31.1474 533.015 31.6713 533.21 32.0132C533.405 32.3552 533.927 33.4946 534.37 34.5452C534.813 35.5958 536.48 38.2546 538.074 40.4535C539.668 42.6525 541.689 45.9017 542.565 47.6742C544.621 51.8348 546.082 53.7466 547.892 54.6471C548.695 55.0464 549.514 55.373 549.713 55.373C550.627 55.373 548.143 49.4435 544.803 43.6551C541.468 37.8721 535.179 30.3073 533.708 30.3073C533.191 30.3073 532.855 30.5211 532.855 30.8495ZM398.108 32.9611C397.8 33.322 397.792 33.5354 398.079 33.708C398.566 34.0016 399.623 33.2185 399.34 32.7734C399.049 32.314 398.6 32.3824 398.108 32.9611ZM565.016 47.5586C565.438 50.4082 565.951 51.8681 566.833 52.7285C568.758 54.6052 568.994 53.0809 567.422 48.9275C566.622 46.8116 566.234 46.2176 565.597 46.1262C564.84 46.0185 564.802 46.1123 565.016 47.5586ZM471.435 48.1C471.082 48.1902 470.793 48.3034 470.793 48.3517C470.793 49.2824 472.202 52.5778 472.915 53.314C474.052 54.4892 474.697 54.5633 475.024 53.5568C475.357 52.5355 474.956 51.1748 473.795 49.3758C472.82 47.8654 472.671 47.7852 471.435 48.1ZM457.093 51.0556C457.202 51.4606 457.449 51.7921 457.642 51.7921C458.13 51.7921 457.854 50.6302 457.326 50.4587C457.052 50.3699 456.968 50.5868 457.093 51.0556ZM539.441 55.6415C541.891 61.0446 542.333 61.8399 543.638 63.1916C545.342 64.9577 549.018 66.6349 549.01 65.6427C549.002 64.7833 547.228 61.5706 545.514 59.3118C544.542 58.0317 543.101 56.1281 542.311 55.0815C540.953 53.2814 539.061 51.7965 538.122 51.7936C537.881 51.7929 538.455 53.4658 539.441 55.6415ZM178.475 70.5616C178.475 70.8735 178.737 71.1285 179.057 71.1285C179.705 71.1285 179.592 70.3575 178.912 70.1362C178.671 70.0582 178.475 70.2498 178.475 70.5616ZM205.651 82.8896C205.651 83.6881 206.761 84.7355 207.607 84.7355C208.443 84.7355 208.381 83.8167 207.487 82.9451C206.567 82.0481 205.651 82.0202 205.651 82.8896ZM379.229 82.8259C378.783 83.2606 378.976 83.6423 379.535 83.4328C379.838 83.3193 380.086 83.0826 380.086 82.9068C380.086 82.5316 379.58 82.4836 379.229 82.8259ZM292.456 91.3375C290.946 91.9784 290.114 93.1945 290.114 94.7618C290.114 96.3603 290.958 97.558 292.537 98.2015C296.773 99.9268 300.73 96.3574 298.74 92.6061C298.435 92.0311 297.868 91.3944 297.479 91.1917C296.495 90.6782 293.827 90.7556 292.456 91.3375ZM343.73 104.072C343.73 104.269 343.886 104.43 344.076 104.43C344.266 104.43 344.523 104.269 344.648 104.072C344.773 103.875 344.617 103.714 344.303 103.714C343.988 103.714 343.73 103.875 343.73 104.072ZM527.627 105.125C524.578 106.076 521.961 107.815 521.491 109.204C521.278 109.833 520.303 111.314 519.323 112.494C516.871 115.45 516.33 116.601 516.33 118.866C516.33 122.833 520.842 129.135 525.147 131.18C529.069 133.043 533.612 133.525 537.916 132.535C541.012 131.824 542.891 130.838 545.185 128.722C547.975 126.15 548.821 124.084 548.826 119.827C548.829 116.737 548.722 116.204 547.651 114C544.163 106.819 535.092 102.799 527.627 105.125ZM394.04 107.921C394.04 108.266 393.232 109.952 392.245 111.667C389.932 115.688 389.634 116.577 389.638 119.433C389.641 121.157 389.875 122.286 390.504 123.602C392.285 127.332 395.621 127.979 399.536 125.353C400.564 124.664 401.791 123.956 402.263 123.781C402.865 123.558 403.241 123.001 403.524 121.914C403.746 121.062 404.675 119.156 405.588 117.679C406.502 116.202 407.252 114.789 407.255 114.539C407.265 113.841 405.674 111.569 404.092 110.022C401.993 107.97 400.251 107.312 396.887 107.302C394.419 107.296 394.041 107.378 394.04 107.921ZM380.453 112.828C380.453 113.803 381.318 115.201 381.857 115.097C382.909 114.894 383.235 113.844 382.493 113.045C381.704 112.195 380.453 112.062 380.453 112.828ZM530.637 113.808C531.391 114.596 531.601 115.172 531.134 115.172C530.768 115.172 529.183 113.667 529.183 113.32C529.183 112.78 529.879 113.013 530.637 113.808ZM512.663 119.559C512.671 120.624 513.208 121.413 513.718 121.105C514.257 120.781 514.239 119.723 513.686 119.183C513.018 118.532 512.657 118.665 512.663 119.559ZM530.71 119.829C531.792 120.884 531.934 121.619 531.108 121.887C530.756 122.002 528.816 119.505 528.816 118.939C528.816 118.439 529.72 118.864 530.71 119.829ZM578.668 123.492C577.526 123.869 577.295 124.841 578.347 124.841C579.095 124.841 580.008 123.984 579.804 123.474C579.732 123.293 579.245 123.301 578.668 123.492ZM528.91 126.115C529.004 126.596 528.948 126.989 528.785 126.989C528.311 126.989 527.347 125.459 527.347 124.706C527.347 124.049 527.382 124.045 528.043 124.627C528.425 124.965 528.816 125.635 528.91 126.115ZM189.715 134.717C189.593 135.029 189.492 135.892 189.492 136.636C189.492 137.678 189.211 138.281 188.266 139.257C186.046 141.552 184.936 144.88 184.536 150.443L184.304 153.666L188.19 157.426L192.076 161.186H196.935C201.513 161.186 201.927 161.126 204.079 160.157C209.5 157.715 212.628 152.307 212.628 145.375V142.427L209.047 138.87C205.769 135.613 205.303 135.28 203.521 134.911C200.885 134.366 197.951 134.425 196.837 135.046C195.539 135.769 193.741 135.701 192.063 134.867C190.326 134.002 190.005 133.982 189.715 134.717ZM513.56 136.323C513.427 136.533 513.407 136.791 513.514 136.896C513.777 137.152 514.494 136.701 514.494 136.278C514.494 135.82 513.86 135.851 513.56 136.323ZM548.182 136.849C547.318 137.692 546.575 139.412 546.927 139.755C547.195 140.016 550.634 139.145 551.492 138.599C552.449 137.99 552.601 136.481 551.738 136.158C550.49 135.691 549.091 135.964 548.182 136.849ZM678.646 136.838C678.22 137.929 678.181 138.59 678.521 138.922C678.971 139.361 679.748 138.366 679.748 137.351C679.748 135.984 679.097 135.681 678.646 136.838ZM559.196 137.232C558.796 137.622 559.279 138.09 560.083 138.09C560.514 138.09 560.762 137.902 560.673 137.642C560.499 137.131 559.566 136.872 559.196 137.232ZM566.14 137.959C565.607 138.478 565.172 139.033 565.172 139.191C565.172 140.277 567.92 139.594 568.305 138.412C568.818 136.834 567.563 136.572 566.14 137.959ZM458.858 138.145C457.094 139.086 456.572 140.954 458.074 140.954C459.314 140.954 460.878 139.641 460.878 138.6C460.878 137.643 460.12 137.472 458.858 138.145ZM301.866 142.745C301.866 143.615 303.148 143.735 303.479 142.894C303.807 142.059 303.783 142.028 302.784 142.028C302.111 142.028 301.866 142.219 301.866 142.745ZM537.451 147.033C536.846 147.988 536.822 151.048 537.408 152.546C538.097 154.305 538.803 155.05 540.312 155.609C541.278 155.967 541.373 155.915 541.872 154.75C543.003 152.111 542.338 148.506 540.487 147.242C539.574 146.618 537.792 146.495 537.451 147.033ZM473.135 147.914C470.773 148.916 470.07 151.383 471.694 152.966C473.686 154.908 477.727 153.271 477.758 150.509C477.775 149.058 477.216 148.247 475.887 147.795C474.476 147.316 474.553 147.313 473.135 147.914ZM404.098 152.121C404.227 152.748 404.614 153.564 404.958 153.935C405.552 154.575 405.607 154.577 406.055 153.979C406.315 153.633 406.527 153.139 406.527 152.881C406.527 152.223 405.177 150.98 404.461 150.98C403.986 150.98 403.912 151.213 404.098 152.121ZM532.554 152.116C532.727 153.262 533.59 153.385 533.59 152.263C533.59 151.662 533.388 151.338 533.013 151.338C532.63 151.338 532.476 151.6 532.554 152.116ZM513.392 156.427C511.689 156.795 509.165 158.39 507.466 160.171C506.004 161.704 501.444 168.511 500.027 171.276C496.079 178.982 497.063 184.463 502.926 187.424C505.367 188.658 510.238 188.938 513.759 188.047C517.018 187.224 522.913 185.054 524.082 184.249C525.271 183.43 527.294 179.705 528.731 175.688C530.64 170.354 530.683 166.491 528.864 163.919C527.901 162.557 522.651 157.809 520.795 156.622C519.691 155.916 516.186 155.823 513.392 156.427ZM237.75 160.067C237.617 160.404 237.615 160.783 237.744 160.909C237.873 161.035 238.175 160.947 238.414 160.714C238.745 160.391 238.746 160.191 238.42 159.873C238.093 159.554 237.934 159.6 237.75 160.067ZM325.613 160.887C325.146 161.344 325.372 163.108 325.974 163.694C326.337 164.049 326.888 164.204 327.351 164.083C327.776 163.972 328.237 163.879 328.376 163.876C328.515 163.873 328.376 163.146 328.066 162.26C327.623 160.993 327.327 160.649 326.681 160.649C326.228 160.649 325.748 160.756 325.613 160.887ZM582.799 161.957C581.951 162.288 580.595 163.587 580.595 164.069C580.595 164.634 583.924 166.02 585.282 166.02C586.418 166.02 587.94 164.756 587.94 163.814C587.94 162.476 584.579 161.261 582.799 161.957ZM444.24 165.071C444.135 165.338 442.905 166.291 441.505 167.19C438.132 169.357 437.209 170.508 436.098 173.937C434.946 177.494 434.761 179.152 435.538 178.94C435.841 178.857 437.545 178.769 439.325 178.743C442.237 178.702 442.683 178.602 443.782 177.747C444.934 176.85 445.005 176.665 445.017 174.501C445.025 173.239 445.196 171.579 445.397 170.814C446.192 167.786 446.277 165.8 445.638 165.177C444.904 164.461 444.493 164.43 444.24 165.071ZM192.067 165.478C191.505 166.139 191.786 166.924 192.768 167.437C193.841 167.997 195.2 166.694 194.629 165.653C194.17 164.817 192.714 164.718 192.067 165.478ZM225.989 165.854C224.808 166.439 224.012 167.671 224.012 168.913C224.012 169.304 224.416 170.401 224.91 171.351L225.807 173.078L223.909 173.935C221.226 175.147 217.669 178.655 216.336 181.401C214.691 184.793 214.238 187.927 214.757 192.301C214.994 194.291 215.283 196.249 215.399 196.651C215.601 197.348 215.45 197.386 212.33 197.428C209.523 197.467 208.368 197.693 204.357 198.994L199.667 200.515L198.344 202.689C197.616 203.885 196.401 205.463 195.643 206.196C194.841 206.972 194.266 207.875 194.266 208.359C194.266 208.815 193.775 210.313 193.175 211.685C192.574 213.058 192.078 214.665 192.072 215.256C192.045 217.81 193.252 223.924 194.092 225.489C194.576 226.39 195.082 227.8 195.217 228.622C195.391 229.688 195.639 230.116 196.079 230.116C196.419 230.116 197.637 230.68 198.787 231.369C199.936 232.059 201.795 233.174 202.917 233.847C205.84 235.601 208.995 236.093 213.64 235.519C215.608 235.276 218.21 235.026 219.422 234.964C221.569 234.854 221.644 234.816 222.36 233.462C222.764 232.698 224.251 230.944 225.665 229.564C229.147 226.165 230.99 223.047 230.99 220.554C230.99 218.207 231.468 217.857 235.71 217.089C238.568 216.572 239.803 216.076 239.803 215.443C239.803 215.3 238.575 215.081 237.073 214.957C233.34 214.649 231.569 213.908 230.802 212.333C230.105 210.901 230.323 209.422 231.276 209.11C234.651 208.008 241.591 205.088 243.606 203.923C246.259 202.389 248.984 199.939 248.984 199.088C248.984 198.81 249.497 196.936 250.123 194.923C251.339 191.017 251.694 186.855 250.923 185.536C250.596 184.976 250.622 184.694 251.039 184.244C251.641 183.595 251.369 182.491 250.606 182.491C249.468 182.491 248.87 180.789 249.094 178.186C249.295 175.842 249.251 175.642 248.319 174.674C247.776 174.11 246.796 172.992 246.143 172.191C244.532 170.216 243.607 170.09 239.039 171.219C234.776 172.273 233.248 172.193 231.867 170.846C231.179 170.176 230.99 169.609 230.99 168.228C230.99 167.219 230.785 166.301 230.512 166.079C229.635 165.369 227.21 165.248 225.989 165.854ZM273.805 167.759C273.485 168.262 273.976 169.295 274.46 169.138C275.004 168.962 274.995 167.73 274.449 167.553C274.215 167.476 273.925 167.57 273.805 167.759ZM350.53 168.867C350.258 169.702 351.175 171.573 352.009 171.885C353.016 172.261 354.013 172.131 354.013 171.623C354.013 169.171 351.165 166.916 350.53 168.867ZM186.002 171.078C186.257 173.396 186.243 173.452 185.196 174.179C183.476 175.373 182.069 178.282 181.865 181.065C181.53 185.636 183.65 189.136 187.308 190.051C188.705 190.4 189.182 190.714 189.519 191.507C190.063 192.787 190.376 192.777 191.386 191.443C191.834 190.853 192.474 190.369 192.808 190.369C193.141 190.369 194.412 189.883 195.631 189.29C199.142 187.578 200.876 184.434 200.876 179.778C200.876 177.579 200.84 177.498 198.984 175.517C196.48 172.846 194.941 172.107 191.878 172.107C189.502 172.107 189.429 172.078 187.602 170.412L185.743 168.716L186.002 171.078ZM425.256 171.737C425.256 172.124 425.769 173.01 426.396 173.706C427.334 174.748 427.788 174.972 428.966 174.972C429.753 174.972 430.397 174.883 430.397 174.775C430.397 174.194 429.183 172.431 428.335 171.781C427.047 170.792 425.256 170.767 425.256 171.737ZM506.782 175.888C506.782 176.172 506.616 176.404 506.414 176.404C506.212 176.404 506.047 176.072 506.047 175.667C506.047 175.261 506.212 175.029 506.414 175.151C506.616 175.273 506.782 175.604 506.782 175.888ZM514.494 176.238C514.494 176.329 514.163 176.404 513.759 176.404C513.344 176.404 513.025 176.165 513.025 175.854C513.025 175.416 513.173 175.382 513.759 175.688C514.163 175.899 514.494 176.146 514.494 176.238ZM511.538 182.96C511.571 183.497 510.82 182.812 510.312 181.842C510.035 181.313 509.708 180.316 509.586 179.627C509.398 178.563 509.527 178.698 510.442 180.522C511.035 181.704 511.528 182.801 511.538 182.96ZM507.883 182.504C507.883 183.405 507.286 183.411 506.794 182.515C506.175 181.386 506.307 180.978 507.149 181.417C507.553 181.628 507.883 182.117 507.883 182.504ZM567.392 185.059C564.921 185.751 562.243 187.858 560.266 190.666C559.228 192.141 557.924 193.811 557.368 194.377C555.972 195.801 556.089 196.827 557.88 198.844C558.716 199.786 559.859 201.551 560.417 202.766C561.365 204.825 561.592 205.05 563.78 206.1C568.745 208.484 577.061 209.301 579.912 207.686C582.393 206.281 584.708 201.175 584.708 197.11C584.708 193.518 582.158 189.438 577.962 186.317C576.855 185.494 576.051 185.26 573.375 184.986C569.522 184.59 569.047 184.596 567.392 185.059ZM330.266 185.558C329.8 186.744 330.774 187.754 333.301 188.707C334.667 189.221 335.859 189.569 335.951 189.48C336.321 189.12 335.116 187.077 333.94 186.07C332.549 184.88 330.638 184.613 330.266 185.558ZM530.747 190.622C529.5 190.856 527.843 192.677 527.612 194.066C527.185 196.63 529.043 201.172 531.105 202.604C532.235 203.388 533.222 203.268 533.222 202.346C533.222 201.269 534.135 202.056 535.355 204.185C536.754 206.626 537.781 207.538 539.146 207.549C539.985 207.556 540.167 207.348 540.523 205.966C541.107 203.707 541.032 199.125 540.371 196.621C539.443 193.11 538.373 191.329 536.895 190.837C535.645 190.422 532.413 190.308 530.747 190.622ZM375.679 192.01C375.679 192.322 375.876 192.514 376.116 192.436C376.797 192.214 376.909 191.443 376.261 191.443C375.941 191.443 375.679 191.698 375.679 192.01ZM212.296 195.161C211.97 195.545 212.008 195.707 212.465 195.878C213.445 196.245 213.73 196.133 213.73 195.382C213.73 194.559 212.916 194.433 212.296 195.161ZM374.003 196.853C373.711 197.312 374.554 200.037 374.986 200.037C375.806 200.037 377.148 199.128 377.148 198.574C377.148 197.889 375.514 196.457 374.733 196.457C374.47 196.457 374.141 196.635 374.003 196.853ZM565.172 197.531C566.321 198.731 567.171 198.896 567.676 198.018C568.155 197.182 568.883 197.764 568.662 198.806C568.56 199.287 568.391 200.082 568.286 200.575C567.91 202.341 565.306 201.326 564.049 198.923C562.733 196.409 563.356 195.636 565.172 197.531ZM379.444 198.601C378.211 199.334 377.831 200.395 378.801 200.395C380.097 200.395 378.859 202.23 376.897 203.215C375.781 203.776 373.491 203.715 372.266 203.092C371.365 202.634 371.214 202.634 371.032 203.097C370.918 203.387 371.091 204.02 371.416 204.504C372.188 205.653 372.167 206.736 371.364 207.137C371.011 207.314 369.517 207.741 368.044 208.087C365.66 208.647 365.298 208.657 364.739 208.179C363.213 206.873 360.99 207.017 360.99 208.421C360.99 208.869 361.321 209.528 361.725 209.885C362.489 210.559 362.669 211.693 362.14 212.506C361.767 213.08 359.516 213.624 357.469 213.636C356.227 213.643 355.894 213.8 355.548 214.54C354.932 215.86 354.137 215.633 353.354 213.913C351.964 210.859 349.188 208.997 346.016 208.992C344.253 208.988 341.011 210.201 338.983 211.622L337.21 212.864L336.43 211.836C336.001 211.27 334.371 209.885 332.809 208.758C331.246 207.632 329.718 206.439 329.412 206.108C328.739 205.378 322.836 204.553 319.652 204.743L317.51 204.871L316.457 203.35C315.348 201.746 314.352 201.354 314.352 202.523C314.352 203.465 313.599 203.857 313.183 203.131C312.938 202.704 312.325 202.544 310.936 202.545C309.682 202.546 308.51 202.279 307.523 201.769C305.475 200.712 304.803 201.029 304.803 203.05C304.803 205.139 303.781 206.279 301.131 207.144C299.956 207.528 299.064 208.043 298.997 208.376C298.934 208.69 299.801 209.922 300.925 211.114C302.434 212.714 302.967 213.555 302.967 214.33C302.967 215.462 301.528 217.412 300.447 217.747C299.936 217.905 299.702 218.625 299.367 221.071C299.108 222.952 298.574 224.907 298.023 225.991L297.107 227.789L298.385 228.934C299.087 229.564 299.662 230.33 299.662 230.635C299.662 230.946 299.976 231.19 300.376 231.19C301.177 231.19 302.233 232.453 302.233 233.41C302.233 233.756 301.82 234.302 301.315 234.625C300.132 235.381 300.125 236.204 301.302 236.204C302.344 236.204 302.967 237.112 302.967 238.631C302.967 239.946 302.178 240.64 298.846 242.258C297.388 242.965 296.13 243.763 296.049 244.029C295.944 244.377 296.122 244.447 296.678 244.275C298.13 243.825 298.218 244.491 296.826 245.396C296.063 245.892 294.758 246.94 293.926 247.725L292.414 249.152L291.633 247.92C290.885 246.74 289.728 245.842 286.717 244.102C285.624 243.47 285.34 243.09 285.34 242.255C285.34 241.338 285.233 241.229 284.5 241.409C284.037 241.522 283.224 241.453 282.693 241.256C282.028 241.01 281.388 241.024 280.637 241.3C279.753 241.625 279.215 241.579 277.816 241.058C275.774 240.298 274.128 238.103 273.748 235.636C273.617 234.784 273.283 233.798 273.005 233.445C272.566 232.884 272.454 232.871 272.133 233.339C271.93 233.634 271.707 234.036 271.637 234.23C271.563 234.437 268.751 234.67 264.929 234.786C259.114 234.963 258.124 235.083 256.423 235.817C254.616 236.597 254.443 236.612 253.59 236.067C252.298 235.242 251.187 235.313 251.187 236.221C251.187 237.859 249.43 239.951 246.737 241.518C245.648 242.152 245.373 242.552 245.21 243.737C244.945 245.659 244.61 245.989 241.421 247.465C238.416 248.856 238.17 249.325 239.675 250.792C240.21 251.314 240.794 252.376 240.973 253.151C241.304 254.588 240.904 258.498 240.179 260.909C239.633 262.725 239.639 262.743 241.579 265.1C243.689 267.663 244.586 269.674 244.848 272.428L245.041 274.457L246.688 274.861C247.594 275.084 250.754 276.337 253.71 277.647C256.665 278.956 260.074 280.294 261.285 280.621C263.46 281.208 263.503 281.205 264.774 280.395C265.721 279.792 266.999 279.475 269.627 279.195C271.588 278.986 273.372 278.815 273.591 278.815C273.81 278.815 274.629 280.172 275.412 281.83C276.616 284.385 277.623 285.619 278.504 285.619C278.609 285.619 278.599 284.289 278.482 282.664C278.033 276.406 280.635 271.074 285.774 267.728C287.639 266.514 288.1 266.343 288.35 266.779C288.799 267.561 290.722 268.396 291.575 268.179C292.112 268.042 292.318 267.692 292.318 266.918C292.318 265.961 292.222 265.87 291.422 266.066C290.064 266.398 289.949 265.723 291.005 263.62C292.248 261.141 293.738 260.32 295.42 261.184C296.147 261.557 297.669 261.791 299.75 261.849C301.515 261.898 303.108 262.028 303.291 262.138C303.795 262.442 307.991 257.891 309.003 255.943L309.895 254.226L312.766 253.822C314.345 253.6 316.614 253.046 317.809 252.59C319.86 251.807 320.015 251.662 320.603 249.976C321.397 247.696 322.593 245.409 323.281 244.853C323.693 244.519 324.035 244.515 324.754 244.834C325.579 245.201 325.877 245.116 327.267 244.12C328.134 243.498 329.48 242.89 330.257 242.769C331.754 242.535 332.344 241.942 337.102 235.887C338.707 233.844 339.3 233.339 340.091 233.339C341.417 233.339 342.747 232.267 342.428 231.456C342.293 231.113 341.829 230.83 341.396 230.827C339.319 230.812 339.23 229.45 341.158 227.18C342.256 225.889 342.332 225.861 344.191 226.076C346.102 226.297 347.363 227.17 347.39 228.292C347.4 228.707 347.515 228.699 348.045 228.246C349.214 227.246 351.142 226.474 351.965 226.676C352.411 226.785 353 227.281 353.273 227.779C353.546 228.277 353.977 228.684 354.23 228.684C354.483 228.684 354.879 229.24 355.109 229.92C355.373 230.701 356.431 231.935 357.983 233.274C360.433 235.387 360.444 235.392 362.459 235.253C365.931 235.012 368.214 237.094 367.271 239.639C366.877 240.701 366.892 241.083 367.363 242.053C367.672 242.687 368.099 244.562 368.312 246.22C368.525 247.878 368.844 249.376 369.021 249.549C369.198 249.721 369.901 249.811 370.583 249.747C371.739 249.639 371.837 249.528 372.031 248.117C372.3 246.151 372.503 246 373.395 247.106C373.801 247.609 374.226 248.02 374.339 248.02C374.452 248.02 375.138 247.628 375.862 247.149C376.586 246.67 377.999 246.012 379.001 245.687C380.703 245.136 380.932 245.138 382.468 245.71C384.862 246.601 389.197 246.298 391.671 245.066C394.301 243.756 396.947 241.312 399.72 237.627C402.234 234.287 402.427 233.728 401.569 232.265C401.255 231.729 401.039 230.354 401.031 228.837C401.013 225.283 400.3 223.602 397.161 219.72C395.654 217.856 394.163 215.806 393.847 215.166C393.341 214.143 393.097 214.003 391.813 214.003C390.612 214.003 390.279 213.844 389.935 213.107C389.705 212.615 389.208 212.212 388.832 212.212C387.926 212.212 387.519 211.069 387.216 207.668C386.912 204.269 386.763 203.966 384.671 202.502C383.603 201.754 382.724 200.735 382.194 199.63C381.741 198.689 381.206 197.912 381.004 197.905C380.802 197.898 380.1 198.211 379.444 198.601ZM440.864 198.602C440.553 199.558 440.913 200.037 441.942 200.037C442.962 200.037 443.783 199.183 443.486 198.431C443.158 197.597 441.149 197.728 440.864 198.602ZM569.578 199.722C569.578 199.919 569.413 199.98 569.211 199.858C569.009 199.737 568.844 199.476 568.844 199.279C568.844 199.082 569.009 199.02 569.211 199.142C569.413 199.264 569.578 199.525 569.578 199.722ZM117.882 200.568C117.882 201.057 118.078 202.57 118.317 203.931C118.865 207.045 118.385 207.975 115.917 208.581C113.714 209.121 111.411 211.683 109.141 216.117C107.753 218.827 107.418 219.841 107.425 221.309C107.437 223.651 108.314 227.259 109.912 231.548C111.159 234.892 111.214 234.969 113.154 236.033C116.483 237.86 119.589 239.08 122.32 239.636C124.888 240.158 125.497 240.123 129.633 239.223C130.399 239.056 130.664 239.228 131.228 240.256C132.063 241.776 133.728 243.014 135.447 243.392C138.669 244.1 138.661 241.738 135.435 239.94C134.398 239.362 133.483 238.696 133.403 238.459C133.156 237.734 136.098 234.96 138.07 234.059C139.44 233.433 139.988 232.964 140.133 232.288C140.241 231.783 140.816 229.597 141.409 227.431C142.787 222.397 142.875 218.818 141.668 216.914C141.218 216.204 140.677 214.781 140.467 213.753C140.114 212.03 139.882 211.724 137.521 209.861C136.112 208.75 133.719 207.253 132.204 206.535C129.62 205.311 129.231 205.23 125.926 205.23C121.887 205.23 121.465 205.026 120.376 202.549C119.208 199.891 117.882 198.838 117.882 200.568ZM351.32 200.276C351.185 200.407 351.075 200.681 351.075 200.885C351.075 201.109 351.246 201.088 351.509 200.831C351.748 200.598 351.858 200.324 351.754 200.223C351.65 200.12 351.454 200.145 351.32 200.276ZM287.176 202.13C287.176 202.998 288.249 203.915 289.754 204.337C290.735 204.611 291.05 204.561 291.416 204.072C292.016 203.273 291.719 202.631 290.455 201.994C288.933 201.226 287.176 201.3 287.176 202.13ZM353.89 202.067C353.434 202.511 353.642 202.902 354.335 202.902C354.714 202.902 355.23 202.66 355.482 202.365C355.867 201.912 355.797 201.828 355.037 201.828C354.541 201.828 354.025 201.935 353.89 202.067ZM269.025 204.931C268.896 205.26 268.934 205.668 269.108 205.838C269.606 206.324 270.651 205.764 270.651 205.012C270.651 204.158 269.355 204.094 269.025 204.931ZM336.385 204.901C336.385 205.213 336.582 205.405 336.822 205.327C337.503 205.105 337.615 204.334 336.967 204.334C336.647 204.334 336.385 204.589 336.385 204.901ZM332.726 205.385C332.142 206.449 332.267 206.841 333.191 206.841C334.203 206.841 334.917 206.219 334.917 205.337C334.917 204.439 333.225 204.476 332.726 205.385ZM521.073 207.086C519.274 210.935 518.468 214.003 519.255 214.003C519.449 214.003 519.793 214.338 520.018 214.748C520.392 215.43 520.339 215.483 519.392 215.375C518.405 215.261 518.325 215.366 517.64 217.685L516.921 220.114L517.919 221.086C518.794 221.939 519.203 222.059 521.233 222.059C523.203 222.059 523.749 221.91 524.897 221.056C525.639 220.504 526.494 219.586 526.796 219.015C527.568 217.559 527.483 214.385 526.611 212.112C525.813 210.032 523.017 205.732 522.314 205.504C522.074 205.426 521.516 206.138 521.073 207.086ZM296.173 207.199C296.298 207.396 296.556 207.557 296.746 207.557C296.936 207.557 297.092 207.396 297.092 207.199C297.092 207.002 296.834 206.841 296.519 206.841C296.204 206.841 296.049 207.002 296.173 207.199ZM310.622 208.405C310.536 208.791 310.333 208.871 309.983 208.658C309.674 208.47 309.57 208.093 309.72 207.712C310.025 206.935 310.815 207.541 310.622 208.405ZM395.276 207.736C394.95 208.565 395.408 209.347 396.22 209.347C397.156 209.347 397.847 208.189 397.255 207.612C396.657 207.029 395.526 207.099 395.276 207.736ZM284.606 208.227C284.606 208.432 284.093 208.506 283.412 208.4C282.526 208.261 281.871 208.444 280.871 209.108C280.131 209.6 279.435 209.916 279.327 209.81C279.218 209.704 278.384 209.832 277.473 210.094C276.088 210.493 275.847 210.691 276.004 211.302C276.107 211.704 276.242 212.496 276.303 213.063C276.458 214.487 277.233 214.806 278.826 214.102C280.125 213.528 280.145 213.488 279.945 211.839L279.741 210.16L281.164 209.908C281.946 209.77 282.935 209.575 283.361 209.476C284.033 209.319 284.17 209.501 284.394 210.843L284.652 212.391L285.752 211.198C287.18 209.65 287.116 208.149 285.616 207.981C285.06 207.919 284.606 208.029 284.606 208.227ZM515.595 209.693C515.595 210.08 515.926 210.569 516.33 210.78C517.172 211.219 517.304 210.811 516.684 209.682C516.192 208.786 515.595 208.792 515.595 209.693ZM274.911 216.608C273.833 217.988 273.696 218.842 274.507 219.145C274.81 219.258 275.058 219.598 275.058 219.9C275.058 220.834 275.62 220.51 276.645 218.983C277.606 217.552 277.962 215.793 277.291 215.793C277.106 215.793 276.709 215.702 276.41 215.59C276.071 215.462 275.51 215.844 274.911 216.608ZM416.082 216.599C413.718 217.777 412.946 218.994 412.991 221.467C413.058 225.015 414.846 227.241 417.856 227.524C422.032 227.915 425.633 225.18 425.617 221.63C425.603 218.541 422.58 215.793 419.197 215.793C418.368 215.793 416.977 216.153 416.082 216.599ZM632.362 217.612C631.879 218.616 631.013 219.825 630.438 220.297L629.391 221.156L627.855 220.391C625.713 219.326 623.132 219.47 619.427 220.863C617.802 221.474 615.753 221.993 614.873 222.017C613.48 222.054 613.178 222.211 612.542 223.231C612.123 223.902 610.485 225.237 608.702 226.358C604.78 228.825 604.291 229.509 604.603 232.096C604.797 233.706 604.74 234.055 604.285 234.055C603.981 234.055 603.731 234.297 603.731 234.592C603.731 234.888 603.896 235.129 604.098 235.129C604.3 235.129 604.466 235.517 604.466 235.991C604.466 236.615 603.958 237.208 602.629 238.139C600.688 239.499 600.428 240.191 601.369 241.501C601.686 241.941 601.892 242.66 601.828 243.099C601.732 243.757 601.397 243.94 599.911 244.146C597.419 244.492 596.91 245.045 597.601 246.656C598.233 248.132 599.661 249.31 601.221 249.644C602.089 249.83 602.862 249.629 604.561 248.774C605.777 248.163 606.966 247.662 607.202 247.662C607.438 247.662 607.842 248.462 608.099 249.44C608.598 251.336 610.159 253.76 611.754 255.113C613.36 256.474 616.889 258.071 619.477 258.606C620.815 258.882 623.824 259.111 626.165 259.115C630.377 259.121 630.426 259.111 630.849 258.204C631.495 256.822 634.079 255.821 635.804 256.285C636.549 256.486 637.301 256.565 637.475 256.46C637.65 256.355 637.866 255.395 637.957 254.326C638.048 253.257 638.411 251.953 638.764 251.428C639.327 250.59 639.573 250.5 640.761 250.696L642.115 250.919L641.984 249.306C641.859 247.784 641.911 247.68 642.898 247.466C644.953 247.018 645.229 246.891 645.229 246.397C645.229 246.122 644.889 245.72 644.474 245.503C642.414 244.428 641.659 241.022 643.089 239.25C643.819 238.344 643.85 238.12 643.449 236.605C642.812 234.203 640.706 230.169 639.185 228.439C637.996 227.086 637.891 226.798 638.106 225.484C638.361 223.93 638.161 223.707 637.28 224.566C636.978 224.861 636.335 225.103 635.852 225.103C634.546 225.103 634.054 222.973 634.498 219.232C634.688 217.636 634.824 216.31 634.802 216.285C634.78 216.26 634.42 216.137 634.001 216.012C633.36 215.821 633.1 216.075 632.362 217.612ZM279.832 217.225C279.832 217.422 280.327 217.583 280.933 217.583C281.539 217.583 282.035 217.422 282.035 217.225C282.035 217.028 281.539 216.867 280.933 216.867C280.327 216.867 279.832 217.028 279.832 217.225ZM468.222 219.206C468.222 220.946 470.215 224.387 471.224 224.387C472.032 224.387 471.069 220.155 470.008 219.046C469.025 218.017 468.222 218.089 468.222 219.206ZM175.708 219.036C175.28 219.711 175.881 221.164 176.589 221.164C177.482 221.164 178.62 219.899 178.348 219.208C178.1 218.58 176.081 218.448 175.708 219.036ZM244.21 220.269C244.21 220.597 244.388 220.808 244.605 220.737C244.822 220.667 245 220.456 245 220.269C245 220.082 244.822 219.871 244.605 219.801C244.388 219.73 244.21 219.941 244.21 220.269ZM149.709 221.761C149.193 222.264 149.495 223.662 150.198 224.029C151.312 224.61 152.402 223.896 152.402 222.584C152.402 221.619 152.29 221.522 151.178 221.522C150.504 221.522 149.843 221.63 149.709 221.761ZM265.361 222.427C264.184 223.025 263.275 224.048 263.544 224.472C263.753 224.802 267.898 224.834 269.516 224.519C270.155 224.394 270.845 223.987 271.05 223.613C271.368 223.032 271.234 222.856 270.13 222.407C268.475 221.732 266.712 221.74 265.361 222.427ZM354.013 222.754C354.013 223.235 353.833 223.737 353.613 223.869C352.999 224.24 352.442 223.473 352.716 222.633C353.058 221.582 354.013 221.672 354.013 222.754ZM98.9484 223.462C98.5565 223.742 98.3472 224.079 98.4831 224.211C98.8834 224.602 100.255 224.026 100.255 223.468C100.255 222.818 99.8536 222.817 98.9484 223.462ZM273.301 223.878C272.777 224.791 273.449 226.034 274.753 226.561C275.498 226.862 276.512 226.901 278.102 226.691C279.356 226.525 281.408 226.382 282.662 226.373C284.857 226.357 284.923 226.33 284.456 225.64C283.386 224.063 281.7 223.506 277.577 223.367C274.118 223.251 273.627 223.31 273.301 223.878ZM291.15 226.732C291.04 226.919 290.844 227.556 290.715 228.147L290.479 229.221L291.054 228.215C291.371 227.661 291.567 227.025 291.49 226.8C291.409 226.564 291.266 226.536 291.15 226.732ZM232.678 227.515C232.557 227.632 232.459 228.036 232.459 228.412C232.459 229.253 233.68 229.135 233.85 228.277C233.965 227.693 233.083 227.12 232.678 227.515ZM663.223 227.968C663.223 228.429 663.409 228.683 663.682 228.594C663.935 228.512 664.141 228.23 664.141 227.968C664.141 227.705 663.935 227.423 663.682 227.341C663.409 227.252 663.223 227.506 663.223 227.968ZM409.145 227.968C407.354 228.381 406.442 229.425 406.396 231.115C406.325 233.783 407.725 235.129 410.571 235.129C412.611 235.129 414.606 233.412 414.606 231.656C414.606 229.853 413.585 228.382 412.045 227.964C411.333 227.771 410.668 227.629 410.567 227.648C410.466 227.667 409.826 227.811 409.145 227.968ZM282.838 233.607C282.986 234.365 284.441 234.634 285.177 234.039C286.075 233.312 285.773 232.981 284.212 232.981C282.985 232.981 282.738 233.094 282.838 233.607ZM295.127 235.5C292.609 237.357 291.918 238.124 293.695 237.087C294.841 236.418 298.125 233.699 297.789 233.698C297.668 233.697 296.469 234.508 295.127 235.5ZM571.214 234.934C570.458 235.671 570.313 236.158 570.313 237.952C570.313 239.841 570.427 240.178 571.291 240.84C572.525 241.787 574.08 242.194 574.275 241.622C574.355 241.39 575.004 240.961 575.717 240.67C577.008 240.145 577.013 240.132 576.852 238.23C576.618 235.483 575.497 234.055 573.576 234.055C572.515 234.055 571.869 234.295 571.214 234.934ZM360.652 236.77C360.67 237.188 360.757 237.272 360.874 236.987C360.98 236.728 360.967 236.419 360.845 236.301C360.723 236.182 360.636 236.393 360.652 236.77ZM344.628 236.951C344.207 237.615 345.088 238.171 345.735 237.648C346.046 237.396 346.301 237.049 346.301 236.876C346.301 236.425 344.923 236.487 344.628 236.951ZM359.95 239.307C359.701 240.213 359.563 241.018 359.642 241.096C359.722 241.174 359.998 240.503 360.256 239.605C360.513 238.708 360.652 237.903 360.563 237.816C360.474 237.73 360.198 238.4 359.95 239.307ZM337.728 240.797C336.931 241.656 336.96 242.182 337.83 242.636C339.18 243.341 340.389 243.093 340.656 242.056C341.082 240.402 338.947 239.484 337.728 240.797ZM152.054 243.88C151.279 244.789 151.867 245.574 153.225 245.447C154.226 245.353 154.422 245.188 154.422 244.439C154.422 243.743 154.211 243.52 153.472 243.436C152.946 243.377 152.313 243.575 152.054 243.88ZM220.176 244.051C220.057 244.237 220.117 244.484 220.309 244.599C220.5 244.715 220.753 244.656 220.871 244.47C220.989 244.283 220.93 244.037 220.738 243.921C220.547 243.806 220.294 243.864 220.176 244.051ZM357.198 245.581C356.516 246.639 355.919 248.569 355.776 250.169C355.671 251.361 355.719 251.418 356.767 251.346C357.432 251.3 358.203 250.894 358.711 250.322C359.428 249.517 359.538 249.045 359.446 247.176C359.35 245.225 359.246 244.964 358.534 244.865C358.012 244.792 357.545 245.043 357.198 245.581ZM193.41 245.394C192.904 245.887 193.191 246.588 193.899 246.588C194.389 246.588 194.634 246.349 194.634 245.872C194.634 245.182 193.915 244.901 193.41 245.394ZM206.752 248.378C206.752 248.575 207.073 248.736 207.465 248.736C207.857 248.736 208.28 248.575 208.405 248.378C208.534 248.175 208.225 248.02 207.692 248.02C207.175 248.02 206.752 248.181 206.752 248.378ZM201.978 250.169C201.465 250.669 201.244 251.362 201.244 252.469C201.244 254.501 202.529 256.084 204.626 256.635C206.467 257.118 207.085 256.653 207.372 254.573C207.617 252.787 206.784 251.111 205.173 250.154C203.681 249.267 202.9 249.27 201.978 250.169ZM657.782 251.87C657.875 252.655 658.112 252.878 658.953 252.972C659.533 253.037 660.169 252.932 660.367 252.739C660.855 252.263 659.411 250.885 658.425 250.885C657.813 250.885 657.688 251.076 657.782 251.87ZM420.482 252.108C420.482 252.42 420.744 252.675 421.063 252.675C421.712 252.675 421.599 251.904 420.918 251.683C420.678 251.605 420.482 251.796 420.482 252.108ZM369.569 252.854C369.313 253.507 369.648 254.466 370.133 254.466C370.666 254.466 371.64 253.408 371.64 252.829C371.64 252.138 369.842 252.16 369.569 252.854ZM484.197 252.968C483.187 253.338 481.499 254.067 480.446 254.589C479.393 255.112 477.356 255.701 475.918 255.9C472.301 256.4 472.027 256.595 471.735 258.875L471.489 260.798L469.767 261.123C468.564 261.35 468.007 261.642 467.919 262.092C467.737 263.032 468.529 263.776 469.712 263.776C470.28 263.776 471.169 263.933 471.687 264.125C472.586 264.458 472.629 264.601 472.633 267.258C472.641 272.011 474.109 275.783 476.761 277.861C477.972 278.81 478.526 278.971 481.351 279.187C483.118 279.323 485.029 279.617 485.598 279.841C488.274 280.894 491.402 279.553 495.438 275.624C499.393 271.773 500.67 268.385 499.839 263.953C499.003 259.495 495.782 255.036 492.215 253.401C489.837 252.311 486.489 252.131 484.197 252.968ZM716.453 253.592C715.799 254.361 716.405 255.934 717.576 256.503C719.279 257.331 720.746 255.516 719.787 253.768C719.293 252.868 717.165 252.756 716.453 253.592ZM319.493 255.898C319.493 256.292 319.64 256.614 319.821 256.614C320.233 256.614 320.619 255.683 320.324 255.396C319.882 254.965 319.493 255.2 319.493 255.898ZM546.137 255.948C546.204 256.413 546.424 256.753 546.626 256.704C547.168 256.571 547.073 255.446 546.504 255.261C546.168 255.152 546.052 255.368 546.137 255.948ZM551.91 258.216C550.738 258.849 549.95 260.577 550.268 261.814C550.696 263.477 552.584 263.43 554.532 261.709C555.363 260.975 555.659 260.376 555.723 259.3L555.807 257.867L554.338 257.783C553.53 257.737 552.438 257.932 551.91 258.216ZM340.507 258.604C338.8 259.769 339.928 261.461 342.021 260.876C343.697 260.407 344.123 259.555 343.153 258.609C342.422 257.896 341.546 257.894 340.507 258.604ZM465.358 259.192C464.826 259.711 464.78 260.786 465.277 261.085C465.852 261.432 467.12 260.59 467.12 259.863C467.12 259.497 466.859 259.1 466.539 258.98C465.8 258.703 465.873 258.69 465.358 259.192ZM425.994 261.085C425.339 261.856 425.817 262.701 426.908 262.701C427.426 262.701 427.945 262.458 428.063 262.16C428.306 261.541 427.596 260.553 426.908 260.553C426.655 260.553 426.243 260.793 425.994 261.085ZM527.714 261.274C523.618 261.591 520.675 262.462 519.078 263.829C517.546 265.14 517.708 265.49 520.358 266.601C523.911 268.092 527.08 268.515 535.059 268.564C542.46 268.609 542.615 268.595 544.239 267.709C546.366 266.55 546.52 265.662 544.843 264.227C542.079 261.861 535.275 260.688 527.714 261.274ZM390.736 264.313C390.736 264.608 390.984 264.85 391.287 264.85C391.59 264.85 391.838 264.608 391.838 264.313C391.838 264.017 391.59 263.776 391.287 263.776C390.984 263.776 390.736 264.017 390.736 264.313ZM308.3 266.629C307.609 267.717 309.493 270.864 311.414 271.833C312.808 272.536 315.043 272.538 315.319 271.836C315.66 270.97 314.214 268.685 312.666 267.643C311.026 266.538 308.699 265.998 308.3 266.629ZM300.528 267.96C300.23 268.657 299.888 270.03 299.769 271.01C299.559 272.733 299.581 272.788 300.433 272.67C301.564 272.514 302.599 270.551 302.599 268.562C302.6 267.364 302.455 267.045 301.836 266.887C301.225 266.731 300.962 266.948 300.528 267.96ZM224.184 268.807C223.836 269.357 224.313 269.713 224.785 269.253C225.049 268.996 225.055 268.796 224.804 268.645C224.598 268.521 224.32 268.594 224.184 268.807ZM479.974 269.756C479.974 270.421 479.855 270.607 479.594 270.353C479.386 270.149 479.321 269.714 479.45 269.386C479.79 268.521 479.974 268.651 479.974 269.756ZM290.474 271.483C289.765 272.317 290.271 272.474 291.03 271.656C291.397 271.261 291.526 270.937 291.318 270.937C291.109 270.937 290.73 271.183 290.474 271.483ZM319.585 271.174C319.332 271.274 319.126 271.681 319.126 272.08C319.126 272.593 319.295 272.741 319.707 272.587C320.026 272.467 320.357 272.37 320.441 272.37C320.525 272.37 320.594 272.047 320.594 271.653C320.594 270.93 320.419 270.846 319.585 271.174ZM414.598 274.063C413.547 274.978 413.382 275.352 413.382 276.809C413.382 278.719 414.114 279.699 415.919 280.204C418.617 280.958 421.137 278.694 420.652 275.95C420.347 274.224 419.391 273.397 417.454 273.185C416.018 273.027 415.661 273.137 414.598 274.063ZM299.131 274.817C298.702 276.134 297.938 276.462 296.878 275.785C296.355 275.451 295.882 275.23 295.827 275.295C295.772 275.36 295.374 276.452 294.941 277.721C293.92 280.713 293.9 283.223 294.888 284.186C295.881 285.154 296.167 285.098 297.245 283.72C298.328 282.335 299.097 279.253 298.801 277.479C298.664 276.652 298.79 275.941 299.178 275.365C299.499 274.887 299.672 274.408 299.562 274.301C299.452 274.194 299.258 274.426 299.131 274.817ZM312.515 274.732C312.515 275.351 314.13 277.011 315.226 277.518C316.752 278.224 319.109 278.273 320.027 277.618C320.942 276.966 320.541 275.489 319.301 274.937C318.347 274.514 312.515 274.337 312.515 274.732ZM376.781 275.191C376.781 275.66 377.73 276.338 378.008 276.067C378.511 275.577 378.221 274.876 377.516 274.876C377.112 274.876 376.781 275.018 376.781 275.191ZM434.437 276.156C432.406 277.075 430.634 278.455 429.984 279.623C429.728 280.083 429.994 281.195 430.968 283.741C433.579 290.572 434.855 291.976 438.761 292.318C442.778 292.67 446.147 290.997 447.633 287.916C448.32 286.492 448.441 285.723 448.335 283.462C448.166 279.829 446.894 277.694 444.029 276.235C441.305 274.847 437.398 274.815 434.437 276.156ZM308.476 276.984C308.476 277.481 310.29 278.513 310.713 278.257C311.248 277.935 310.004 276.667 309.153 276.667C308.781 276.667 308.476 276.809 308.476 276.984ZM596.818 278.052C596.526 278.233 596.38 278.838 596.451 279.569C596.557 280.655 596.687 280.785 597.672 280.785C598.656 280.785 598.786 280.655 598.892 279.569C599.006 278.413 598.561 277.752 597.672 277.752C597.47 277.752 597.086 277.887 596.818 278.052ZM345.546 278.759L344.71 279.42L345.927 279.833C347.579 280.395 348.485 280.354 348.74 279.706C349.306 278.269 347.023 277.593 345.546 278.759ZM121.554 279.493C121.554 280.271 122.606 280.797 123.133 280.283C123.674 279.756 123.14 278.815 122.3 278.815C121.813 278.815 121.554 279.05 121.554 279.493ZM239.803 279.382C239.803 280.014 240.594 279.904 240.821 279.24C240.901 279.006 240.704 278.815 240.385 278.815C240.065 278.815 239.803 279.07 239.803 279.382ZM350.267 280.133C349.758 280.264 349.708 280.464 350.001 281.213C350.198 281.718 350.264 282.423 350.148 282.779C349.916 283.493 350.889 284.186 352.122 284.186C353.076 284.186 353.223 283.652 352.756 281.882C352.253 279.97 351.891 279.716 350.267 280.133ZM425.899 280.634C424.918 281.191 425.093 282.343 426.201 282.614C427.406 282.908 427.985 282.344 427.683 281.169C427.43 280.189 426.94 280.042 425.899 280.634ZM291.02 282.074C290.886 282.488 290.958 283.004 291.182 283.222C291.731 283.758 292.867 282.659 292.563 281.887C292.244 281.076 291.308 281.19 291.02 282.074ZM281.485 282.393C281.185 283.317 281.634 284.098 282.075 283.419C282.497 282.769 282.487 281.68 282.06 281.68C281.871 281.68 281.613 282.001 281.485 282.393ZM377.241 283.646C375.497 284.385 374.99 285.696 375.847 287.248C376.497 288.425 378.892 289.916 380.132 289.916C382.424 289.916 383.311 285.112 381.294 283.621C380.448 282.995 378.752 283.005 377.241 283.646ZM354.828 284.386C353.787 285.097 353.791 286.014 354.839 286.939C356.533 288.434 358.419 288.208 358.419 286.51C358.419 284.721 356.231 283.427 354.828 284.386ZM310.89 284.783C310.552 285.643 311.247 286.199 311.949 285.631C312.26 285.379 312.515 284.951 312.515 284.68C312.515 283.98 311.172 284.066 310.89 284.783ZM230.769 285.046C230.635 285.387 230.706 285.844 230.929 286.06C231.222 286.347 231.399 286.285 231.577 285.833C231.712 285.492 231.64 285.035 231.418 284.819C231.124 284.532 230.947 284.594 230.769 285.046ZM362.092 285.798C362.092 286.573 362.24 286.722 362.918 286.628C363.46 286.553 363.744 286.268 363.744 285.798C363.744 285.327 363.46 285.042 362.918 284.967C362.24 284.873 362.092 285.022 362.092 285.798ZM513.465 285.332C512.808 285.973 512.931 286.763 513.667 286.626C514.021 286.56 514.363 286.146 514.427 285.705C514.556 284.823 514.149 284.665 513.465 285.332ZM293.1 287.93C291.264 289.823 290.655 291.045 290.922 292.304C291.022 292.776 291.352 292.939 292.101 292.886C293.656 292.776 294.445 291.852 295.257 289.193C296.13 286.335 296.121 286.46 295.47 286.217C295.156 286.1 294.218 286.777 293.1 287.93ZM266.249 286.582C266.253 286.742 266.415 287.114 266.611 287.409C266.918 287.872 266.968 287.862 266.973 287.341C266.976 287.008 266.813 286.636 266.611 286.514C266.409 286.392 266.247 286.423 266.249 286.582ZM308.109 286.834C308.109 287.393 309.098 287.877 309.611 287.568C310.312 287.145 309.929 286.335 309.027 286.335C308.487 286.335 308.109 286.54 308.109 286.834ZM270.918 286.909C270.518 287.299 271.001 287.767 271.805 287.767C272.236 287.767 272.484 287.579 272.395 287.319C272.221 286.808 271.288 286.549 270.918 286.909ZM245.087 289.409C244.803 290.515 245.614 291.487 246.535 291.142C247.216 290.888 247.723 289.459 247.344 288.862C247.212 288.654 246.704 288.483 246.215 288.483C245.565 288.483 245.262 288.732 245.087 289.409ZM561.132 288.841C561.132 289.038 561.297 289.199 561.499 289.199C561.701 289.199 561.867 289.038 561.867 288.841C561.867 288.644 561.701 288.483 561.499 288.483C561.297 288.483 561.132 288.644 561.132 288.841ZM573.159 289.446C572.248 289.679 572.358 290.174 573.59 291.375C574.411 292.177 575.001 292.422 576.103 292.422C577.683 292.422 578.928 291.476 578.564 290.553C578.132 289.456 575.354 288.887 573.159 289.446ZM268.631 290.632C268.996 291.026 269.378 291.348 269.479 291.348C269.58 291.348 269.364 291.026 268.998 290.632C268.633 290.238 268.251 289.916 268.15 289.916C268.049 289.916 268.266 290.238 268.631 290.632ZM644.678 290.965C641.958 291.606 640.608 293.406 640.962 295.92C641.564 300.202 646.111 302.44 649.066 299.909C652.204 297.223 651.29 292.029 647.5 291.002C646.756 290.801 646.064 290.651 645.963 290.67C645.862 290.689 645.284 290.822 644.678 290.965ZM256.577 291.942C256.299 292.213 256.994 293.138 257.475 293.138C257.653 293.138 257.798 292.816 257.798 292.422C257.798 291.734 257.079 291.451 256.577 291.942ZM252.8 293.291C252.689 293.572 252.653 294.177 252.719 294.634C252.951 296.229 255.961 295.808 255.961 294.181C255.961 292.983 253.224 292.212 252.8 293.291ZM361.2 293.673C360.81 293.967 358.662 294.785 356.426 295.492C350.673 297.31 349.447 298.072 348.687 300.301C347.914 302.571 347.149 303.006 344.885 302.465C343.424 302.115 339.55 299.956 338.943 299.153C338.834 299.01 337.594 298.634 336.188 298.319C334.782 298.004 333.082 297.433 332.411 297.05L331.191 296.354L328.004 297.28C326.252 297.789 323.695 298.538 322.324 298.944C320.952 299.351 319.158 300.157 318.337 300.737C317.27 301.491 316.595 301.73 315.966 301.576C315.202 301.389 315.086 301.487 315.086 302.318C315.086 302.979 314.621 303.693 313.583 304.627L312.081 305.98L312.345 308.73C312.534 310.701 312.487 311.554 312.176 311.742C311.938 311.885 311.213 312.794 310.566 313.76C309.496 315.36 309.198 315.563 307.256 316.013C303.288 316.932 302.318 315.528 304.517 312.045C305.426 310.604 305.701 309.758 305.71 308.382L305.722 306.593L303.878 306.189C301.689 305.709 300.41 305.093 300.361 304.495C300.342 304.256 300.353 303.475 300.386 302.761C300.443 301.528 300.376 301.45 299.061 301.209C297.103 300.851 295.093 299.775 294.233 298.625C293.591 297.765 292.982 297.543 289.381 296.852C286.407 296.283 284.765 295.762 283.469 294.976L281.675 293.889L279.615 294.946C277.433 296.065 275.239 296.314 273.869 295.599C273.249 295.276 273.01 295.311 272.659 295.778C272.419 296.099 272.064 296.361 271.87 296.361C271.676 296.361 271.281 296.885 270.992 297.525C270.54 298.528 270.304 298.676 269.285 298.599C268.239 298.52 267.927 298.738 266.562 300.5C264.736 302.859 263.573 303.523 261.265 303.523C259.782 303.523 259.59 303.606 259.816 304.149C260.84 306.605 260.789 308.046 259.597 310.371C258.944 311.644 256.968 313.549 256.3 313.549C255.702 313.549 255.934 314.076 257.063 315.282C257.7 315.961 258.17 316.864 258.178 317.42C258.201 319.172 259.178 323.723 259.966 325.754C260.394 326.855 261.379 328.781 262.157 330.035C263.565 332.305 263.568 332.317 262.819 332.908L262.067 333.501L262.87 335.886C263.312 337.198 263.673 338.499 263.673 338.777C263.673 339.814 267.088 340.265 269.194 339.505C272.181 338.428 272.376 338.441 274.56 339.856L276.612 341.184L279.114 340.4C280.49 339.968 283.542 339.429 285.896 339.202C289.412 338.863 290.27 338.664 290.7 338.091C291.176 337.457 291.373 337.433 292.877 337.825C295.204 338.432 295.199 338.434 295.663 336.639C296.174 334.658 296.41 334.498 297.794 335.197L298.886 335.747L298.862 334.048C298.83 331.694 299.198 330.984 302.224 327.572L304.871 324.587L304.745 322.022L304.62 319.457L307.058 319.352L309.496 319.247L310.573 322.417C311.774 325.957 313.75 329.119 315.437 330.2C316.24 330.715 316.709 331.436 317.108 332.77L317.662 334.624L318.85 334.292C320.204 333.913 323.298 333.86 324.575 334.194C325.24 334.367 325.397 334.609 325.269 335.263C325.126 335.99 325.248 336.108 326.141 336.108C326.771 336.108 327.673 336.53 328.434 337.182C329.859 338.402 330.367 338.493 331.276 337.691C331.628 337.381 333.082 336.834 334.506 336.477C335.931 336.119 338.505 335.085 340.226 334.177C343.624 332.386 344.097 332.25 344.097 333.064C344.097 333.816 344.179 333.79 347.533 332.008C349.182 331.132 351.199 330.31 352.017 330.183C353.488 329.954 353.521 329.973 355.41 332.222C357.211 334.366 357.318 334.607 357.318 336.525C357.318 338.988 357.561 339.689 358.414 339.689C359.269 339.689 359.877 338.934 360.79 336.74L361.541 334.937L365.397 334.851C367.518 334.804 369.938 334.921 370.775 335.111C372.593 335.525 373.175 335.277 376.047 332.863C377.158 331.929 378.684 330.916 379.44 330.612C380.385 330.232 380.748 329.895 380.605 329.531C380.482 329.218 381.236 327.928 382.447 326.378C384.563 323.67 386.741 319.936 387.576 317.584C387.971 316.472 387.968 316.04 387.557 315.082C387.284 314.445 386.731 312.51 386.327 310.782C385.923 309.054 385.497 307.238 385.381 306.745L385.168 305.85L386.024 306.614C389.883 310.057 395.692 308.643 396.966 303.951C397.866 300.64 396.106 296.646 393.02 294.99L391.449 294.147L388.316 295.682C384.826 297.391 384.892 297.33 384.126 299.579C383.448 301.569 382.373 301.787 381.606 300.089C381.284 299.376 380.666 298.827 379.871 298.547C379.192 298.308 377.681 297.417 376.515 296.567C372.937 293.962 372.346 293.771 367.619 293.688C365.286 293.647 363.047 293.507 362.643 293.377C362.211 293.238 361.616 293.36 361.2 293.673ZM401.823 294.597C401.896 294.809 402.112 294.982 402.304 294.982C402.496 294.982 402.712 294.809 402.784 294.597C402.857 294.386 402.641 294.213 402.304 294.213C401.967 294.213 401.751 294.386 401.823 294.597ZM293.071 295.443C292.501 296.113 292.815 297.077 293.603 297.077C294.421 297.077 294.72 296.043 294.081 295.42C293.604 294.956 293.484 294.958 293.071 295.443ZM305.354 296.361C305.668 296.952 306.007 297.435 306.108 297.435C306.208 297.435 306.035 296.952 305.722 296.361C305.408 295.77 305.069 295.287 304.968 295.287C304.867 295.287 305.041 295.77 305.354 296.361ZM228.633 299.098C228.37 299.766 228.329 299.706 229.434 300.267C230.117 300.613 230.305 300.59 230.484 300.136C230.811 299.303 230.366 298.509 229.571 298.509C229.183 298.509 228.76 298.774 228.633 299.098ZM255.449 299.436C255.041 300.474 255.219 302.011 255.772 302.218C256.564 302.514 257.143 301.267 256.719 300.179C256.274 299.039 255.73 298.721 255.449 299.436ZM512.168 300.897C511.725 301.328 511.912 302.009 512.535 302.243C512.872 302.369 513.29 302.332 513.465 302.162C513.64 301.991 513.678 301.583 513.548 301.255C513.309 300.647 512.61 300.465 512.168 300.897ZM426.725 301.908C426.725 302.709 427.401 303.881 427.863 303.881C428.537 303.881 428.068 301.57 427.367 301.44C426.967 301.366 426.725 301.543 426.725 301.908ZM166.541 303.629C163.484 305.317 162.411 309.502 164.14 312.985C165.314 315.35 167.058 316.414 169.765 316.414C170.94 316.414 172.348 316.187 172.893 315.91C177.441 313.603 178.166 306.254 174.106 303.617C172.349 302.476 168.619 302.482 166.541 303.629ZM433.702 302.932C433.702 303.529 434.704 305.711 435.398 306.622C436.306 307.816 438.74 309.472 439.088 309.133C439.201 309.023 439.094 308.124 438.851 307.135C438.337 305.043 436.15 302.806 434.619 302.806C434.115 302.806 433.702 302.863 433.702 302.932ZM504.578 308.635C504.578 309.877 505.543 311.01 506.412 310.789C507.294 310.564 507.36 309.705 506.577 308.616C505.807 307.543 504.578 307.555 504.578 308.635ZM492.832 309.52C492.842 311.202 493.388 311.598 493.932 310.317C494.336 309.366 494.331 309.135 493.895 308.866C493.05 308.344 492.826 308.481 492.832 309.52ZM256.112 310.148C255.776 311.452 256.487 312.115 257.335 311.289C257.815 310.821 257.875 310.525 257.582 310.072C256.955 309.103 256.373 309.133 256.112 310.148ZM481.278 309.579C480.946 310.104 481.725 311.4 482.374 311.4C483.129 311.4 483.043 310.553 482.213 309.821C481.767 309.427 481.43 309.34 481.278 309.579ZM200.417 309.997C199.6 310.461 199.603 311.114 200.425 312.104C200.93 312.712 201.3 312.833 202.078 312.642C203.237 312.359 203.453 311.1 202.503 310.173C201.839 309.525 201.324 309.482 200.417 309.997ZM514.93 313.097C515.114 314.03 516.33 314.135 516.33 313.217C516.33 312.705 516.094 312.475 515.568 312.475C515.043 312.475 514.845 312.668 514.93 313.097ZM204.759 316.26C203.896 317.101 204.06 318.035 205.155 318.522C206.339 319.047 206.709 318.744 206.997 317.009C207.201 315.785 207.153 315.697 206.276 315.697C205.759 315.697 205.076 315.951 204.759 316.26ZM227.428 318.439C227.13 319.197 228.627 320.426 229.671 320.28C230.659 320.141 230.889 318.922 230.041 318.317C229.123 317.662 227.708 317.728 227.428 318.439ZM152.393 322.352C149.847 325.26 148.965 326.67 148.569 328.465C148.258 329.871 148.751 330.213 150.103 329.531C152.507 328.32 154.201 325.791 155.474 321.516C155.996 319.765 155.991 319.636 155.403 319.636C155.055 319.636 153.701 320.858 152.393 322.352ZM94.7461 321.069C94.7461 321.266 94.9114 321.427 95.1134 321.427C95.3153 321.427 95.4806 321.266 95.4806 321.069C95.4806 320.872 95.3153 320.71 95.1134 320.71C94.9114 320.71 94.7461 320.872 94.7461 321.069ZM414.811 321.346C414.276 321.868 414.663 323.859 415.432 324.542C418.097 326.909 419.944 326.369 418.5 323.646C417.653 322.049 415.479 320.694 414.811 321.346ZM242.019 322.477C241.81 322.858 241.639 323.672 241.639 324.285C241.639 325.2 241.85 325.487 242.811 325.88C244.353 326.513 245.312 325.97 245.312 324.464C245.312 322.233 242.939 320.801 242.019 322.477ZM247.148 324.07C247.148 324.365 247.313 324.707 247.515 324.828C247.717 324.95 247.882 324.808 247.882 324.513C247.882 324.217 247.717 323.876 247.515 323.754C247.313 323.632 247.148 323.775 247.148 324.07ZM236.93 326.679C237.109 327.577 237.967 327.7 237.967 326.828C237.967 326.388 237.73 326.082 237.389 326.082C237.047 326.082 236.86 326.325 236.93 326.679ZM409.525 329.16C408.94 329.56 408.722 330.018 408.801 330.682C409.039 332.681 413.504 332.59 413.504 330.586C413.504 328.892 411.152 328.049 409.525 329.16ZM246.291 334.556C245.337 335.487 246.798 337.182 248.554 337.182C249.474 337.182 249.718 337.032 249.718 336.466C249.718 335.047 247.217 333.654 246.291 334.556ZM254.33 337.262C253.559 338.335 253.61 339.228 254.468 339.676C255.567 340.249 256.632 340.117 257.05 339.354C257.59 338.37 257.529 337.995 256.696 337.182C255.743 336.253 255.038 336.276 254.33 337.262ZM191.696 337.182C191.696 337.379 192.036 337.54 192.452 337.54C192.868 337.54 193.106 337.379 192.981 337.182C192.856 336.985 192.516 336.824 192.225 336.824C191.934 336.824 191.696 336.985 191.696 337.182ZM316.689 337.359C316.562 337.682 316.634 338.118 316.849 338.328C317.408 338.874 318.468 338.375 318.322 337.635C318.159 336.811 316.983 336.612 316.689 337.359ZM352.254 337.119C351.62 337.523 352.247 339.151 353.236 339.667C354.327 340.236 356.216 340.149 356.216 339.53C356.216 338.132 353.376 336.404 352.254 337.119ZM291.124 339.113C290.76 339.382 290.481 340.06 290.481 340.674C290.481 341.536 290.672 341.806 291.407 341.986C292.479 342.249 293.786 341.681 293.786 340.953C293.786 339.011 292.481 338.109 291.124 339.113ZM297.493 342.157C296.404 342.974 296.679 343.986 297.991 343.986C298.663 343.986 298.975 343.748 299.139 343.111C299.362 342.244 299.12 341.472 298.631 341.487C298.491 341.491 297.979 341.793 297.493 342.157ZM501.708 342.093C501.862 342.875 504.078 344.346 505.092 344.338C505.516 344.335 506.111 344.172 506.414 343.975C506.876 343.675 506.771 343.444 505.766 342.548C504.847 341.729 504.218 341.479 503.077 341.479C501.867 341.479 501.609 341.595 501.708 342.093ZM275.857 342.434C276.036 343.333 276.894 343.456 276.894 342.583C276.894 342.143 276.657 341.837 276.316 341.837C275.974 341.837 275.787 342.081 275.857 342.434ZM331.566 342.376C330.645 342.865 329.994 344.08 330.427 344.502C330.935 344.997 332.462 344.621 333.313 343.792C334.068 343.055 334.162 342.782 333.802 342.359C333.255 341.717 332.805 341.72 331.566 342.376ZM473.794 342.431C473.866 342.794 474.17 343.091 474.47 343.091C475.257 343.091 475.144 342.05 474.34 341.899C473.849 341.807 473.7 341.953 473.794 342.431ZM232.345 342.609C231.449 343.097 231.572 344.221 232.55 344.476C233.845 344.815 233.927 344.766 233.927 343.666C233.927 342.517 233.291 342.092 232.345 342.609ZM293.119 342.757C292.37 343.584 292.744 344.508 293.882 344.636C294.728 344.732 294.888 344.614 294.888 343.902C294.888 343.121 294.284 342.177 293.805 342.209C293.694 342.216 293.385 342.463 293.119 342.757ZM349.199 342.731C348.673 343.01 347.967 343.648 347.63 344.149C347.244 344.724 346.679 345.06 346.097 345.06C343.33 345.06 341.16 347.093 341.16 349.683C341.16 351.567 341.815 352.695 343.367 353.477C345.187 354.394 346.451 354.157 348.37 352.538C349.994 351.167 350.233 351.078 351.789 351.257C352.794 351.372 353.801 351.272 354.31 351.006C356.482 349.87 357.23 346.702 355.843 344.514C354.532 342.445 351.351 341.591 349.199 342.731ZM211.251 343.149C210.467 343.457 210.692 345.339 211.544 345.602C212.564 345.918 213.362 345.19 213.362 343.942C213.362 343.104 213.208 342.917 212.536 342.94C212.082 342.955 211.503 343.049 211.251 343.149ZM501.148 346.653C501.023 346.971 501.232 347.261 501.687 347.402C502.585 347.68 502.908 347.43 502.615 346.687C502.341 345.989 501.417 345.968 501.148 346.653ZM358.678 347.422C356.396 348.629 356.334 352.256 358.565 354.075C359.786 355.07 362.636 354.947 363.761 353.849C364.924 352.715 364.983 350.484 363.895 348.768C362.639 346.786 360.785 346.308 358.678 347.422ZM302.967 349.357C302.967 349.554 303.215 349.715 303.518 349.715C303.821 349.715 304.069 349.554 304.069 349.357C304.069 349.16 303.821 348.999 303.518 348.999C303.215 348.999 302.967 349.16 302.967 349.357ZM589.776 351.326C589.776 351.622 590.024 351.863 590.327 351.863C590.63 351.863 590.878 351.622 590.878 351.326C590.878 351.031 590.63 350.789 590.327 350.789C590.024 350.789 589.776 351.031 589.776 351.326ZM271.69 357.127C271.393 358.331 271.77 359.025 272.721 359.025C273.531 359.025 273.622 358.893 273.52 357.861C273.434 356.993 273.207 356.67 272.626 356.589C272.121 356.519 271.792 356.707 271.69 357.127ZM331.611 358.467C331.611 358.774 331.777 359.025 331.979 359.025C332.181 359.025 332.346 358.874 332.346 358.688C332.346 358.503 332.181 358.252 331.979 358.13C331.777 358.008 331.611 358.16 331.611 358.467ZM309.455 359.264C309.32 359.395 309.21 360.04 309.21 360.696C309.21 361.639 309.36 361.89 309.924 361.89C310.83 361.89 311.757 360.624 311.514 359.718C311.333 359.043 309.986 358.746 309.455 359.264ZM337.087 362.202C336.02 363.044 335.933 365.106 336.92 366.169C337.888 367.212 340.187 367.177 340.955 366.107C341.745 365.008 341.691 362.862 340.855 362.124C339.961 361.335 338.137 361.373 337.087 362.202ZM273.647 362.964C273.647 363.456 273.73 363.658 273.832 363.412C273.934 363.166 273.934 362.763 273.832 362.516C273.73 362.27 273.647 362.472 273.647 362.964ZM480.943 364.645C480.529 365.048 480.691 365.471 481.259 365.471C481.562 365.471 481.81 365.319 481.81 365.134C481.81 364.682 481.236 364.359 480.943 364.645ZM273.104 365.347C272.972 365.476 271.639 365.546 270.142 365.503L267.421 365.426L266.949 368C266.518 370.353 266.379 370.615 265.351 371.038C264.731 371.293 263.353 372.4 262.29 373.499C260.696 375.144 260.14 375.497 259.135 375.497C258.043 375.497 257.872 375.638 257.504 376.84C257.278 377.578 257.028 379.442 256.948 380.981C256.751 384.787 256.042 385.754 253.577 385.576C252.39 385.491 251.726 385.606 251.513 385.934C250.976 386.76 251.136 386.973 252.84 387.708C254.617 388.475 254.801 388.767 253.942 389.462C253.56 389.77 253.391 390.591 253.391 392.123C253.391 393.516 253.191 394.596 252.852 395.033C251.916 396.239 252.177 396.835 253.85 397.323C257.623 398.422 260.002 400.429 260.761 403.152C260.995 403.993 261.243 404.877 261.313 405.117C261.382 405.358 262.543 406.043 263.893 406.639L266.346 407.724L266.127 409.532C265.842 411.873 266.572 412.276 268.139 410.642C269.4 409.325 269.056 409.374 272.303 410.045C281.723 411.991 291.925 408.11 296.677 400.773C299.743 396.039 300.659 390.933 299.469 385.216L298.805 382.028L299.601 381.042C300.537 379.881 300.652 378.176 299.816 377.863C299.496 377.743 298.591 377.645 297.804 377.645C296.49 377.645 296.307 377.52 295.579 376.128C295.142 375.294 293.61 373.522 292.175 372.19C289.912 370.09 289.383 369.767 288.199 369.767C287.207 369.767 286.492 369.475 285.58 368.693C284.753 367.986 283.93 367.619 283.168 367.619C282.234 367.619 281.863 367.377 281.252 366.366C280.323 364.83 279.754 364.78 279.21 366.187C278.981 366.778 278.523 367.261 278.193 367.261C277.405 367.261 275.681 366.382 275.078 365.673C274.59 365.1 273.535 364.926 273.104 365.347ZM128.348 368.751C127.045 369.451 125.181 371.344 124.468 372.691C123.594 374.344 122.898 377.308 123.293 377.694C123.771 378.159 125.839 376.729 127.055 375.091C127.67 374.265 128.501 372.55 128.903 371.282C129.911 368.1 129.874 367.932 128.348 368.751ZM309.337 368.888C309.217 369.192 309.212 369.53 309.324 369.64C309.646 369.953 310.312 369.422 310.312 368.851C310.312 368.164 309.611 368.19 309.337 368.888ZM312.515 369.588C312.515 369.917 312.693 370.127 312.91 370.057C313.127 369.986 313.305 369.776 313.305 369.588C313.305 369.401 313.127 369.191 312.91 369.12C312.693 369.05 312.515 369.26 312.515 369.588ZM317.035 371.431C316.73 372.205 318.019 373.214 318.456 372.543C318.616 372.296 318.749 371.813 318.753 371.468C318.76 370.658 317.351 370.627 317.035 371.431ZM328.374 371.826C328.466 372.608 328.679 372.811 329.408 372.811C330.137 372.811 330.35 372.608 330.442 371.826C330.547 370.938 330.447 370.842 329.408 370.842C328.37 370.842 328.269 370.938 328.374 371.826ZM311.781 372.811C311.781 373.107 312.029 373.348 312.332 373.348C312.635 373.348 312.883 373.107 312.883 372.811C312.883 372.516 312.635 372.274 312.332 372.274C312.029 372.274 311.781 372.516 311.781 372.811ZM254.952 373.585C254.174 373.891 254.407 375.422 255.273 375.69C256.104 375.947 256.68 375.41 256.69 374.371C256.695 373.916 255.832 373.212 255.472 373.377C255.439 373.392 255.204 373.486 254.952 373.585ZM318.858 374.498C317.799 374.996 317.524 375.896 318.072 377.067C318.871 378.778 322.063 377.982 322.063 376.072C322.063 374.305 320.695 373.633 318.858 374.498ZM334.427 375.378C334.058 375.737 334.133 377.287 334.519 377.287C334.705 377.287 335.096 377.377 335.39 377.487C336.096 377.751 336.484 376.703 336.004 375.829C335.625 375.139 334.888 374.928 334.427 375.378ZM438.109 380.854C437.256 381.399 438.137 382.479 439.434 382.479C440.322 382.479 440.496 382.333 440.496 381.584C440.496 380.893 440.287 380.668 439.578 380.596C439.073 380.545 438.412 380.661 438.109 380.854ZM366.572 381.952C365.01 383.371 365.098 385.652 366.738 386.26C368.551 386.932 369.435 386.688 370.006 385.355C370.768 383.577 370.67 382.811 369.571 381.968C368.353 381.035 367.587 381.031 366.572 381.952ZM300.705 384.251C300.387 384.933 300.379 385.291 300.676 385.58C301.37 386.257 302.295 385.629 302.166 384.568C302.008 383.273 301.241 383.107 300.705 384.251ZM342.243 384.124C341.327 385.794 342.816 387.549 344.151 386.371C345.015 385.609 345.019 384.724 344.16 383.967C343.265 383.177 342.739 383.22 342.243 384.124ZM623.409 384.401C623.25 384.65 623.22 384.951 623.341 385.069C623.67 385.39 624.028 384.919 623.851 384.399C623.727 384.036 623.64 384.036 623.409 384.401ZM352.676 385.705C352.308 386.637 353.541 388.03 354.734 388.03C355.323 388.03 355.905 387.872 356.028 387.679C356.276 387.288 355.593 385.846 354.967 385.439C354.268 384.983 352.897 385.142 352.676 385.705ZM410.199 385.419C409.745 385.52 409.645 386.371 409.63 390.277C409.61 395.37 409.202 397.428 407.949 398.738C407.263 399.457 406.902 399.545 405.28 399.39C403.49 399.22 403.331 399.278 401.743 400.693C400.829 401.507 399.073 402.923 397.842 403.839C395.314 405.719 393.794 407.497 393.148 409.327C392.821 410.255 392.261 410.806 390.968 411.477C388.821 412.59 387.952 412.614 387.384 411.573C386.801 410.508 385.857 409.846 385.46 410.225C385.284 410.393 384.578 410.441 383.889 410.332C382.815 410.162 382.39 410.338 380.878 411.581C377.884 414.043 376.75 413.85 372.951 410.234C369.566 407.012 368.805 406.914 369.659 409.808C369.932 410.73 370.309 412.692 370.497 414.169C370.832 416.785 370.817 416.876 369.912 417.68C368.844 418.628 368.133 418.56 364.651 417.181C361.701 416.012 360.077 416.063 357.928 417.392C356.865 418.049 355.7 418.466 354.927 418.466C353.741 418.466 353.676 418.527 353.868 419.464C353.981 420.013 353.814 421.44 353.496 422.635C352.98 424.578 352.977 424.997 353.468 426.61C354.334 429.453 357.205 431.603 361.718 432.788L363.194 433.175V436.331C363.194 439.911 363.657 441.609 364.724 441.94C365.127 442.065 367.085 443.443 369.073 445.002C373.829 448.733 375.779 449.611 379.311 449.616C381.421 449.619 382.125 449.753 382.474 450.218C382.887 450.768 382.978 450.754 383.606 450.039C384.101 449.476 384.704 449.261 385.793 449.261C388.12 449.261 390.732 448.338 392.842 446.77L394.766 445.341L396.079 446.097C397.794 447.083 398.449 446.579 397.496 445.005C396.529 443.408 397.082 442.229 399.435 440.871C401.928 439.433 401.899 439.475 401.229 438.212C400.554 436.938 400.486 435.148 401.055 433.559C401.508 432.289 401.812 432.175 402.519 433.006C403.455 434.106 404.839 434.337 409.994 434.255L415.114 434.174L416.63 432.587C417.464 431.714 418.39 430.999 418.689 430.999C418.987 430.999 419.858 431.625 420.624 432.39C422.718 434.48 424.521 433.569 422.748 431.316C421.395 429.597 421.461 429.265 423.528 427.423C424.596 426.471 425.96 424.832 426.557 423.78C427.514 422.095 427.639 421.535 427.61 419.062L427.577 416.256L429.538 414.843C430.616 414.066 431.499 413.296 431.499 413.131C431.499 412.966 430.851 412.747 430.059 412.643C427.3 412.282 425.79 410.513 425.833 407.695C425.856 406.197 425.743 405.934 424.915 405.56C424.395 405.326 423.723 405.017 423.42 404.874C422.553 404.463 421.227 402.351 420.801 400.702C420.33 398.88 419.36 398.483 417.886 399.506C416.533 400.445 414.826 400.404 413.876 399.41C412.714 398.194 411.764 394.662 411.286 389.774C411.048 387.337 410.83 385.333 410.802 385.32C410.773 385.307 410.502 385.352 410.199 385.419ZM522.267 390.089C521.099 391.059 521.073 392.654 522.205 393.759C523.777 395.291 525.878 394.151 525.878 391.765C525.878 389.747 523.825 388.794 522.267 390.089ZM581.494 392C581.165 392.518 582.033 393.401 582.871 393.401C583.338 393.401 583.546 393.197 583.468 392.815C583.325 392.107 581.819 391.486 581.494 392ZM155.413 394.547C154.881 395.065 154.823 396.982 155.34 396.982C155.885 396.982 157.176 395.624 157.176 395.05C157.176 394.776 156.914 394.454 156.595 394.334C155.855 394.058 155.928 394.045 155.413 394.547ZM115.377 395.639C115.442 396.082 115.66 396.444 115.862 396.444C116.064 396.444 116.282 396.082 116.347 395.639C116.427 395.084 116.276 394.833 115.862 394.833C115.448 394.833 115.297 395.084 115.377 395.639ZM249.88 396.798C249.233 397.281 249.285 397.293 250.453 396.924C252.047 396.42 252.25 396.265 251.319 396.265C250.92 396.265 250.273 396.505 249.88 396.798ZM209.099 397.851C208.988 398.132 208.952 398.736 209.018 399.193C209.19 400.375 210.924 400.381 211.095 399.2C211.305 397.76 209.59 396.601 209.099 397.851ZM244.577 397.967C243.649 398.419 243.26 398.867 243.176 399.578C243.072 400.459 243.175 400.562 244.165 400.562C245.704 400.562 247.324 399.162 246.987 398.124C246.678 397.176 246.257 397.149 244.577 397.967ZM347.402 399.028C347.402 400.213 348.144 401.027 349.776 401.632C352.217 402.536 353.352 401.161 351.705 399.294C351.091 398.598 350.404 398.292 349.135 398.153C347.414 397.964 347.402 397.97 347.402 399.028ZM598.59 403.242C598.59 404.374 601.219 406.533 603.349 407.149C606.277 407.997 607.036 407.924 607.036 406.793C607.036 404.889 604.503 403.404 600.296 402.842C598.826 402.645 598.59 402.7 598.59 403.242ZM117.482 405.677C115.656 407.768 115.251 408.625 115.382 410.122L115.495 411.416L116.704 410.42C118.091 409.279 119.175 407.388 119.545 405.469C119.892 403.663 119.177 403.735 117.482 405.677ZM159.379 405.731C159.379 406.765 159.518 407.008 160.107 407.008C160.58 407.008 160.916 406.689 161.069 406.096C161.337 405.056 161.324 405.036 160.205 404.701C159.456 404.476 159.379 404.571 159.379 405.731ZM573.251 406.415C573.251 407.871 575.675 409.249 576.885 408.48C577.612 408.018 577.148 407.131 575.742 406.295C574.101 405.32 573.251 405.361 573.251 406.415ZM309.394 409.353C308.788 409.656 308.086 410.169 307.833 410.493C307.082 411.459 307.284 413.311 308.26 414.418C309.019 415.278 309.42 415.423 311.046 415.423C312.673 415.423 313.074 415.278 313.833 414.418C314.449 413.719 314.719 412.979 314.719 411.985C314.719 409.272 312.123 407.99 309.394 409.353ZM130.368 418.287C130.368 419.723 131.187 420.008 131.849 418.802C132.15 418.253 132.142 417.93 131.817 417.548C131.023 416.615 130.368 416.948 130.368 418.287ZM275.694 417.681C274.341 419.195 273.763 422.047 274.81 422.047C275.573 422.047 276.788 420.562 277.18 419.151C277.479 418.072 277.432 417.803 276.886 417.471C276.378 417.161 276.117 417.207 275.694 417.681ZM122.652 419.272C121.726 420.752 121.619 423.669 122.502 423.339C122.822 423.219 123.148 423.121 123.227 423.121C123.568 423.121 124.492 420.932 124.492 420.125C124.492 419.007 124.145 418.108 123.713 418.108C123.529 418.108 123.052 418.632 122.652 419.272ZM332.162 420.495C330.319 421.445 329.782 422.092 329.188 424.084C328.753 425.545 328.365 426.123 327.544 426.537C326.953 426.835 326.47 427.372 326.47 427.73C326.47 428.481 329.021 432.484 330.456 433.986C333.536 437.21 338.935 437.095 341.72 433.746C343.623 431.458 344.121 431.078 345.746 430.679C346.657 430.456 347.402 430.112 347.402 429.916C347.402 429.72 346.744 429.119 345.939 428.579C344.82 427.829 344.345 427.185 343.924 425.847C343.159 423.42 341.878 421.924 339.629 420.831C337.359 419.728 333.949 419.574 332.162 420.495ZM533.835 421.57C532.869 422.511 534.827 424.554 536.695 424.554C537.891 424.554 537.996 424.468 537.996 423.5C537.996 422.817 537.709 422.25 537.18 421.889C536.356 421.326 534.287 421.129 533.835 421.57ZM255.09 424.387C254.963 424.708 254.86 425.371 254.86 425.861C254.86 426.58 255.019 426.73 255.686 426.638C256.362 426.544 256.512 426.297 256.512 425.275C256.512 423.925 255.516 423.303 255.09 424.387ZM691.716 429.516C691.397 430.019 691.888 431.052 692.371 430.895C692.915 430.718 692.906 429.487 692.36 429.309C692.126 429.233 691.836 429.326 691.716 429.516ZM424.662 437.355C424.152 438.142 424.713 439.491 425.676 439.788C426.704 440.107 427.182 439.634 426.909 438.571C426.442 436.758 425.411 436.2 424.662 437.355ZM81.5386 443.15C80.7083 444.663 81.3627 446.197 82.46 445.31C83.1798 444.727 83.1772 442.458 82.4567 442.458C82.161 442.458 81.7479 442.769 81.5386 443.15ZM297.403 443.757C296.671 443.965 295.814 445.829 296.183 446.412C296.957 447.633 302.056 448.363 302.899 447.372C303.386 446.8 302.549 444.971 301.51 444.338C300.692 443.84 298.301 443.502 297.403 443.757ZM691.306 448.919C690.962 449.462 691.895 450.452 692.341 450.017C692.753 449.615 692.432 448.545 691.9 448.545C691.704 448.545 691.437 448.713 691.306 448.919ZM492.551 449.498C491.9 449.755 491.982 451.252 492.686 451.937C493.452 452.684 494.027 452.48 494.451 451.312C494.967 449.887 493.974 448.939 492.551 449.498ZM354.747 450.694C354.747 450.891 355.005 451.052 355.32 451.052C355.634 451.052 355.79 450.891 355.665 450.694C355.54 450.497 355.283 450.336 355.093 450.336C354.902 450.336 354.747 450.497 354.747 450.694ZM362.367 454.773C361.507 455.41 361.555 455.814 362.641 457.072C363.746 458.353 365.59 459.11 368.427 459.446C370.355 459.675 370.538 459.637 370.538 459.008C370.538 456.158 364.632 453.097 362.367 454.773ZM524.791 455.152C524.026 456.051 524.48 456.96 525.694 456.96C526.453 456.96 526.824 456.764 526.913 456.316C527.059 455.578 526.374 454.633 525.694 454.633C525.441 454.633 525.034 454.866 524.791 455.152ZM56.3045 456.614C54.8973 457.693 53.7879 459.398 53.435 461.024C53.1882 462.159 53.2209 462.21 54.038 461.969C56.078 461.366 57.9277 458.527 57.5994 456.503L57.472 455.719L56.3045 456.614ZM224.808 458.951C224.875 459.401 225.151 459.839 225.42 459.926C225.753 460.033 225.871 459.821 225.787 459.266C225.72 458.816 225.444 458.378 225.175 458.291C224.842 458.184 224.724 458.396 224.808 458.951ZM456.103 461.794C456.103 462.319 456.348 462.51 457.022 462.51C458.047 462.51 458.287 461.643 457.359 461.295C456.388 460.932 456.103 461.045 456.103 461.794ZM443.434 463.307C442.828 463.517 441.671 464.141 440.863 464.692C440.055 465.244 438.899 465.811 438.293 465.953C436.528 466.366 433.852 468.842 433.344 470.533C433.102 471.339 432.326 473.016 431.62 474.26C430.914 475.503 430.433 476.767 430.552 477.068C430.671 477.37 430.454 478.31 430.07 479.157C429.372 480.695 429.372 480.699 430.236 483.151C431.247 486.023 431.355 487.984 430.567 489.157C430.257 489.619 429.015 490.673 427.809 491.498C425.511 493.07 424.167 494.893 424.831 495.54C425.377 496.073 426.782 495.616 428.366 494.388C429.72 493.339 430.936 492.892 433.794 492.392C435.141 492.156 435.186 492.185 435.897 493.713C436.297 494.572 436.628 495.567 436.632 495.924C436.638 496.37 437.359 496.891 438.942 497.59C443.084 499.422 445.285 499.883 449.677 499.842L453.716 499.804L455.106 501.269C456.816 503.07 457.395 502.749 456.671 500.402C456.027 498.314 456.323 497.854 459.27 496.36C461.831 495.061 463.425 493.145 466.013 488.255L467.832 484.815L467.289 480.019C466.714 474.942 466.048 472.154 465.097 470.843C464.779 470.403 462.854 468.833 460.819 467.354C456.096 463.919 453.011 462.854 447.913 462.897C446.056 462.912 444.04 463.097 443.434 463.307ZM146.159 464.838C146.159 465.133 146.324 465.375 146.526 465.375C146.728 465.375 146.893 465.133 146.893 464.838C146.893 464.542 146.728 464.301 146.526 464.301C146.324 464.301 146.159 464.542 146.159 464.838ZM645.004 466.639C644.668 467.138 644.498 467.647 644.625 467.771C644.942 468.079 646.33 466.812 646.33 466.215C646.33 465.444 645.664 465.657 645.004 466.639ZM722.769 469.99C722.376 470.233 722.362 470.461 722.701 471.081C723.238 472.057 724 471.861 724 470.746C724 469.818 723.523 469.525 722.769 469.99ZM414.964 473.801C414.612 474.214 414.597 474.559 414.902 475.214C415.554 476.607 416.891 477.247 418.889 477.123C420.487 477.024 420.676 476.921 420.775 476.094C420.957 474.568 419.29 473.253 417.172 473.253C416.057 473.253 415.263 473.45 414.964 473.801ZM488.594 474.343C488.297 474.81 489.073 475.759 489.75 475.759C490.045 475.759 490.256 475.386 490.256 474.864C490.256 474.217 490.059 473.969 489.543 473.969C489.151 473.969 488.724 474.137 488.594 474.343ZM250.694 474.733C249.564 475.373 248.882 477.415 249.343 478.778C250.037 480.83 252.898 481.535 254.834 480.132C256.232 479.118 256.364 476.478 255.08 475.225C254.081 474.251 251.963 474.013 250.694 474.733ZM628.948 480.873C628.551 481.163 628.458 481.478 628.673 481.809C629.067 482.418 630.172 482.073 630.172 481.342C630.172 480.577 629.635 480.372 628.948 480.873ZM375.803 484.914C375.497 485.692 376.274 486.424 376.83 485.881C377.3 485.423 377.009 484.353 376.414 484.353C376.199 484.353 375.924 484.606 375.803 484.914ZM641.067 486.382C640.613 486.825 640.813 488.292 641.328 488.292C642.053 488.292 642.777 487.322 642.527 486.685C642.308 486.127 641.5 485.96 641.067 486.382ZM411.878 487.064C410.612 488.299 411.596 489.473 413.751 489.3C415.416 489.166 415.764 488.347 414.629 487.24C413.726 486.359 412.67 486.292 411.878 487.064ZM1.14062 488.615C0.339319 489.345 0 489.984 0 490.763C0 492.033 0.770827 492.238 2.10756 491.325C2.77335 490.871 3.66241 488.89 3.67012 487.844C3.67526 487.207 2.18944 487.659 1.14062 488.615ZM469.691 490.261C469.691 490.557 469.856 490.799 470.058 490.799C470.26 490.799 470.426 490.557 470.426 490.261C470.426 489.966 470.26 489.724 470.058 489.724C469.856 489.724 469.691 489.966 469.691 490.261ZM231.839 490.975C230.105 491.696 228.661 494.035 228.629 496.176C228.592 498.633 229.144 499.041 230.82 497.795C232.524 496.528 233.476 494.991 233.78 493.017C234.104 490.912 233.506 490.282 231.839 490.975ZM623.745 492.737C623.214 493.956 622.825 495.107 622.881 495.293C622.937 495.48 622.774 496.036 622.518 496.528C622.073 497.383 622.078 497.391 622.642 496.707C623.23 495.992 623.232 495.992 623.856 496.745C624.999 498.125 625.586 498.026 626.443 496.307C627.411 494.362 627.411 494.379 626.465 494.379C625.756 494.379 625.716 494.243 625.942 492.638C626.161 491.087 626.107 490.876 625.45 490.708C624.832 490.55 624.553 490.883 623.745 492.737ZM709.127 492.41C709.127 493.397 709.273 493.663 709.817 493.663C710.767 493.663 711.439 492.772 711.152 491.89C710.998 491.416 710.598 491.157 710.021 491.157C709.244 491.157 709.127 491.321 709.127 492.41ZM638.159 494.766C637.243 495.286 637.329 496.78 638.292 497.078C639.385 497.416 640.249 496.489 639.944 495.305C639.691 494.321 639.202 494.174 638.159 494.766ZM379.146 495.846C379.01 496.062 379.149 496.484 379.457 496.784C380.126 497.436 380.821 497.113 380.821 496.149C380.821 495.388 379.579 495.164 379.146 495.846ZM642.74 497.085C641.582 497.876 641.709 499.153 643.053 500.256C644.412 501.371 644.649 501.39 645.596 500.467C646.397 499.685 646.547 498.309 645.95 497.22C645.485 496.372 643.882 496.305 642.74 497.085ZM625.122 498.555C624.377 498.849 624.545 502.035 625.358 503.015L626.053 503.851L626.644 502.473C627.835 499.693 627.093 497.78 625.122 498.555ZM534.916 499.14C534.461 499.464 534.302 499.971 534.387 500.829C534.489 501.864 534.693 502.107 535.694 502.385C537.902 502.999 538.789 501.207 537.095 499.555C536.062 498.548 535.813 498.5 534.916 499.14ZM620.424 502.42C619.399 503.419 619.242 504.681 620.102 505.003C620.921 505.31 621.713 504.401 621.969 502.859C622.232 501.281 621.736 501.14 620.424 502.42ZM240.626 505.475C240.008 506.44 240.034 508.345 240.664 508.345C241.228 508.345 242.153 507.392 242.49 506.465C243.047 504.933 241.499 504.111 240.626 505.475ZM98.4185 505.415C98.4185 505.848 99.1151 506.352 99.37 506.104C99.4621 506.014 99.2859 505.736 98.9781 505.487C98.6292 505.205 98.4185 505.177 98.4185 505.415ZM620.185 509.744C617.002 512.987 615.24 514.151 612.882 514.568C611.364 514.835 610.674 514.287 609.412 511.805C607.94 508.911 604.89 508.338 598.774 509.806C596.375 510.381 593.555 510.685 588.491 510.914C584.653 511.089 580.853 511.266 580.045 511.309C578.648 511.384 578.513 511.296 577.308 509.508L576.04 507.628H573.57C571.348 507.628 571.025 507.721 570.349 508.56C569.238 509.938 569.073 511.521 569.762 514.201L570.375 516.581L569.083 518.282C568.372 519.217 566.458 521.267 564.829 522.839C563.2 524.409 561.867 525.854 561.867 526.048C561.867 526.242 562.306 526.742 562.843 527.16L563.82 527.92L562.085 528.739C559.617 529.904 558.378 531.837 558.378 534.522C558.378 537.402 559.317 538.626 561.415 538.478C562.242 538.42 563.283 538.562 563.728 538.794C564.48 539.187 564.523 539.401 564.335 541.82C564.141 544.326 564.168 544.439 565.037 544.825C565.534 545.046 566.143 545.227 566.391 545.227C566.638 545.227 567.159 545.803 567.547 546.506C567.936 547.21 569.544 548.826 571.12 550.097C573.915 552.352 573.985 552.448 573.985 554.01C573.985 554.891 574.09 555.611 574.217 555.611C574.345 555.611 575.004 555.277 575.682 554.869L576.914 554.126L580.867 554.891C587.453 556.166 589.499 556.205 592.814 555.116C596.302 553.97 598.59 553.863 598.59 554.846C598.59 555.213 598.094 556.121 597.488 556.864C596.757 557.761 596.387 558.622 596.387 559.42C596.387 561.188 597.299 560.951 598.375 558.904C598.743 558.204 599.251 557.744 599.619 557.778C600.47 557.856 601.895 557.384 601.895 557.025C601.895 556.864 602.077 556.278 602.3 555.724L602.705 554.716L603.09 555.611C603.419 556.375 603.499 556.411 603.636 555.853C603.723 555.494 603.533 554.917 603.213 554.572C602.358 553.651 602.485 553.259 603.903 552.443C604.603 552.04 605.958 550.65 606.915 549.353C608.161 547.664 608.815 547.061 609.222 547.226C610.492 547.738 610.804 547.5 611.573 545.44C612.489 542.981 613.583 542.04 615.876 541.741C616.985 541.596 617.714 541.254 618.201 540.649C618.592 540.164 619.889 539.317 621.083 538.767C623.557 537.626 624.52 536.869 625.252 535.488C625.946 534.179 625.865 530.459 625.09 528.049L624.46 526.089L621.191 524.913C617.703 523.658 616.821 523.078 615.977 521.486C615.478 520.547 615.526 520.313 616.702 517.896C617.864 515.51 618.945 514.107 619.332 514.485C619.419 514.57 619.705 515.278 619.966 516.058C620.502 517.659 621.433 518.008 623.229 517.283C624.481 516.777 624.58 516.141 623.562 515.148C622.622 514.232 622.59 512.245 623.503 511.441C624.318 510.721 624.544 506.554 623.768 506.554C623.519 506.554 621.907 507.99 620.185 509.744ZM444.89 507.291C444.58 507.78 444.999 509.419 445.435 509.419C445.864 509.419 446.923 508.391 446.923 507.974C446.923 507.681 445.758 506.912 445.316 506.912C445.214 506.912 445.022 507.083 444.89 507.291ZM696.348 510.585C695.578 511.49 695.521 512.801 696.214 513.667C696.768 514.36 697.098 514.47 698.026 514.271C699.701 513.912 700.139 513.244 699.574 511.912C698.889 510.301 697.186 509.6 696.348 510.585ZM520.002 511.764C520.002 512.224 521.084 513.945 521.733 514.518C522.12 514.86 522.963 515.242 523.607 515.368C524.549 515.551 524.776 515.479 524.776 514.996C524.776 514.077 523.75 512.348 522.96 511.936C522.223 511.551 520.002 511.422 520.002 511.764ZM545.433 512.879C544.349 513.305 545.229 515.148 546.516 515.148C547.378 515.148 547.448 513.177 546.596 512.859C546.277 512.739 545.988 512.654 545.954 512.67C545.92 512.685 545.686 512.779 545.433 512.879ZM510.054 514.744C508.991 515.583 508.9 517.648 509.88 518.704C510.656 519.54 512.588 519.988 513.964 519.651C515.05 519.385 516.131 517.305 515.766 516.184C515.105 514.152 511.845 513.33 510.054 514.744ZM227.685 515.647C227.685 515.921 227.932 516.238 228.235 516.352C228.61 516.492 228.786 516.333 228.786 515.853C228.786 515.465 228.538 515.148 228.235 515.148C227.932 515.148 227.685 515.373 227.685 515.647ZM625.771 516.036C625.358 516.522 625.608 518.234 626.14 518.555C626.302 518.652 626.25 519.208 626.025 519.79C625.696 520.639 625.734 521.092 626.216 522.078C626.805 523.281 628.843 524.638 629.482 524.252C629.992 523.945 629.858 522.798 629.254 522.31C628.314 521.549 628.641 520.921 630.187 520.515C631.339 520.213 631.807 519.846 632.285 518.869C632.819 517.776 632.83 517.569 632.362 517.281C632.067 517.099 631.479 516.947 631.056 516.944C630.633 516.941 629.362 516.628 628.232 516.249C626.537 515.68 626.106 515.643 625.771 516.036ZM667.63 519.266C665.105 521.529 664.015 521.741 661.52 520.453L660.002 519.668L657.785 520.639C654.912 521.896 650.499 522.99 647.191 523.265C644.82 523.462 644.519 523.413 644.101 522.761C643.684 522.109 643.349 522.054 640.669 522.2C638.495 522.319 636.987 522.18 635.037 521.683C632.46 521.026 632.351 521.025 631.656 521.657C631.26 522.016 630.754 522.31 630.53 522.31C630.157 522.31 630.354 523.628 630.799 524.1C630.891 524.199 633.56 524.368 636.728 524.475C639.896 524.583 642.692 524.794 642.94 524.944C643.869 525.504 643.451 527.353 642.129 528.534C639.628 530.768 637.391 539.71 638.205 544.217C638.929 548.225 642.519 554.309 646.528 558.322C648.029 559.825 648.733 560.249 650.263 560.568C651.3 560.785 652.938 561.451 653.902 562.047C655.098 562.787 656.128 563.133 657.144 563.139C658.053 563.144 658.99 563.419 659.551 563.847C660.706 564.728 661.472 564.744 662.253 563.903C662.59 563.54 663.814 563.037 664.972 562.786C667.217 562.299 670.049 561.036 671.853 559.717C672.701 559.097 673.152 558.985 673.811 559.23C674.894 559.633 676.443 559.271 676.443 558.616C676.443 558.328 676.817 558.118 677.332 558.118C678.632 558.118 678.985 556.323 677.941 555.028C676.896 553.733 676.983 552.908 678.262 551.986C679.636 550.995 680.307 549.354 680.869 545.606C681.658 540.347 680.805 535.006 678.435 530.366C676.889 527.339 675.396 525.667 673.579 524.929C672.832 524.625 671.746 524.048 671.168 523.647C670.119 522.921 670.116 522.908 670.367 520.107C670.539 518.186 670.493 517.297 670.222 517.297C670.005 517.297 668.838 518.183 667.63 519.266ZM524.068 522.895C523.201 523.97 523.158 524.233 523.687 525.198C524.155 526.051 525.951 526.126 526.77 525.328C527.452 524.662 527.53 522.99 526.906 522.381C526.17 521.663 524.872 521.898 524.068 522.895ZM549.881 522.489C549.596 523.211 549.968 524.068 550.683 524.335C551.53 524.652 552.081 523.936 551.807 522.873C551.542 521.843 550.237 521.583 549.881 522.489ZM619.81 522.149C619.207 522.736 620.055 523.384 621.424 523.384C622.613 523.384 622.859 523.269 622.759 522.757C622.676 522.328 622.229 522.097 621.342 522.024C620.63 521.966 619.94 522.021 619.81 522.149ZM545.708 523.742C545.304 524.136 544.974 524.839 544.974 525.305C544.974 526.477 546.321 528.039 547.331 528.039C549.301 528.039 550.095 525.238 548.531 523.804C547.474 522.836 546.656 522.818 545.708 523.742ZM552.196 524.697C551.514 525.362 552.691 528.397 553.631 528.397C554.27 528.397 554.306 527.971 553.714 527.394C553.397 527.085 553.39 526.965 553.692 526.965C553.923 526.965 554.213 527.126 554.338 527.323C554.463 527.52 554.968 527.681 555.462 527.681C556.203 527.681 556.358 527.504 556.358 526.655C556.358 525.777 556.132 525.545 554.785 525.044C553.063 524.402 552.566 524.336 552.196 524.697ZM558.635 525.604C558.393 525.84 558.194 526.404 558.194 526.857C558.194 527.526 558.393 527.681 559.251 527.681C560.531 527.681 561.278 526.903 560.954 525.908C560.687 525.088 559.345 524.912 558.635 525.604ZM254.011 528.97C253.285 530.628 253.049 531.633 253.213 532.364C253.538 533.804 253.911 533.914 255.1 532.917C256.025 532.14 256.141 531.786 256.268 529.331C256.396 526.864 256.344 526.607 255.726 526.611C255.236 526.613 254.753 527.279 254.011 528.97ZM682.11 527.721C681.834 528.156 682.648 528.812 683.237 528.63C683.439 528.568 683.658 528.248 683.723 527.92C683.86 527.234 682.523 527.069 682.11 527.721ZM554.797 531.173C553.992 531.35 553.965 532.458 554.748 533.221C555.53 533.984 556.148 533.748 556.285 532.636C556.41 531.616 555.747 530.964 554.797 531.173ZM632.008 537.758C632.008 537.983 632.343 539.265 632.754 540.607C633.591 543.349 634.142 543.527 634.858 541.288C635.614 538.927 635.469 538.264 634.094 537.779C632.567 537.241 632.008 537.235 632.008 537.758ZM560.847 543.994C558.834 545.368 560.605 549.376 562.882 548.6C563.779 548.293 563.898 548.058 563.997 546.402C564.1 544.658 564.042 544.515 563.005 543.992C561.668 543.318 561.836 543.318 560.847 543.994ZM469.773 545.426C468.814 546.081 468.736 546.908 469.528 548.012C470.7 549.643 472.629 548.418 472.629 546.042C472.629 544.998 472.517 544.869 471.609 544.869C471.048 544.869 470.222 545.12 469.773 545.426ZM685.257 545.954C685.257 546.342 685.505 546.659 685.808 546.659C686.111 546.659 686.359 546.435 686.359 546.16C686.359 545.886 686.111 545.569 685.808 545.455C685.433 545.315 685.257 545.475 685.257 545.954ZM542.477 549.595C541.818 550.237 541.945 551.839 542.708 552.512C544.141 553.777 546.348 552.779 545.907 551.066C545.765 550.515 545.477 549.863 545.267 549.615C544.78 549.044 543.055 549.032 542.477 549.595ZM633.686 549.841C633.576 550.016 633.742 550.367 634.056 550.621C635.104 551.469 635.68 553.049 635.68 555.074C635.68 557.457 634.962 558.98 633.489 559.723C632.015 560.466 631.679 560.423 629.313 559.192C628.177 558.601 626.817 558.118 626.291 558.118C625.374 558.118 625.344 558.18 625.586 559.578L625.839 561.038L624.721 560.475C624.076 560.149 623.514 560.052 623.391 560.246C622.964 560.92 623.699 563.655 624.522 564.458C625.622 565.53 626 565.494 626.658 564.253C627.554 562.563 629.448 561.924 632.81 562.177L635.68 562.392L636.578 560.703C637.073 559.773 637.972 558.3 638.576 557.428C639.819 555.637 639.799 554.885 638.424 551.815C637.738 550.284 637.413 549.951 636.413 549.756C634.781 549.438 633.925 549.465 633.686 549.841ZM247.515 551.314C247.515 551.511 247.68 551.672 247.882 551.672C248.084 551.672 248.25 551.511 248.25 551.314C248.25 551.117 248.084 550.956 247.882 550.956C247.68 550.956 247.515 551.117 247.515 551.314ZM491.502 556.174C491.189 557.39 491.769 557.953 492.787 557.422C493.253 557.179 493.561 556.667 493.561 556.136C493.561 555.435 493.374 555.253 492.65 555.253C491.978 555.253 491.677 555.494 491.502 556.174ZM679.285 557.822C679.812 558.437 682.135 559.77 681.824 559.28C681.694 559.074 680.978 558.555 680.232 558.127C679.488 557.698 679.061 557.561 679.285 557.822ZM601.028 558.808C600.265 559.078 598.599 563.642 598.601 565.458C598.603 569.086 602.242 567.864 602.831 564.037C603.063 562.527 602.48 558.995 601.95 558.699C601.819 558.625 601.404 558.675 601.028 558.808ZM605.575 559.022C605.83 559.322 606.115 559.493 606.207 559.404C606.462 559.155 605.944 558.476 605.501 558.476C605.257 558.476 605.285 558.681 605.575 559.022ZM687.277 562.196C687.277 563.599 687.442 563.851 689.601 565.731C692.786 568.505 694.06 568.861 693.537 566.83C693.319 565.984 688.195 560.591 688.195 561.208C688.195 561.329 687.988 561.261 687.736 561.057C687.381 560.77 687.277 561.029 687.277 562.196ZM605.567 569.934C604.789 570.693 604.523 573.157 605.218 573.157C605.964 573.157 607.753 572.068 608.127 571.386C608.335 571.008 608.505 570.365 608.505 569.958C608.505 568.958 606.584 568.943 605.567 569.934ZM602.629 574.768C602.629 575.064 602.795 575.306 602.997 575.306C603.199 575.306 603.364 575.064 603.364 574.768C603.364 574.473 603.199 574.231 602.997 574.231C602.795 574.231 602.629 574.473 602.629 574.768ZM599.088 575.847C598.836 576.488 599.564 577.454 600.299 577.454C601.03 577.454 601.328 576.472 600.789 575.838C600.205 575.151 599.36 575.156 599.088 575.847ZM592.257 576.469C592.004 577.14 592.34 577.812 592.928 577.812C593.239 577.812 593.449 577.45 593.449 576.917C593.449 575.987 592.564 575.655 592.257 576.469ZM621.807 577.295C620.662 578.078 620.72 579.522 621.908 579.813C622.413 579.937 623.074 579.945 623.377 579.831C624.141 579.546 624.118 577.243 623.348 576.955C622.612 576.68 622.755 576.648 621.807 577.295ZM617.02 588.989C616.461 589.535 616.463 590.441 617.025 590.99C617.727 591.674 618.321 591.491 618.509 590.533C618.727 589.417 617.688 588.338 617.02 588.989ZM589.1 594.036C588.601 594.623 588.9 595 589.864 595C590.321 595 590.523 594.792 590.446 594.403C590.288 593.608 589.62 593.426 589.1 594.036Z" fill="#F0444A"/>
</svg>
