<svg width="252" height="12" viewBox="0 0 252 12" fill="none" xmlns="http://www.w3.org/2000/svg">
<path d="M228.324 0.479C228.471 0.594 228.728 0.503 228.895 0.276L228.915 0.301C229.129 0.567 229.306 0.191 229.386 0.257C229.67 0.5 229.862 0.475 230.173 0.27C230.254 0.215 230.633 0.522 230.9 0.569L231.098 0.605C231.35 0.521 231.72 0.478 231.921 0.51C232.121 0.541 232.944 0.693 233.307 0.768L233.593 0.53C233.627 0.501 233.725 0.497 233.778 0.513C234.121 0.625 234.458 0.832 234.8 0.835L235.075 0.838C235.338 0.655 235.522 0.791 235.485 1.143L236.012 0.733L236.453 0.39C236.885 0.55 237.474 0.605 237.764 0.512C238.054 0.418 238.925 0.863 239.234 0.84C239.545 0.818 240.585 1.136 240.897 1.2L240.876 0.822001C240.875 0.800001 241.067 0.732 241.101 0.754L241.505 1.014C241.993 0.935 242.54 0.984 242.719 1.125C242.898 1.265 243.531 0.967 243.689 1.037C243.847 1.107 244.448 1.213 244.656 1.11C244.863 1.006 246.02 1.04 246.674 1.062L247.24 1.297C247.424 1.375 247.777 1.14 248.062 1.113L248.268 1.092C248.511 1.157 248.794 1.159 248.899 1.097L248.911 1.107L249.431 1.521C250.051 1.301 250.631 1.347 250.722 1.623C250.813 1.898 251.308 2.553 251.432 2.534C251.556 2.514 251.895 2.526 251.917 2.601C251.939 2.677 251.79 2.965 251.586 3.074C251.383 3.182 251.361 4.056 251.035 4.513L251.145 5.081L251.171 5.212C251.159 5.416 251.08 5.532 250.996 5.47C250.912 5.409 250.687 5.405 250.609 5.545L250.614 5.547C251.18 5.776 250.51 6.159 250.779 6.42C250.81 6.451 250.809 6.541 250.777 6.57L250.347 6.951C250.33 7.24 249.867 7.558 249.319 7.658L248.833 7.289L248.753 7.227C248.436 7.359 247.925 7.473 247.616 7.483C247.307 7.492 246.27 7.412 245.983 7.471L245.718 7.475L245.458 7.479C245.179 7.429 244.851 7.386 244.729 7.382C244.607 7.379 244.151 7.353 244.004 7.395C243.856 7.437 242.872 7.473 242.152 7.47C241.432 7.466 239.198 7.453 238.784 7.404C238.371 7.355 237.265 7.7 237.168 7.7L237.078 7.706L236.534 7.747C235.949 7.647 235.249 7.625 234.978 7.696C234.707 7.766 233.828 7.548 233.601 7.58C233.376 7.61 232.575 7.67 232.306 7.611C232.037 7.551 230.72 7.687 230.084 7.705H229.498C228.911 7.705 228.325 7.706 227.739 7.705C227.378 7.705 226.812 7.818 226.698 7.681C226.432 7.362 226.077 7.81 225.879 7.528C225.841 7.473 225.628 7.472 225.506 7.49C225.233 7.529 224.835 7.713 224.721 7.629L224.33 7.34C224.041 7.545 223.642 7.651 223.445 7.574C223.247 7.497 222.814 7.451 222.58 7.382C222.346 7.315 221.631 7.584 221.428 7.475C221.226 7.366 220.515 7.734 220.291 7.776C220.067 7.817 219.223 7.469 218.803 7.395L218.357 7.667L218.039 7.861C217.415 7.77 216.798 7.648 216.668 7.591C216.538 7.534 215.943 7.456 215.624 7.404C215.304 7.351 214.075 7.833 213.514 8.042L213.119 7.495C213.084 7.446 212.806 7.438 212.737 7.493C212.306 7.833 211.812 7.26 211.37 7.576C211.23 7.676 210.963 7.714 210.766 7.695C210.392 7.658 210.028 7.505 209.659 7.5L209.337 7.498C208.987 7.596 208.535 7.658 208.334 7.633C208.132 7.609 207.409 7.595 207.239 7.515C207.068 7.436 206.405 7.735 206.184 7.818C205.964 7.902 205.375 7.554 205.162 7.639C204.948 7.725 203.993 7.66 203.607 7.599L203.257 7.598C202.916 7.598 202.573 7.703 202.233 7.697L201.6 7.686C200.909 7.605 199.788 7.549 199.109 7.563L198.54 7.721L198.042 7.86C197.532 7.756 196.637 7.686 196.052 7.705H190.639C190.098 7.705 189.556 7.689 189.016 7.71L188.679 7.724C188.312 7.804 187.957 7.879 187.891 7.891C187.825 7.903 187.321 7.837 186.912 7.769C186.503 7.702 184.209 7.87 184.045 7.816C183.88 7.762 183.424 7.779 183.256 7.755C183.088 7.733 182.252 7.908 181.818 7.925H174.783C174.338 7.93 173.016 7.964 171.845 8.001C170.674 8.038 167.226 8.281 166.782 8.435L166.65 8.337L166.314 8.089C166.087 8.247 165.627 8.241 165.294 8.078L164.878 8.34C164.653 8.482 164.18 8.366 163.82 8.366H163.234C162.591 8.357 161.84 8.403 161.566 8.467C161.293 8.531 160.318 8.286 160.027 8.117L159.82 8.379L159.52 8.761C159.283 8.547 158.82 8.41 158.492 8.456C158.165 8.5 157.09 8.568 156.835 8.55C156.58 8.534 155.572 8.691 155.106 8.625L154.68 8.593L154.233 8.56C153.736 8.577 153.115 8.644 152.854 8.709C152.594 8.775 151.829 8.82 151.421 8.98L150.947 8.831C150.554 8.708 150.056 8.805 149.606 8.805H149.155C148.66 8.811 148.044 8.903 147.787 9.009H147.32C147.066 8.906 145.981 8.845 144.909 8.874C143.836 8.903 140.867 9.196 140.691 9.42L140.369 9.098C140.296 9.024 139.863 9.211 139.589 9.24L139.323 9.268C139.028 9.263 138.575 9.129 138.317 8.97C138.059 8.81 137.13 9.235 136.833 9.238C136.537 9.241 135.511 9.242 135.214 9.238C134.916 9.233 133.853 9.308 133.511 9.376L133.201 9.377C132.91 9.379 132.614 9.243 132.327 9.256L131.768 9.284C131.157 9.263 130.22 9.255 129.686 9.266C129.153 9.278 127.566 9.503 127.236 9.439L126.937 9.424L126.504 9.403C126.03 9.457 125.445 9.457 125.205 9.403C124.965 9.348 124.146 9.679 123.824 9.715C123.501 9.75 122.315 9.709 121.943 9.715C121.571 9.721 119.963 9.722 119.19 9.775C118.417 9.829 115.727 9.907 114.933 9.916C114.139 9.924 111.914 9.956 111.75 10.037C111.586 10.119 110.853 9.912 110.639 9.883C110.425 9.855 109.639 10.145 109.262 10.167C108.886 10.19 107.361 10.159 106.74 10.168C106.119 10.178 104.003 10.163 103.404 10.228C102.806 10.293 100.245 10.346 99.0537 10.346H96.8447C95.6037 10.344 94.3217 10.349 93.9937 10.358L93.7487 10.562C93.5177 10.754 93.3147 10.137 92.9937 10.522L92.9287 10.6C92.6387 10.552 92.2197 10.578 91.9977 10.657C91.7747 10.736 90.9297 10.445 90.4257 10.557L89.9627 10.559L86.4447 10.574C82.5757 10.575 79.0067 10.497 78.5137 10.399L78.1367 10.736L78.0797 10.788C77.9187 10.765 77.5557 10.714 77.2737 10.674C76.9917 10.635 76.1687 10.648 76.0687 10.724C75.9697 10.8 75.5367 10.625 75.4177 10.671C75.2997 10.717 74.7327 10.754 74.4517 10.729L74.1957 10.7L72.9697 10.771L72.7007 10.777C72.4067 10.779 72.1167 10.707 72.0577 10.616C71.9987 10.525 71.4457 10.71 71.1877 10.718L70.9467 10.693C70.8287 10.68 70.6777 10.547 70.6137 10.577L69.6907 10.991C68.6187 10.874 66.8487 10.782 65.7587 10.787H62.2857C61.6467 10.803 60.8747 10.777 60.5677 10.729C60.2617 10.681 59.1657 11.132 58.6887 11.286L58.3717 10.831C58.3337 10.776 58.0837 10.75 58.0047 10.795L57.5527 11.053C57.0467 10.943 56.2087 10.902 55.6907 10.961L55.2207 10.998C54.6837 11.039 54.1387 11.007 53.5977 11.007H46.8787C46.3337 11.012 45.5517 10.966 45.1397 10.906C44.7287 10.845 43.5577 11.162 43.4097 11.11C43.2617 11.058 42.3417 10.993 41.7037 10.962C41.0657 10.931 39.2167 11.195 38.9907 11.185C38.7647 11.174 38.0647 11.166 37.9007 11.069C37.7367 10.973 36.9967 11.222 36.7837 11.25C36.5707 11.278 35.8707 11.062 35.5957 11.128C35.3217 11.196 34.3737 11.245 34.1167 11.279C33.8587 11.313 33.0117 11.092 32.8187 11.133C32.6257 11.173 31.6947 11.215 31.1987 11.212C30.7027 11.209 28.6817 11.165 27.8097 11.082L27.0657 11.438L26.9307 11.502C26.7197 11.466 26.1877 11.446 25.7517 11.458L25.0157 11.09C24.6837 11.269 24.1707 11.375 23.8747 11.328L23.5407 11.423L23.1797 11.528C22.7147 11.481 22.1707 11.47 21.9717 11.504C21.7727 11.539 20.3217 11.222 19.0857 11.145L18.0527 11.637L17.6847 11.813C17.2737 11.73 16.7157 11.666 16.4427 11.669C16.1707 11.673 15.2337 11.68 14.9667 11.7C14.6997 11.719 14.0697 11.595 13.9587 11.634C13.8467 11.672 13.2257 11.68 12.8797 11.674C12.5327 11.669 11.3837 11.647 11.0967 11.622C10.8107 11.596 9.95874 11.666 9.71674 11.598C9.47374 11.531 8.92074 11.838 8.84974 11.779C8.78074 11.719 8.45474 11.572 8.36274 11.653C8.27074 11.734 7.71373 11.879 7.41973 11.887H7.14874C6.65274 11.887 6.15674 11.885 5.66074 11.888L5.38573 11.89C5.26173 11.713 5.12073 11.568 5.07073 11.567C5.02073 11.567 4.87774 11.644 4.86274 11.741C4.84674 11.837 4.14474 11.835 3.67374 11.772L3.24374 11.769L2.91074 11.766C2.51774 11.756 2.25774 11.732 2.33074 11.71C2.40274 11.69 2.54773 11.514 2.43473 11.382C2.32273 11.25 2.25573 10.754 2.30573 10.595C2.35673 10.436 2.39573 9.951 2.23473 9.951C2.07373 9.951 1.71174 10.002 1.74374 10.066C1.77574 10.128 1.78974 10.302 1.70974 10.325C1.62874 10.347 1.37974 10.229 1.23374 10.114C1.08974 10 0.380746 9.757 0.240746 9.627C0.101746 9.498 -0.153259 8.963 0.123741 8.904C0.400741 8.843 0.717733 9.539 0.902733 9.675H1.13274C1.21174 9.676 1.31574 9.563 1.36274 9.484L1.38874 9.439C1.33774 9.359 1.23774 9.313 1.16874 9.336C1.09774 9.36 0.871742 9.356 0.871742 9.257C0.871742 9.158 1.09973 8.83 1.37873 8.762C1.65673 8.696 2.45474 8.395 2.45474 8.263C2.45474 8.131 2.55275 7.715 2.67175 7.863C2.79075 8.011 3.26674 8.254 3.45974 8.071L3.52474 7.903C3.60974 7.678 3.66773 7.728 3.84873 7.833L3.97573 7.907C4.17673 7.916 4.71274 7.926 5.16674 7.931C5.62074 7.935 6.70874 7.572 6.60874 7.532C6.50874 7.493 6.84974 7.241 7.58674 7.059L8.38274 7.351C8.53374 7.407 8.69374 7.461 8.85574 7.478L8.97173 7.49C9.16973 7.435 9.23474 7.282 9.11674 7.149C8.99974 7.015 8.80374 6.635 8.94274 6.597L9.05874 6.612C9.19474 6.628 9.37073 6.77 9.44173 6.736L9.89375 6.52C10.1727 6.777 10.4887 6.998 10.5967 7.011C10.7057 7.024 11.1497 7.001 11.0447 6.905C10.9377 6.808 11.0467 6.579 11.2677 6.41C11.4897 6.24 12.3167 6.207 12.4697 6.222C12.6247 6.239 13.2487 6.204 13.4737 6.231C13.7007 6.257 14.3727 6.208 14.6857 6.293C14.9987 6.378 15.6277 5.814 15.7977 5.833C15.9677 5.85 16.2837 6.173 16.3147 6.212C16.3457 6.251 16.4697 6.298 16.5217 6.23L16.5227 6.167L16.5307 5.565C17.0527 5.656 17.7567 5.848 18.0927 5.993L18.5147 5.79L18.8957 5.606C19.4227 5.549 20.0307 5.434 20.2477 5.35C20.4647 5.265 20.9877 5.625 21.0887 5.59L21.1777 5.435C21.2947 5.401 21.6127 5.429 21.8847 5.498L22.1337 5.496L22.4997 5.492C22.8867 5.41 23.3317 5.319 23.4897 5.29C23.6477 5.26 24.3457 5.228 24.6477 5.195C24.9487 5.163 26.0057 5.101 26.3237 5.147C26.6417 5.193 27.6767 4.875 27.9897 4.846C28.3027 4.818 29.2117 4.971 29.3567 4.878C29.5017 4.786 30.0797 4.971 30.2207 4.877C30.3627 4.783 30.8527 4.966 30.9407 4.895C31.0287 4.824 31.3527 4.695 31.4577 4.775C31.5617 4.855 31.9697 5.014 32.1517 4.964C32.3337 4.916 33.0437 4.872 33.3277 4.895C33.6107 4.919 34.4607 4.831 34.6727 4.849C34.8837 4.868 35.5537 4.788 35.7097 4.729C35.8647 4.67 36.5007 4.593 36.7937 4.538C37.0857 4.482 37.9487 4.873 38.1347 4.931C38.3187 4.99 38.5387 4.521 38.6377 4.479L38.6927 4.502L39.1147 4.688C39.5427 4.551 39.9307 4.42 39.9767 4.397L40.0077 4.406C40.2427 4.474 40.5087 4.644 40.6997 4.599L40.9287 4.545C41.1297 4.585 41.3897 4.56 41.5097 4.49C41.6277 4.418 42.2017 4.482 42.4567 4.572L42.6977 4.616L42.8617 4.645C43.0527 4.611 43.4237 4.566 43.6857 4.545C43.9477 4.526 44.8867 4.541 45.2267 4.72L45.6277 4.426C45.8557 4.259 46.3247 4.535 46.6267 4.264C46.6547 4.239 46.8697 4.369 47.0067 4.4L47.6057 4.54C48.2687 4.464 48.9337 4.321 49.0837 4.221C49.2337 4.122 49.7787 4.298 49.8997 4.182C50.0197 4.067 50.4957 4.363 50.5737 4.389C50.6527 4.416 51.0117 4.438 51.2817 4.492C51.5517 4.545 52.5537 4.305 53.0347 4.26L53.3867 4.553L53.4387 4.597C53.5857 4.625 53.8067 4.552 53.9307 4.434C54.0547 4.317 54.3777 4.223 54.5817 4.195C54.7867 4.167 55.7737 4.242 56.3057 4.338L56.7297 3.977C56.8377 3.885 57.1967 4.021 57.3827 3.951L57.8007 3.793C58.1607 3.962 58.5767 4.113 58.7247 4.129C58.8737 4.146 59.4227 4.035 59.6227 4.101L59.8027 4.185C60.0367 4.292 60.1467 3.765 60.4447 4.109C60.4727 4.142 60.7787 3.975 60.9577 3.972L61.2097 3.969C61.4817 4.032 61.7847 4.106 61.8817 4.134C61.9777 4.164 62.5727 4.091 62.9327 4.115C63.2937 4.139 64.2347 3.792 64.3317 3.833C64.4277 3.874 64.9127 4.101 65.1667 4.275L65.4177 3.936L65.7987 3.42C66.3557 3.636 67.0697 3.865 67.3847 3.928C67.6987 3.991 68.7547 3.738 68.9987 3.647C69.2427 3.556 69.9127 3.551 70.1527 3.496L70.3097 3.589L70.4847 3.692C70.6347 3.854 70.9167 3.854 71.1127 3.694L71.2747 3.567L71.3027 3.544C71.3987 3.513 71.5737 3.552 71.6907 3.632C71.8077 3.711 72.2387 3.861 72.3627 3.772C72.4877 3.682 73.5107 3.685 73.7127 3.736C73.9157 3.786 74.3907 3.755 74.5877 3.799C74.7847 3.843 75.2237 3.737 75.3877 3.748C75.5517 3.758 76.1407 3.686 76.3467 3.586C76.5537 3.486 77.4397 3.791 77.8557 3.848L78.1257 3.527C78.1537 3.493 78.2997 3.513 78.3867 3.524L78.9367 3.594C79.5397 3.665 80.2627 3.614 80.5437 3.481C80.8247 3.348 81.8717 3.712 82.2277 3.704L82.5137 3.64L82.7797 3.581C83.0757 3.572 83.5567 3.513 83.8497 3.451C84.1427 3.388 84.9187 3.738 85.0187 3.763L85.0887 3.739L85.8817 3.448C86.7987 3.489 87.7367 3.518 87.9677 3.513C88.1967 3.508 89.0527 3.577 89.4157 3.789L89.7277 3.333L89.8657 3.131C90.2507 3.229 90.6537 3.402 90.7617 3.515C90.8697 3.628 91.4507 3.334 91.6077 3.301C91.7647 3.268 92.2617 3.5 92.4147 3.52L92.4847 3.468L92.8607 3.193C93.2277 3.356 93.7407 3.52 93.9997 3.558C94.2587 3.596 94.9947 3.427 95.1757 3.345C95.3547 3.264 95.9757 3.431 96.0707 3.406C96.1657 3.379 96.5057 3.226 96.6087 3.133C96.7127 3.041 97.1137 3.189 97.2117 3.08L97.5147 3.204L97.8497 3.34C98.3507 3.26 99.0217 3.14 99.3417 3.075C99.6607 3.008 100.506 3.185 100.648 3.157C100.791 3.127 101.374 3.198 101.638 3.27L101.885 3.29L101.974 3.296C102.113 3.163 102.253 3.159 102.286 3.29C102.319 3.42 102.582 3.743 102.779 3.64C102.976 3.538 103.598 3.25 103.76 3.182C103.921 3.115 105.05 3.103 105.249 3.14C105.447 3.176 106.093 2.905 106.341 2.882C106.59 2.859 107.433 2.896 107.649 2.967C107.865 3.04 108.952 2.94 109.512 2.931L109.859 2.751L110.171 2.59C110.366 2.72 110.605 2.885 110.701 2.957C110.796 3.028 111.64 2.892 112.072 2.78C112.504 2.667 113.835 2.696 114.013 2.751C114.192 2.808 114.865 2.812 115.116 2.769C115.368 2.727 116.25 2.665 116.511 2.685C116.772 2.705 117.472 2.531 117.616 2.472C117.76 2.413 118.163 2.634 118.211 2.65L118.246 2.64C118.481 2.571 118.709 2.453 118.948 2.434C119.16 2.418 119.396 2.571 119.599 2.542L119.908 2.497C120.254 2.471 120.72 2.412 120.942 2.366C121.165 2.32 121.681 2.548 121.73 2.452L121.801 2.382L121.852 2.333C121.946 2.305 122.303 2.333 122.644 2.395C122.985 2.457 124.506 2.286 124.763 2.342L124.97 2.427L125.23 2.535C125.444 2.416 125.816 2.381 126.056 2.458L126.231 2.407L126.538 2.317C126.841 2.14 127.233 2.042 127.41 2.1C127.586 2.159 128.246 2.137 128.467 2.07C128.687 2.002 129.136 2.021 129.319 1.991C129.503 1.961 130.014 2.042 130.175 2.087C130.335 2.131 130.803 2.039 130.866 2.107C130.928 2.176 131.325 2.3 131.603 2.225C131.882 2.15 133.518 2.186 134.082 2.167C134.646 2.149 135.698 1.87 135.915 1.818L136.195 1.881L136.735 2.001C137.379 1.988 138.102 1.977 138.344 1.98L138.586 1.891L138.898 1.776C139.31 1.768 139.814 1.8 140.017 1.847C140.221 1.895 140.928 1.798 141.103 1.829L141.266 1.861L141.421 1.89C141.583 1.916 142.14 1.889 142.66 1.833L143.123 1.764L143.516 1.706C143.956 1.654 144.347 1.61 144.386 1.608C144.424 1.606 144.693 1.666 144.933 1.706C145.173 1.746 145.948 1.79 146.148 1.846C146.348 1.903 146.849 2.094 146.919 1.996C146.988 1.896 147.334 1.777 147.48 1.772C147.626 1.766 148.158 1.53 148.463 1.514C148.767 1.5 149.97 1.479 150.448 1.458C150.927 1.437 152.377 1.557 152.595 1.595C152.812 1.633 153.449 1.385 153.595 1.43C153.742 1.475 154.016 1.467 154.112 1.495C154.207 1.522 154.906 1.406 155.478 1.28L156.01 1.333L156.398 1.371C156.72 1.234 157.231 1.198 157.534 1.291L157.817 1.309L158.105 1.329C158.426 1.235 158.856 1.27 159.062 1.407C159.269 1.543 160.185 1.055 160.667 0.973L161.07 1.229C161.105 1.25 161.254 1.202 161.299 1.154L161.371 1.079C161.413 0.973 161.579 0.846 161.739 0.796C161.899 0.748 162.46 0.959 162.67 1.014C162.879 1.069 163.66 1.04 163.863 1.09C164.065 1.141 164.507 1.06 164.66 1.041C164.813 1.021 165.509 1.102 165.794 1.149C166.079 1.196 167.079 0.991 167.402 1.052L167.529 0.958C167.936 0.659 168.076 1.173 168.329 1.089L168.592 1.002C168.842 0.827 169.229 0.651 169.453 0.61C169.677 0.57 170.51 0.659 170.727 0.699C170.944 0.738 171.717 0.72 171.925 0.655C172.133 0.588 172.881 0.718 173.082 0.793C173.282 0.87 174.049 0.791 174.452 0.716L174.871 0.86C175.163 0.96 175.588 0.946 175.816 0.633L176.678 0.507C177.573 0.797 178.509 0.738 179.386 0.548C179.726 0.474 180.038 0.95 180.376 0.498C180.479 0.361 181.048 0.429 181.399 0.451L181.596 0.462C181.807 0.552 182.057 0.596 182.154 0.561C182.25 0.525 182.508 0.422 182.706 0.308C182.904 0.194 183.452 0.594001 183.638 0.572001C183.825 0.550001 184.281 0.366 184.371 0.345C184.462 0.325 184.873 0.521 185.073 0.639L185.26 0.64C185.448 0.642 185.631 0.495 185.828 0.445L186.154 0.362C186.495 0.468 186.854 0.577 186.954 0.602C187.053 0.627 187.304 0.541 187.425 0.48C187.544 0.418 187.97 0.565 188.077 0.542L188.157 0.496C188.265 0.431 188.36 0.272 188.445 0.279C188.676 0.297 188.903 0.439 189.123 0.426C189.406 0.411 189.676 0.261 189.961 0.23L190.214 0.204C190.488 0.253 190.889 0.226 191.104 0.142L191.325 0.296L191.47 0.397C191.713 0.413 192.195 0.451 192.542 0.481C192.889 0.512 193.943 0.306 194.172 0.403C194.399 0.499 195.671 0.36 196.478 0.517L197.234 0.233C197.457 0.15 197.813 0.147 198.028 0.237L198.396 0.39C198.745 0.295 199.201 0.126 199.409 0.0150003L199.596 0.0170002C199.783 0.0200002 199.971 0.15 200.152 0.235L200.257 0.285C200.353 0.35 200.97 0.445 201.625 0.494C202.28 0.542 203.935 0.047 203.977 0.066C204.019 0.085 204.1 0.172 204.155 0.212C204.211 0.252 204.72 0.202 205.019 0.16C205.319 0.118 206.333 0.0390004 206.605 0.0670004C206.878 0.0950004 207.78 0.366 208.006 0.459C208.232 0.554 208.958 0.323 209.134 0.441C209.31 0.558 210.119 0.147 210.483 0L210.894 0.324L211.073 0.464C211.613 0.333 212.462 0.215 212.959 0.204L213.408 0.225L213.875 0.248C214.378 0.352 215.055 0.281 215.381 0.0880003L215.813 0.391C216.148 0.625 216.537 -0.0429999 216.987 0.281C217.362 0.551 217.692 0.496 218.015 0.223C218.037 0.205 218.109 0.208 218.146 0.222L218.453 0.333C218.792 0.37 219.177 0.43 219.308 0.466C219.44 0.503 220.046 0.292 220.336 0.23L220.586 0.241L221.101 0.262C221.667 0.252 222.613 0.228 223.204 0.208L223.745 0.225L224.083 0.235C224.451 0.321 224.905 0.414 225.092 0.442C225.277 0.47 225.736 0.336 225.883 0.295C226.029 0.254 226.498 0.449 226.627 0.467L226.646 0.437L226.924 0.0220003C227.244 0.246 228.178 0.363 228.324 0.479Z" fill="#F0444A"/>
</svg>
