<svg width="714" height="600" viewBox="0 0 714 600" fill="none" xmlns="http://www.w3.org/2000/svg">
<path fill-rule="evenodd" clip-rule="evenodd" d="M396.988 0.613622C397.055 1.06679 397.3 1.50046 397.533 1.57701C397.804 1.66548 397.887 1.44448 397.762 0.967846C397.484 -0.0912291 396.842 -0.385512 396.988 0.613622ZM627.68 27.1093C627.75 27.4404 627.969 27.7029 628.168 27.6924C628.705 27.6639 628.607 26.8562 628.043 26.6688C627.738 26.5677 627.603 26.7327 627.68 27.1093ZM525.495 31.1087C525.495 31.4091 525.653 31.9374 525.845 32.2822C526.037 32.6271 526.552 33.7761 526.99 34.8355C527.426 35.895 529.07 38.576 530.642 40.7935C532.214 43.0109 534.207 46.2875 535.071 48.0748C537.099 52.2703 538.539 54.1982 540.325 55.1064C541.116 55.509 541.924 55.8383 542.121 55.8383C543.022 55.8383 540.572 49.859 537.279 44.022C533.989 38.1904 527.787 30.562 526.336 30.562C525.827 30.562 525.495 30.7776 525.495 31.1087ZM392.609 33.2381C392.306 33.602 392.298 33.8172 392.58 33.9913C393.061 34.2874 394.103 33.4977 393.825 33.0488C393.537 32.5856 393.095 32.6545 392.609 33.2381ZM557.212 47.9582C557.628 50.8318 558.134 52.3039 559.004 53.1716C560.902 55.0641 561.135 53.5269 559.585 49.3387C558.795 47.205 558.413 46.6059 557.784 46.5139C557.039 46.4052 557.001 46.4998 557.212 47.9582ZM464.924 48.5042C464.575 48.5952 464.29 48.7093 464.29 48.758C464.29 49.6965 465.68 53.0196 466.383 53.762C467.505 54.9471 468.14 55.0218 468.463 54.0068C468.791 52.977 468.396 51.6049 467.251 49.7908C466.289 48.2677 466.143 48.1868 464.924 48.5042ZM450.78 51.4846C450.887 51.893 451.131 52.2274 451.321 52.2274C451.802 52.2274 451.53 51.0556 451.009 50.8827C450.74 50.7931 450.656 51.0119 450.78 51.4846ZM531.99 56.1091C534.407 61.5576 534.843 62.3596 536.129 63.7227C537.81 65.5036 541.435 67.1949 541.427 66.1943C541.42 65.3277 539.67 62.088 537.979 59.8103C537.021 58.5194 535.599 56.5998 534.821 55.5443C533.481 53.7291 531.615 52.2317 530.689 52.2288C530.451 52.2281 531.018 53.9151 531.99 56.1091ZM176.01 71.1546C176.01 71.4691 176.268 71.7262 176.583 71.7262C177.223 71.7262 177.112 70.9488 176.44 70.7256C176.204 70.6469 176.01 70.8401 176.01 71.1546ZM202.81 83.5862C202.81 84.3914 203.905 85.4476 204.74 85.4476C205.564 85.4476 205.502 84.521 204.621 83.6422C203.714 82.7376 202.81 82.7095 202.81 83.5862ZM373.992 83.5219C373.551 83.9603 373.741 84.3452 374.293 84.134C374.592 84.0195 374.836 83.7808 374.836 83.6035C374.836 83.2251 374.337 83.1767 373.992 83.5219ZM288.417 92.105C286.927 92.7514 286.107 93.9776 286.107 95.5581C286.107 97.17 286.939 98.3779 288.497 99.0267C292.674 100.766 296.576 97.1671 294.614 93.3843C294.313 92.8044 293.754 92.1624 293.37 91.9581C292.4 91.4403 289.769 91.5182 288.417 92.105ZM338.983 104.946C338.983 105.145 339.136 105.308 339.323 105.308C339.511 105.308 339.765 105.145 339.888 104.946C340.011 104.748 339.857 104.585 339.547 104.585C339.237 104.585 338.983 104.748 338.983 104.946ZM520.339 106.009C517.333 106.967 514.752 108.721 514.288 110.122C514.078 110.756 513.116 112.249 512.15 113.44C509.732 116.42 509.198 117.581 509.198 119.865C509.198 123.866 513.648 130.221 517.894 132.282C521.761 134.161 526.242 134.647 530.486 133.649C533.539 132.932 535.392 131.938 537.655 129.804C540.406 127.21 541.24 125.126 541.245 120.834C541.249 117.718 541.143 117.18 540.087 114.958C536.647 107.716 527.701 103.662 520.339 106.009ZM388.598 108.828C388.597 109.176 387.8 110.876 386.827 112.606C384.546 116.661 384.252 117.556 384.256 120.437C384.259 122.175 384.49 123.314 385.11 124.641C386.867 128.402 390.157 129.054 394.018 126.407C395.031 125.711 396.242 124.998 396.707 124.822C397.3 124.597 397.671 124.035 397.951 122.938C398.169 122.079 399.086 120.157 399.986 118.668C400.887 117.178 401.627 115.753 401.63 115.501C401.64 114.798 400.07 112.507 398.511 110.947C396.441 108.877 394.722 108.214 391.405 108.204C388.971 108.197 388.599 108.28 388.598 108.828ZM375.199 113.776C375.199 114.76 376.051 116.169 376.582 116.064C377.62 115.86 377.942 114.801 377.21 113.995C376.432 113.138 375.199 113.004 375.199 113.776ZM523.308 114.764C524.051 115.559 524.259 116.14 523.798 116.14C523.437 116.14 521.874 114.623 521.874 114.272C521.874 113.728 522.56 113.963 523.308 114.764ZM505.582 120.564C505.59 121.638 506.12 122.433 506.622 122.123C507.154 121.796 507.136 120.729 506.591 120.184C505.932 119.528 505.576 119.662 505.582 120.564ZM523.38 120.836C524.447 121.9 524.587 122.641 523.772 122.912C523.426 123.027 521.512 120.509 521.512 119.939C521.512 119.434 522.404 119.863 523.38 120.836ZM570.675 124.529C569.549 124.91 569.322 125.89 570.359 125.89C571.097 125.89 571.997 125.026 571.796 124.512C571.724 124.329 571.244 124.337 570.675 124.529ZM521.604 127.175C521.697 127.66 521.642 128.056 521.482 128.056C521.014 128.056 520.063 126.514 520.063 125.753C520.063 125.091 520.098 125.087 520.749 125.675C521.127 126.015 521.512 126.691 521.604 127.175ZM187.095 135.849C186.974 136.163 186.875 137.034 186.875 137.785C186.875 138.835 186.597 139.443 185.666 140.427C183.476 142.742 182.382 146.098 181.987 151.708L181.759 154.957L185.591 158.749L189.423 162.54H194.215C198.729 162.54 199.138 162.48 201.261 161.502C206.607 159.041 209.691 153.587 209.691 146.597V143.624L206.16 140.037C202.927 136.753 202.467 136.417 200.71 136.045C198.11 135.495 195.217 135.555 194.118 136.181C192.839 136.91 191.065 136.842 189.41 136C187.697 135.128 187.38 135.108 187.095 135.849ZM506.467 137.469C506.336 137.68 506.315 137.94 506.421 138.046C506.681 138.305 507.387 137.849 507.387 137.423C507.387 136.962 506.762 136.992 506.467 137.469ZM540.61 137.999C539.758 138.849 539.026 140.583 539.373 140.93C539.637 141.193 543.028 140.314 543.875 139.763C544.819 139.15 544.968 137.628 544.117 137.303C542.887 136.832 541.506 137.106 540.61 137.999ZM669.272 137.988C668.853 139.089 668.814 139.755 669.149 140.089C669.593 140.532 670.36 139.528 670.36 138.505C670.36 137.127 669.717 136.821 669.272 137.988ZM551.472 138.385C551.078 138.778 551.555 139.25 552.347 139.25C552.772 139.25 553.017 139.06 552.929 138.799C552.757 138.283 551.837 138.022 551.472 138.385ZM558.32 139.118C557.795 139.642 557.365 140.201 557.365 140.361C557.365 141.456 560.076 140.767 560.455 139.575C560.962 137.984 559.723 137.719 558.32 139.118ZM452.52 139.306C450.78 140.254 450.266 142.139 451.747 142.139C452.97 142.139 454.512 140.815 454.512 139.765C454.512 138.799 453.765 138.627 452.52 139.306ZM297.696 143.944C297.696 144.822 298.961 144.943 299.287 144.095C299.611 143.253 299.587 143.222 298.602 143.222C297.938 143.222 297.696 143.414 297.696 143.944ZM530.028 148.269C529.431 149.232 529.407 152.318 529.985 153.827C530.665 155.601 531.361 156.353 532.849 156.917C533.802 157.278 533.895 157.225 534.387 156.051C535.503 153.389 534.847 149.754 533.022 148.48C532.121 147.85 530.363 147.727 530.028 148.269ZM466.6 149.157C464.271 150.168 463.577 152.655 465.179 154.251C467.143 156.21 471.128 154.559 471.16 151.774C471.176 150.311 470.625 149.493 469.314 149.037C467.923 148.554 467.998 148.551 466.6 149.157ZM398.517 153.399C398.644 154.031 399.025 154.855 399.365 155.228C399.95 155.874 400.004 155.876 400.447 155.273C400.703 154.924 400.912 154.426 400.912 154.166C400.912 153.502 399.58 152.249 398.875 152.249C398.407 152.249 398.333 152.484 398.517 153.399ZM525.198 153.395C525.369 154.55 526.22 154.674 526.22 153.543C526.22 152.936 526.021 152.61 525.651 152.61C525.274 152.61 525.122 152.873 525.198 153.395ZM506.301 157.742C504.621 158.113 502.132 159.721 500.457 161.517C499.015 163.063 494.518 169.927 493.121 172.715C489.227 180.486 490.197 186.014 495.979 188.999C498.387 190.243 503.191 190.525 506.663 189.628C509.876 188.797 515.69 186.609 516.843 185.797C518.016 184.971 520.011 181.215 521.428 177.164C523.31 171.786 523.354 167.89 521.56 165.297C520.609 163.923 515.432 159.135 513.602 157.938C512.513 157.226 509.056 157.133 506.301 157.742ZM234.466 161.412C234.335 161.752 234.333 162.134 234.46 162.261C234.588 162.388 234.885 162.3 235.121 162.065C235.448 161.739 235.449 161.537 235.127 161.216C234.804 160.895 234.647 160.941 234.466 161.412ZM321.116 162.239C320.655 162.699 320.878 164.478 321.472 165.07C321.83 165.427 322.373 165.584 322.83 165.462C323.248 165.35 323.703 165.256 323.84 165.253C323.977 165.251 323.84 164.517 323.535 163.623C323.098 162.346 322.806 161.999 322.168 161.999C321.722 161.999 321.249 162.107 321.116 162.239ZM574.749 163.318C573.913 163.652 572.576 164.962 572.576 165.447C572.576 166.017 575.859 167.415 577.198 167.415C578.318 167.415 579.819 166.141 579.819 165.191C579.819 163.841 576.505 162.616 574.749 163.318ZM438.104 166.458C438.001 166.727 436.787 167.688 435.407 168.595C432.08 170.78 431.171 171.941 430.075 175.398C428.939 178.986 428.756 180.657 429.523 180.443C429.821 180.36 431.502 180.271 433.257 180.245C436.129 180.203 436.568 180.103 437.652 179.24C438.789 178.336 438.858 178.15 438.871 175.967C438.878 174.694 439.046 173.021 439.245 172.249C440.029 169.196 440.113 167.193 439.483 166.565C438.759 165.843 438.353 165.812 438.104 166.458ZM189.414 166.869C188.86 167.535 189.137 168.327 190.106 168.844C191.164 169.408 192.504 168.095 191.941 167.046C191.488 166.202 190.052 166.102 189.414 166.869ZM222.868 167.247C221.703 167.838 220.918 169.08 220.918 170.333C220.918 170.727 221.316 171.833 221.803 172.791L222.688 174.532L220.816 175.397C218.17 176.619 214.662 180.156 213.348 182.926C211.726 186.346 211.278 189.506 211.791 193.917C212.024 195.924 212.309 197.898 212.424 198.304C212.624 199.006 212.474 199.045 209.397 199.087C206.629 199.126 205.49 199.355 201.535 200.666L196.909 202.2L195.604 204.392C194.886 205.598 193.688 207.19 192.941 207.929C192.15 208.712 191.583 209.622 191.583 210.11C191.583 210.57 191.098 212.08 190.506 213.464C189.914 214.849 189.425 216.469 189.419 217.065C189.393 219.64 190.583 225.806 191.411 227.384C191.888 228.293 192.387 229.714 192.52 230.543C192.693 231.618 192.936 232.05 193.371 232.05C193.706 232.05 194.907 232.619 196.041 233.314C197.174 234.009 199.008 235.133 200.114 235.812C202.997 237.581 206.108 238.076 210.689 237.498C212.63 237.253 215.196 237.001 216.391 236.939C218.508 236.828 218.583 236.789 219.288 235.424C219.687 234.654 221.153 232.885 222.548 231.493C225.982 228.066 227.799 224.921 227.799 222.407C227.799 220.041 228.271 219.687 232.455 218.913C235.273 218.392 236.491 217.892 236.491 217.254C236.491 217.109 235.28 216.888 233.799 216.763C230.117 216.453 228.37 215.706 227.614 214.117C226.927 212.673 227.141 211.182 228.082 210.868C231.41 209.756 238.254 206.811 240.241 205.637C242.858 204.09 245.545 201.619 245.545 200.761C245.545 200.481 246.051 198.591 246.668 196.561C247.868 192.622 248.218 188.425 247.457 187.095C247.135 186.53 247.16 186.246 247.571 185.793C248.166 185.138 247.897 184.025 247.144 184.025C246.022 184.025 245.432 182.308 245.653 179.684C245.852 177.32 245.808 177.118 244.89 176.142C244.354 175.573 243.388 174.446 242.743 173.638C241.154 171.647 240.243 171.519 235.737 172.658C231.533 173.721 230.026 173.64 228.664 172.282C227.986 171.606 227.799 171.034 227.799 169.642C227.799 168.624 227.598 167.698 227.328 167.475C226.463 166.759 224.071 166.637 222.868 167.247ZM270.023 169.169C269.708 169.676 270.192 170.718 270.669 170.56C271.205 170.382 271.197 169.139 270.658 168.961C270.427 168.884 270.142 168.978 270.023 169.169ZM345.688 170.286C345.42 171.128 346.324 173.014 347.147 173.329C348.14 173.709 349.123 173.578 349.123 173.066C349.123 170.592 346.314 168.319 345.688 170.286ZM183.433 172.515C183.684 174.853 183.67 174.91 182.638 175.643C180.942 176.847 179.555 179.78 179.353 182.587C179.023 187.196 181.113 190.726 184.721 191.648C186.099 192 186.569 192.317 186.901 193.116C187.438 194.407 187.746 194.397 188.743 193.052C189.185 192.456 189.816 191.969 190.145 191.969C190.474 191.969 191.726 191.479 192.929 190.88C196.392 189.155 198.102 185.984 198.102 181.289C198.102 179.071 198.066 178.989 196.236 176.992C193.767 174.298 192.248 173.553 189.228 173.553C186.884 173.553 186.813 173.524 185.011 171.844L183.178 170.134L183.433 172.515ZM419.382 173.18C419.382 173.57 419.888 174.464 420.506 175.166C421.432 176.217 421.879 176.442 423.041 176.442C423.818 176.442 424.452 176.353 424.452 176.244C424.452 175.658 423.255 173.88 422.419 173.224C421.148 172.228 419.382 172.202 419.382 173.18ZM499.782 177.366C499.782 177.653 499.619 177.886 499.42 177.886C499.221 177.886 499.058 177.552 499.058 177.143C499.058 176.734 499.221 176.5 499.42 176.623C499.619 176.745 499.782 177.08 499.782 177.366ZM507.387 177.719C507.387 177.811 507.061 177.886 506.663 177.886C506.253 177.886 505.939 177.646 505.939 177.332C505.939 176.89 506.085 176.856 506.663 177.164C507.061 177.377 507.387 177.627 507.387 177.719ZM504.472 184.498C504.505 185.039 503.765 184.348 503.263 183.37C502.99 182.837 502.668 181.831 502.548 181.136C502.362 180.064 502.489 180.2 503.392 182.039C503.976 183.231 504.462 184.337 504.472 184.498ZM500.868 184.038C500.868 184.946 500.28 184.952 499.795 184.049C499.184 182.911 499.314 182.499 500.144 182.942C500.542 183.154 500.868 183.648 500.868 184.038ZM559.555 186.614C557.118 187.312 554.477 189.437 552.528 192.268C551.504 193.755 550.218 195.44 549.67 196.011C548.293 197.446 548.409 198.481 550.174 200.515C550.999 201.465 552.126 203.245 552.677 204.47C553.611 206.546 553.836 206.773 555.993 207.832C560.889 210.236 569.091 211.06 571.902 209.432C574.349 208.015 576.632 202.865 576.632 198.766C576.632 195.144 574.118 191.03 569.98 187.883C568.888 187.052 568.094 186.817 565.455 186.54C561.656 186.141 561.188 186.148 559.555 186.614ZM325.705 187.117C325.245 188.313 326.205 189.332 328.698 190.292C330.045 190.811 331.22 191.162 331.311 191.072C331.675 190.709 330.487 188.649 329.328 187.634C327.956 186.433 326.071 186.164 325.705 187.117ZM523.416 192.224C522.187 192.46 520.553 194.296 520.324 195.697C519.904 198.283 521.736 202.863 523.769 204.306C524.884 205.097 525.857 204.976 525.857 204.047C525.857 202.961 526.758 203.754 527.96 205.901C529.34 208.363 530.353 209.282 531.699 209.293C532.527 209.3 532.706 209.09 533.058 207.697C533.633 205.419 533.559 200.799 532.907 198.274C531.992 194.733 530.937 192.936 529.479 192.441C528.247 192.022 525.059 191.908 523.416 192.224ZM370.491 193.624C370.491 193.938 370.684 194.132 370.921 194.053C371.592 193.83 371.703 193.052 371.064 193.052C370.749 193.052 370.491 193.309 370.491 193.624ZM209.364 196.801C209.042 197.188 209.08 197.351 209.53 197.524C210.497 197.894 210.778 197.781 210.778 197.024C210.778 196.194 209.975 196.067 209.364 196.801ZM368.837 198.507C368.55 198.97 369.38 201.718 369.807 201.718C370.615 201.718 371.939 200.802 371.939 200.242C371.939 199.552 370.328 198.108 369.558 198.108C369.298 198.108 368.973 198.287 368.837 198.507ZM557.365 199.191C558.499 200.401 559.337 200.568 559.835 199.682C560.308 198.839 561.025 199.426 560.807 200.477C560.707 200.961 560.54 201.764 560.437 202.26C560.066 204.041 557.498 203.018 556.258 200.594C554.961 198.059 555.575 197.28 557.365 199.191ZM374.203 200.27C372.987 201.009 372.612 202.079 373.569 202.079C374.847 202.079 373.626 203.93 371.691 204.923C370.591 205.488 368.332 205.426 367.124 204.799C366.235 204.336 366.087 204.337 365.907 204.804C365.795 205.096 365.965 205.734 366.286 206.222C367.047 207.381 367.027 208.473 366.235 208.878C365.886 209.056 364.413 209.487 362.961 209.836C360.61 210.4 360.253 210.41 359.701 209.928C358.196 208.612 356.004 208.756 356.004 210.172C356.004 210.625 356.33 211.289 356.728 211.648C357.482 212.329 357.659 213.472 357.138 214.292C356.77 214.871 354.551 215.42 352.531 215.431C351.307 215.438 350.978 215.597 350.638 216.343C350.03 217.673 349.246 217.445 348.474 215.711C347.103 212.631 344.365 210.753 341.237 210.748C339.499 210.745 336.301 211.968 334.301 213.4L332.552 214.653L331.783 213.616C331.36 213.045 329.753 211.649 328.212 210.513C326.671 209.376 325.164 208.174 324.863 207.84C324.198 207.104 318.377 206.272 315.237 206.464L313.124 206.593L312.086 205.058C310.992 203.441 310.01 203.046 310.01 204.225C310.01 205.175 309.268 205.57 308.858 204.838C308.616 204.407 308.012 204.246 306.642 204.247C305.405 204.248 304.249 203.979 303.275 203.465C301.256 202.399 300.593 202.718 300.593 204.756C300.593 206.863 299.585 208.013 296.972 208.885C295.813 209.272 294.933 209.791 294.867 210.127C294.805 210.444 295.66 211.686 296.768 212.888C298.256 214.502 298.783 215.349 298.783 216.131C298.783 217.272 297.364 219.239 296.297 219.577C295.793 219.736 295.563 220.462 295.232 222.928C294.977 224.826 294.45 226.797 293.907 227.89L293.004 229.703L294.264 230.858C294.956 231.493 295.523 232.265 295.523 232.573C295.523 232.887 295.832 233.133 296.227 233.133C297.017 233.133 298.058 234.406 298.058 235.372C298.058 235.72 297.651 236.271 297.153 236.597C295.986 237.359 295.98 238.188 297.14 238.188C298.168 238.188 298.783 239.104 298.783 240.636C298.783 241.963 298.004 242.663 294.718 244.294C293.281 245.007 292.04 245.811 291.96 246.08C291.857 246.431 292.032 246.501 292.58 246.327C294.012 245.874 294.099 246.545 292.727 247.458C291.974 247.959 290.687 249.015 289.867 249.807L288.375 251.245L287.605 250.003C286.868 248.813 285.726 247.907 282.757 246.154C281.679 245.516 281.399 245.133 281.399 244.29C281.399 243.366 281.293 243.256 280.57 243.437C280.114 243.551 279.313 243.482 278.789 243.284C278.133 243.035 277.502 243.049 276.76 243.328C275.889 243.656 275.358 243.609 273.979 243.084C271.965 242.317 270.341 240.104 269.967 237.616C269.838 236.757 269.508 235.763 269.235 235.406C268.801 234.841 268.691 234.827 268.374 235.3C268.174 235.598 267.954 236.002 267.885 236.199C267.812 236.407 265.039 236.642 261.27 236.759C255.535 236.938 254.559 237.059 252.881 237.799C251.099 238.585 250.928 238.6 250.088 238.051C248.813 237.219 247.718 237.29 247.718 238.206C247.718 239.858 245.985 241.967 243.329 243.547C242.255 244.186 241.984 244.59 241.823 245.785C241.562 247.723 241.231 248.056 238.086 249.544C235.123 250.947 234.88 251.42 236.364 252.9C236.892 253.426 237.468 254.496 237.644 255.278C237.971 256.727 237.576 260.671 236.862 263.101C236.323 264.933 236.329 264.951 238.242 267.328C240.323 269.912 241.207 271.94 241.466 274.718L241.656 276.763L243.281 277.171C244.175 277.396 247.291 278.659 250.205 279.98C253.12 281.3 256.482 282.65 257.676 282.979C259.821 283.571 259.863 283.568 261.116 282.752C262.051 282.143 263.312 281.824 265.902 281.542C267.836 281.331 269.596 281.158 269.812 281.158C270.028 281.158 270.836 282.526 271.608 284.199C272.795 286.774 273.789 288.019 274.658 288.019C274.761 288.019 274.751 286.678 274.636 285.04C274.192 278.728 276.759 273.352 281.827 269.978C283.666 268.753 284.121 268.582 284.367 269.02C284.81 269.81 286.706 270.651 287.548 270.432C288.077 270.294 288.28 269.942 288.28 269.161C288.28 268.196 288.185 268.104 287.397 268.301C286.058 268.637 285.944 267.956 286.985 265.835C288.212 263.336 289.68 262.507 291.339 263.378C292.056 263.755 293.557 263.99 295.61 264.049C297.35 264.099 298.922 264.23 299.102 264.341C299.599 264.647 303.737 260.058 304.736 258.093L305.615 256.362L308.446 255.955C310.003 255.732 312.241 255.172 313.419 254.713C315.442 253.923 315.595 253.777 316.174 252.077C316.958 249.778 318.137 247.471 318.816 246.91C319.222 246.574 319.559 246.569 320.268 246.892C321.082 247.262 321.376 247.176 322.746 246.171C323.602 245.544 324.929 244.931 325.696 244.809C327.172 244.573 327.754 243.975 332.446 237.869C334.029 235.81 334.613 235.3 335.394 235.3C336.702 235.3 338.013 234.219 337.698 233.401C337.565 233.055 337.107 232.77 336.68 232.767C334.632 232.752 334.544 231.378 336.446 229.089C337.528 227.787 337.603 227.759 339.437 227.976C341.322 228.198 342.565 229.079 342.592 230.21C342.602 230.629 342.715 230.621 343.238 230.164C344.391 229.155 346.292 228.377 347.104 228.581C347.544 228.691 348.124 229.191 348.394 229.693C348.663 230.195 349.088 230.606 349.337 230.606C349.587 230.606 349.977 231.166 350.204 231.852C350.464 232.64 351.507 233.884 353.039 235.235C355.455 237.365 355.466 237.371 357.453 237.23C360.877 236.987 363.129 239.086 362.198 241.653C361.81 242.723 361.824 243.109 362.289 244.087C362.594 244.726 363.014 246.617 363.224 248.289C363.435 249.961 363.75 251.472 363.924 251.646C364.099 251.82 364.792 251.91 365.465 251.846C366.605 251.737 366.702 251.625 366.892 250.202C367.158 248.219 367.358 248.067 368.238 249.183C368.638 249.689 369.057 250.104 369.169 250.104C369.28 250.104 369.956 249.709 370.67 249.226C371.385 248.742 372.778 248.079 373.766 247.752C375.445 247.196 375.67 247.198 377.186 247.775C379.546 248.673 383.822 248.368 386.261 247.126C388.855 245.805 391.464 243.339 394.199 239.623C396.679 236.256 396.869 235.692 396.023 234.216C395.713 233.676 395.5 232.289 395.492 230.76C395.475 227.176 394.771 225.481 391.676 221.566C390.189 219.686 388.718 217.62 388.407 216.974C387.908 215.942 387.667 215.801 386.401 215.801C385.217 215.801 384.888 215.641 384.549 214.898C384.322 214.402 383.832 213.995 383.461 213.995C382.568 213.995 382.167 212.842 381.867 209.413C381.568 205.985 381.421 205.68 379.358 204.203C378.305 203.449 377.438 202.422 376.915 201.308C376.469 200.359 375.941 199.575 375.742 199.568C375.543 199.561 374.85 199.876 374.203 200.27ZM434.775 200.271C434.468 201.235 434.823 201.718 435.838 201.718C436.843 201.718 437.653 200.857 437.361 200.098C437.038 199.257 435.055 199.39 434.775 200.271ZM561.711 201.4C561.711 201.599 561.548 201.661 561.349 201.538C561.15 201.415 560.987 201.152 560.987 200.954C560.987 200.755 561.15 200.693 561.349 200.816C561.548 200.938 561.711 201.201 561.711 201.4ZM116.254 202.253C116.254 202.746 116.447 204.272 116.683 205.645C117.223 208.785 116.75 209.722 114.316 210.333C112.144 210.879 109.872 213.462 107.633 217.933C106.265 220.665 105.934 221.688 105.941 223.169C105.953 225.531 106.818 229.169 108.394 233.494C109.623 236.866 109.678 236.943 111.591 238.017C114.874 239.858 117.937 241.089 120.63 241.649C123.163 242.176 123.764 242.141 127.843 241.233C128.598 241.065 128.859 241.238 129.416 242.275C130.238 243.808 131.881 245.056 133.576 245.437C136.753 246.152 136.745 243.769 133.564 241.956C132.541 241.374 131.64 240.702 131.56 240.463C131.317 239.731 134.219 236.934 136.163 236.026C137.514 235.395 138.055 234.921 138.197 234.24C138.304 233.731 138.871 231.526 139.455 229.342C140.815 224.266 140.902 220.657 139.711 218.737C139.267 218.021 138.734 216.586 138.527 215.549C138.179 213.812 137.95 213.503 135.622 211.625C134.232 210.504 131.872 208.994 130.378 208.27C127.83 207.036 127.446 206.954 124.186 206.954C120.203 206.954 119.787 206.749 118.713 204.251C117.561 201.571 116.254 200.509 116.254 202.253ZM346.467 201.959C346.334 202.091 346.226 202.368 346.226 202.573C346.226 202.799 346.394 202.778 346.654 202.519C346.89 202.284 346.999 202.008 346.896 201.905C346.793 201.802 346.6 201.827 346.467 201.959ZM283.21 203.829C283.21 204.704 284.267 205.629 285.752 206.054C286.719 206.33 287.03 206.28 287.391 205.787C287.983 204.981 287.69 204.334 286.443 203.691C284.942 202.917 283.21 202.991 283.21 203.829ZM349.002 203.765C348.553 204.213 348.758 204.607 349.441 204.607C349.815 204.607 350.324 204.363 350.572 204.065C350.952 203.609 350.883 203.524 350.133 203.524C349.644 203.524 349.135 203.632 349.002 203.765ZM265.31 206.653C265.182 206.985 265.219 207.396 265.391 207.568C265.882 208.057 266.913 207.493 266.913 206.735C266.913 205.874 265.635 205.809 265.31 206.653ZM331.739 206.623C331.739 206.938 331.933 207.131 332.17 207.052C332.841 206.829 332.952 206.051 332.313 206.051C331.998 206.051 331.739 206.309 331.739 206.623ZM328.13 207.111C327.555 208.184 327.678 208.579 328.589 208.579C329.587 208.579 330.291 207.952 330.291 207.063C330.291 206.157 328.623 206.194 328.13 207.111ZM513.875 208.826C512.102 212.707 511.307 215.801 512.083 215.801C512.275 215.801 512.614 216.139 512.836 216.553C513.205 217.24 513.152 217.294 512.218 217.185C511.244 217.07 511.166 217.176 510.49 219.514L509.782 221.963L510.766 222.944C511.628 223.804 512.032 223.925 514.033 223.925C515.976 223.925 516.515 223.775 517.647 222.914C518.378 222.357 519.222 221.431 519.52 220.855C520.281 219.388 520.197 216.186 519.337 213.895C518.55 211.797 515.793 207.461 515.1 207.23C514.863 207.152 514.313 207.87 513.875 208.826ZM292.083 208.94C292.206 209.139 292.46 209.301 292.647 209.301C292.835 209.301 292.988 209.139 292.988 208.94C292.988 208.742 292.734 208.579 292.423 208.579C292.113 208.579 291.96 208.742 292.083 208.94ZM306.332 210.156C306.246 210.545 306.046 210.626 305.701 210.412C305.397 210.222 305.294 209.842 305.442 209.458C305.743 208.674 306.522 209.285 306.332 210.156ZM389.816 209.482C389.495 210.317 389.947 211.107 390.747 211.107C391.67 211.107 392.352 209.939 391.769 209.357C391.179 208.768 390.063 208.84 389.816 209.482ZM280.675 209.977C280.675 210.183 280.169 210.258 279.498 210.151C278.624 210.011 277.978 210.195 276.992 210.865C276.261 211.361 275.576 211.68 275.469 211.573C275.361 211.466 274.539 211.595 273.64 211.86C272.274 212.262 272.037 212.461 272.192 213.078C272.293 213.483 272.426 214.282 272.487 214.853C272.639 216.289 273.404 216.611 274.975 215.901C276.256 215.322 276.276 215.282 276.078 213.619L275.877 211.926L277.28 211.672C278.051 211.533 279.027 211.336 279.447 211.236C280.11 211.078 280.245 211.261 280.466 212.615L280.72 214.176L281.805 212.973C283.213 211.411 283.151 209.899 281.671 209.729C281.123 209.666 280.675 209.778 280.675 209.977ZM508.474 211.455C508.474 211.845 508.8 212.338 509.198 212.551C510.029 212.994 510.159 212.582 509.548 211.444C509.063 210.541 508.474 210.547 508.474 211.455ZM271.114 218.429C270.051 219.819 269.916 220.681 270.715 220.987C271.014 221.101 271.258 221.443 271.258 221.748C271.258 222.69 271.813 222.363 272.824 220.824C273.772 219.38 274.123 217.606 273.461 217.606C273.278 217.606 272.887 217.514 272.593 217.401C272.258 217.273 271.704 217.658 271.114 218.429ZM410.335 218.419C408.004 219.607 407.242 220.834 407.287 223.328C407.353 226.906 409.116 229.151 412.085 229.436C416.203 229.83 419.754 227.073 419.739 223.492C419.725 220.378 416.743 217.606 413.407 217.606C412.59 217.606 411.218 217.969 410.335 218.419ZM623.628 219.44C623.152 220.454 622.298 221.672 621.73 222.148L620.698 223.014L619.183 222.243C617.07 221.169 614.525 221.315 610.871 222.719C609.269 223.335 607.248 223.859 606.38 223.882C605.007 223.92 604.709 224.078 604.082 225.107C603.668 225.784 602.053 227.13 600.294 228.261C596.427 230.748 595.945 231.438 596.252 234.046C596.444 235.669 596.388 236.022 595.939 236.022C595.638 236.022 595.392 236.266 595.392 236.564C595.392 236.861 595.555 237.105 595.755 237.105C595.954 237.105 596.117 237.496 596.117 237.974C596.117 238.603 595.617 239.201 594.306 240.14C592.391 241.512 592.135 242.21 593.063 243.53C593.375 243.975 593.579 244.7 593.516 245.142C593.42 245.805 593.09 245.989 591.625 246.197C589.168 246.546 588.666 247.104 589.346 248.729C589.97 250.217 591.378 251.405 592.917 251.742C593.772 251.93 594.535 251.726 596.21 250.865C597.41 250.248 598.582 249.743 598.815 249.743C599.048 249.743 599.447 250.55 599.7 251.536C600.192 253.448 601.732 255.893 603.305 257.257C604.888 258.63 608.369 260.239 610.921 260.779C612.24 261.058 615.208 261.288 617.516 261.292C621.67 261.298 621.718 261.289 622.136 260.374C622.773 258.98 625.321 257.971 627.022 258.439C627.757 258.642 628.499 258.721 628.671 258.615C628.842 258.509 629.056 257.541 629.145 256.464C629.235 255.386 629.593 254.071 629.941 253.541C630.497 252.696 630.739 252.605 631.91 252.802L633.246 253.027L633.116 251.401C632.994 249.866 633.045 249.762 634.018 249.545C636.045 249.093 636.317 248.966 636.317 248.468C636.317 248.19 635.982 247.785 635.573 247.566C633.541 246.482 632.796 243.048 634.206 241.26C634.927 240.347 634.957 240.121 634.561 238.594C633.933 236.171 631.857 232.103 630.356 230.358C629.184 228.995 629.08 228.704 629.293 227.379C629.544 225.811 629.347 225.587 628.478 226.453C628.18 226.751 627.546 226.995 627.069 226.995C625.781 226.995 625.297 224.847 625.735 221.074C625.921 219.465 626.056 218.127 626.034 218.102C626.013 218.078 625.657 217.954 625.244 217.828C624.612 217.635 624.355 217.891 623.628 219.44ZM275.967 219.051C275.967 219.249 276.455 219.412 277.053 219.412C277.651 219.412 278.139 219.249 278.139 219.051C278.139 218.852 277.651 218.69 277.053 218.69C276.455 218.69 275.967 218.852 275.967 219.051ZM461.755 221.048C461.755 222.803 463.721 226.272 464.715 226.272C465.512 226.272 464.562 222.005 463.516 220.886C462.547 219.849 461.755 219.922 461.755 221.048ZM173.281 220.877C172.859 221.558 173.452 223.023 174.15 223.023C175.031 223.023 176.152 221.747 175.884 221.05C175.64 220.416 173.649 220.284 173.281 220.877ZM240.837 222.12C240.837 222.451 241.012 222.663 241.226 222.592C241.44 222.521 241.616 222.309 241.616 222.12C241.616 221.931 241.44 221.719 241.226 221.648C241.012 221.577 240.837 221.789 240.837 222.12ZM147.641 223.625C147.132 224.132 147.43 225.541 148.124 225.911C149.222 226.497 150.297 225.777 150.297 224.454C150.297 223.482 150.186 223.384 149.09 223.384C148.425 223.384 147.774 223.492 147.641 223.625ZM261.696 224.296C260.535 224.9 259.639 225.931 259.904 226.359C260.11 226.691 264.198 226.723 265.794 226.405C266.423 226.28 267.104 225.869 267.306 225.492C267.62 224.906 267.488 224.729 266.399 224.276C264.767 223.596 263.028 223.603 261.696 224.296ZM349.123 224.626C349.123 225.111 348.946 225.617 348.729 225.75C348.123 226.124 347.574 225.351 347.844 224.503C348.181 223.444 349.123 223.534 349.123 224.626ZM97.5817 225.34C97.1953 225.622 96.9888 225.962 97.1228 226.096C97.5176 226.489 98.8699 225.908 98.8699 225.346C98.8699 224.691 98.4744 224.689 97.5817 225.34ZM269.526 225.759C269.009 226.68 269.673 227.934 270.958 228.465C271.693 228.768 272.693 228.808 274.261 228.596C275.498 228.429 277.521 228.284 278.758 228.275C280.922 228.259 280.988 228.232 280.527 227.536C279.472 225.946 277.809 225.384 273.743 225.244C270.332 225.127 269.847 225.186 269.526 225.759ZM287.129 228.637C287.02 228.826 286.827 229.468 286.699 230.064L286.467 231.147L287.034 230.133C287.346 229.575 287.54 228.933 287.464 228.706C287.384 228.468 287.243 228.439 287.129 228.637ZM229.464 229.427C229.345 229.545 229.248 229.952 229.248 230.331C229.248 231.18 230.452 231.061 230.62 230.195C230.733 229.607 229.864 229.028 229.464 229.427ZM654.062 229.883C654.062 230.349 654.246 230.605 654.515 230.515C654.764 230.433 654.968 230.148 654.968 229.883C654.968 229.619 654.764 229.334 654.515 229.251C654.246 229.162 654.062 229.418 654.062 229.883ZM403.494 229.884C401.728 230.3 400.828 231.353 400.783 233.057C400.712 235.747 402.093 237.105 404.9 237.105C406.912 237.105 408.88 235.373 408.88 233.603C408.88 231.785 407.873 230.301 406.354 229.88C405.651 229.685 404.995 229.542 404.896 229.561C404.796 229.58 404.165 229.726 403.494 229.884ZM278.932 235.571C279.077 236.335 280.513 236.605 281.238 236.005C282.124 235.272 281.826 234.939 280.286 234.939C279.076 234.939 278.832 235.052 278.932 235.571ZM291.05 237.479C288.568 239.352 287.886 240.125 289.638 239.079C290.769 238.405 294.008 235.663 293.676 235.662C293.556 235.661 292.375 236.479 291.05 237.479ZM563.325 236.908C562.579 237.651 562.436 238.143 562.436 239.951C562.436 241.857 562.548 242.196 563.4 242.864C564.617 243.819 566.15 244.229 566.343 243.653C566.422 243.418 567.062 242.986 567.765 242.693C569.038 242.163 569.043 242.15 568.884 240.231C568.654 237.462 567.548 236.022 565.654 236.022C564.608 236.022 563.971 236.264 563.325 236.908ZM355.671 238.76C355.688 239.181 355.774 239.266 355.889 238.978C355.994 238.718 355.981 238.406 355.861 238.286C355.74 238.166 355.655 238.379 355.671 238.76ZM339.868 238.942C339.453 239.612 340.322 240.173 340.959 239.645C341.266 239.391 341.518 239.041 341.518 238.867C341.518 238.412 340.158 238.474 339.868 238.942ZM354.978 241.318C354.733 242.232 354.596 243.044 354.675 243.122C354.754 243.2 355.026 242.524 355.28 241.619C355.534 240.714 355.67 239.902 355.583 239.814C355.495 239.727 355.223 240.404 354.978 241.318ZM333.063 242.821C332.277 243.687 332.306 244.218 333.164 244.675C334.496 245.386 335.688 245.136 335.951 244.09C336.371 242.422 334.265 241.497 333.063 242.821ZM149.954 245.929C149.19 246.846 149.769 247.638 151.109 247.51C152.096 247.415 152.289 247.249 152.289 246.493C152.289 245.791 152.081 245.567 151.352 245.482C150.834 245.422 150.209 245.621 149.954 245.929ZM217.135 246.102C217.018 246.29 217.077 246.539 217.266 246.655C217.454 246.771 217.704 246.712 217.821 246.524C217.937 246.336 217.878 246.087 217.689 245.971C217.501 245.855 217.251 245.914 217.135 246.102ZM352.265 247.645C351.592 248.712 351.003 250.658 350.862 252.271C350.758 253.473 350.806 253.531 351.839 253.458C352.495 253.412 353.255 253.002 353.757 252.426C354.463 251.614 354.572 251.138 354.481 249.253C354.386 247.286 354.285 247.022 353.582 246.923C353.067 246.85 352.607 247.102 352.265 247.645ZM190.738 247.457C190.239 247.953 190.523 248.66 191.221 248.66C191.704 248.66 191.945 248.419 191.945 247.938C191.945 247.242 191.236 246.959 190.738 247.457ZM203.897 250.465C203.897 250.664 204.213 250.827 204.599 250.827C204.986 250.827 205.403 250.664 205.526 250.465C205.653 250.261 205.349 250.104 204.823 250.104C204.314 250.104 203.897 250.267 203.897 250.465ZM199.188 252.271C198.683 252.775 198.464 253.474 198.464 254.59C198.464 256.64 199.731 258.236 201.8 258.791C203.615 259.278 204.225 258.81 204.508 256.712C204.749 254.912 203.928 253.222 202.34 252.256C200.867 251.361 200.097 251.365 199.188 252.271ZM648.697 253.986C648.788 254.778 649.022 255.003 649.851 255.098C650.423 255.163 651.051 255.057 651.245 254.863C651.727 254.383 650.304 252.993 649.33 252.993C648.727 252.993 648.604 253.186 648.697 253.986ZM414.674 254.227C414.674 254.541 414.932 254.799 415.247 254.799C415.887 254.799 415.776 254.021 415.104 253.798C414.868 253.719 414.674 253.912 414.674 254.227ZM364.465 254.979C364.212 255.637 364.543 256.604 365.021 256.604C365.547 256.604 366.507 255.538 366.507 254.953C366.507 254.257 364.734 254.279 364.465 254.979ZM477.509 255.094C476.513 255.467 474.849 256.202 473.81 256.729C472.771 257.255 470.762 257.85 469.344 258.051C465.778 258.555 465.508 258.751 465.22 261.05L464.977 262.989L463.278 263.317C462.092 263.546 461.542 263.841 461.456 264.294C461.276 265.242 462.058 265.992 463.224 265.992C463.785 265.992 464.661 266.151 465.172 266.344C466.059 266.681 466.101 266.824 466.105 269.504C466.113 274.297 467.56 278.1 470.176 280.196C471.37 281.153 471.916 281.315 474.703 281.534C476.445 281.67 478.33 281.967 478.891 282.192C481.53 283.254 484.614 281.902 488.595 277.94C492.495 274.057 493.755 270.64 492.936 266.171C492.111 261.675 488.934 257.179 485.416 255.53C483.071 254.431 479.77 254.249 477.509 255.094ZM706.558 255.723C705.912 256.499 706.51 258.085 707.665 258.659C709.344 259.493 710.791 257.663 709.845 255.901C709.358 254.993 707.259 254.88 706.558 255.723ZM315.08 258.048C315.08 258.446 315.225 258.771 315.403 258.771C315.81 258.771 316.19 257.831 315.9 257.542C315.464 257.107 315.08 257.345 315.08 258.048ZM538.593 258.099C538.66 258.567 538.877 258.911 539.076 258.861C539.611 258.728 539.517 257.593 538.955 257.406C538.624 257.296 538.51 257.514 538.593 258.099ZM544.287 260.386C543.131 261.024 542.354 262.766 542.668 264.015C543.09 265.691 544.951 265.644 546.873 263.908C547.693 263.168 547.984 262.564 548.047 261.479L548.13 260.034L546.682 259.949C545.885 259.903 544.808 260.099 544.287 260.386ZM335.804 260.777C334.121 261.952 335.233 263.658 337.297 263.068C338.95 262.595 339.37 261.736 338.414 260.782C337.692 260.063 336.828 260.061 335.804 260.777ZM458.93 261.37C458.405 261.894 458.36 262.978 458.85 263.279C459.417 263.629 460.669 262.78 460.669 262.046C460.669 261.677 460.411 261.277 460.096 261.156C459.366 260.877 459.438 260.864 458.93 261.37ZM420.111 263.279C419.464 264.057 419.935 264.909 421.012 264.909C421.523 264.909 422.035 264.663 422.15 264.363C422.39 263.739 421.69 262.743 421.012 262.743C420.762 262.743 420.356 262.984 420.111 263.279ZM520.425 263.469C516.386 263.789 513.483 264.667 511.908 266.046C510.398 267.368 510.557 267.721 513.17 268.842C516.675 270.345 519.8 270.771 527.668 270.82C534.968 270.866 535.12 270.852 536.722 269.959C538.82 268.79 538.971 267.895 537.318 266.447C534.592 264.062 527.882 262.879 520.425 263.469ZM385.339 266.534C385.339 266.832 385.584 267.076 385.882 267.076C386.181 267.076 386.426 266.832 386.426 266.534C386.426 266.236 386.181 265.992 385.882 265.992C385.584 265.992 385.339 266.236 385.339 266.534ZM304.041 268.869C303.361 269.967 305.218 273.14 307.113 274.117C308.487 274.826 310.692 274.828 310.964 274.12C311.3 273.247 309.874 270.943 308.348 269.892C306.73 268.778 304.436 268.233 304.041 268.869ZM296.377 270.212C296.083 270.915 295.746 272.299 295.628 273.287C295.422 275.025 295.443 275.08 296.284 274.961C297.398 274.804 298.419 272.825 298.42 270.819C298.421 269.61 298.277 269.289 297.667 269.13C297.065 268.973 296.805 269.191 296.377 270.212ZM221.088 271.066C220.744 271.621 221.215 271.979 221.68 271.516C221.94 271.256 221.946 271.054 221.699 270.902C221.496 270.777 221.221 270.851 221.088 271.066ZM473.344 272.022C473.344 272.693 473.228 272.881 472.97 272.624C472.764 272.419 472.7 271.981 472.828 271.649C473.163 270.778 473.344 270.909 473.344 272.022ZM286.462 273.764C285.762 274.605 286.261 274.764 287.01 273.938C287.372 273.54 287.5 273.214 287.294 273.214C287.088 273.214 286.714 273.462 286.462 273.764ZM315.17 273.453C314.922 273.554 314.718 273.964 314.718 274.366C314.718 274.884 314.885 275.033 315.291 274.878C315.606 274.757 315.932 274.658 316.015 274.658C316.098 274.658 316.166 274.333 316.166 273.936C316.166 273.207 315.993 273.122 315.17 273.453ZM408.871 276.366C407.835 277.289 407.672 277.666 407.672 279.136C407.672 281.062 408.394 282.05 410.174 282.558C412.835 283.319 415.321 281.036 414.842 278.269C414.541 276.529 413.598 275.695 411.688 275.48C410.272 275.321 409.92 275.432 408.871 276.366ZM294.999 277.126C294.576 278.455 293.823 278.786 292.777 278.103C292.261 277.765 291.795 277.543 291.741 277.609C291.687 277.674 291.294 278.775 290.867 280.055C289.861 283.071 289.841 285.603 290.815 286.574C291.794 287.55 292.077 287.493 293.139 286.104C294.207 284.708 294.965 281.599 294.674 279.81C294.539 278.977 294.663 278.26 295.046 277.679C295.362 277.197 295.533 276.714 295.424 276.606C295.316 276.498 295.124 276.732 294.999 277.126ZM308.199 277.04C308.199 277.665 309.791 279.339 310.872 279.85C312.377 280.562 314.701 280.611 315.607 279.951C316.509 279.293 316.114 277.804 314.891 277.248C313.95 276.821 308.199 276.642 308.199 277.04ZM371.577 277.503C371.577 277.977 372.513 278.66 372.787 278.387C373.283 277.892 372.997 277.186 372.301 277.186C371.903 277.186 371.577 277.329 371.577 277.503ZM428.436 278.476C426.433 279.403 424.686 280.795 424.045 281.973C423.793 282.436 424.055 283.557 425.015 286.126C427.591 293.013 428.849 294.429 432.701 294.774C436.662 295.129 439.985 293.443 441.45 290.336C442.127 288.899 442.247 288.124 442.143 285.844C441.976 282.181 440.721 280.028 437.896 278.556C435.21 277.157 431.357 277.124 428.436 278.476ZM304.215 279.311C304.215 279.812 306.004 280.853 306.422 280.595C306.949 280.271 305.722 278.992 304.883 278.992C304.516 278.992 304.215 279.135 304.215 279.311ZM588.575 280.389C588.286 280.571 588.142 281.181 588.213 281.918C588.318 283.014 588.446 283.144 589.417 283.144C590.388 283.144 590.516 283.014 590.621 281.918C590.732 280.753 590.294 280.086 589.417 280.086C589.218 280.086 588.839 280.222 588.575 280.389ZM340.773 281.102L339.948 281.768L341.149 282.185C342.778 282.751 343.672 282.71 343.923 282.056C344.481 280.607 342.23 279.925 340.773 281.102ZM119.875 281.842C119.875 282.626 120.912 283.157 121.433 282.639C121.966 282.107 121.439 281.158 120.611 281.158C120.131 281.158 119.875 281.395 119.875 281.842ZM236.491 281.73C236.491 282.367 237.271 282.256 237.495 281.587C237.574 281.351 237.38 281.158 237.064 281.158C236.749 281.158 236.491 281.416 236.491 281.73ZM345.429 282.487C344.927 282.619 344.878 282.821 345.166 283.576C345.361 284.086 345.426 284.797 345.312 285.156C345.083 285.875 346.042 286.574 347.258 286.574C348.199 286.574 348.344 286.036 347.884 284.251C347.387 282.322 347.03 282.066 345.429 282.487ZM420.016 282.992C419.049 283.554 419.222 284.715 420.314 284.989C421.503 285.286 422.073 284.717 421.775 283.532C421.527 282.544 421.043 282.396 420.016 282.992ZM287.001 284.444C286.868 284.861 286.94 285.382 287.16 285.602C287.702 286.143 288.822 285.035 288.522 284.255C288.208 283.438 287.284 283.553 287.001 284.444ZM277.597 284.766C277.301 285.698 277.744 286.486 278.179 285.801C278.595 285.146 278.586 284.047 278.164 284.047C277.978 284.047 277.723 284.37 277.597 284.766ZM372.03 286.03C370.31 286.774 369.81 288.096 370.656 289.662C371.297 290.849 373.658 292.352 374.882 292.352C377.142 292.352 378.017 287.508 376.027 286.004C375.193 285.373 373.52 285.384 372.03 286.03ZM349.927 286.776C348.9 287.493 348.904 288.418 349.938 289.35C351.609 290.858 353.469 290.63 353.469 288.917C353.469 287.114 351.311 285.809 349.927 286.776ZM306.596 287.176C306.262 288.043 306.948 288.604 307.64 288.031C307.948 287.777 308.199 287.345 308.199 287.072C308.199 286.366 306.874 286.453 306.596 287.176ZM227.582 287.441C227.449 287.786 227.52 288.246 227.739 288.464C228.029 288.753 228.203 288.691 228.379 288.235C228.511 287.891 228.441 287.431 228.221 287.212C227.932 286.923 227.757 286.986 227.582 287.441ZM357.091 288.199C357.091 288.981 357.237 289.132 357.905 289.037C358.44 288.961 358.72 288.673 358.72 288.199C358.72 287.725 358.44 287.437 357.905 287.362C357.237 287.267 357.091 287.418 357.091 288.199ZM506.373 287.73C505.725 288.377 505.846 289.172 506.572 289.035C506.921 288.968 507.258 288.55 507.322 288.105C507.449 287.216 507.048 287.058 506.373 287.73ZM289.052 290.35C287.241 292.258 286.641 293.491 286.904 294.761C287.003 295.237 287.328 295.401 288.067 295.347C289.6 295.237 290.378 294.305 291.179 291.623C292.04 288.741 292.031 288.868 291.389 288.622C291.079 288.504 290.155 289.187 289.052 290.35ZM262.572 288.99C262.575 289.151 262.736 289.526 262.929 289.824C263.231 290.291 263.28 290.281 263.285 289.755C263.288 289.419 263.128 289.044 262.929 288.921C262.73 288.799 262.569 288.83 262.572 288.99ZM303.853 289.244C303.853 289.808 304.829 290.296 305.334 289.985C306.026 289.558 305.648 288.741 304.758 288.741C304.226 288.741 303.853 288.948 303.853 289.244ZM267.176 289.32C266.782 289.714 267.258 290.185 268.05 290.185C268.476 290.185 268.72 289.996 268.633 289.734C268.461 289.218 267.541 288.957 267.176 289.32ZM241.702 291.841C241.421 292.957 242.221 293.937 243.13 293.589C243.802 293.332 244.301 291.891 243.928 291.289C243.798 291.079 243.297 290.907 242.814 290.907C242.173 290.907 241.874 291.158 241.702 291.841ZM553.382 291.269C553.382 291.467 553.545 291.63 553.744 291.63C553.943 291.63 554.106 291.467 554.106 291.269C554.106 291.07 553.943 290.907 553.744 290.907C553.545 290.907 553.382 291.07 553.382 291.269ZM565.242 291.878C564.344 292.113 564.453 292.613 565.667 293.824C566.477 294.632 567.059 294.879 568.146 294.879C569.704 294.879 570.932 293.926 570.573 292.995C570.147 291.888 567.407 291.314 565.242 291.878ZM264.921 293.074C265.281 293.471 265.658 293.796 265.757 293.796C265.857 293.796 265.643 293.471 265.283 293.074C264.922 292.677 264.546 292.352 264.446 292.352C264.347 292.352 264.56 292.677 264.921 293.074ZM635.773 293.41C633.091 294.057 631.76 295.872 632.109 298.407C632.703 302.724 637.186 304.981 640.101 302.43C643.195 299.721 642.295 294.483 638.557 293.448C637.823 293.244 637.14 293.094 637.041 293.113C636.941 293.132 636.371 293.266 635.773 293.41ZM253.033 294.395C252.759 294.668 253.444 295.602 253.919 295.602C254.094 295.602 254.237 295.277 254.237 294.879C254.237 294.185 253.528 293.901 253.033 294.395ZM249.308 295.756C249.199 296.039 249.163 296.649 249.229 297.11C249.457 298.718 252.426 298.294 252.426 296.653C252.426 295.445 249.727 294.668 249.308 295.756ZM356.211 296.141C355.827 296.437 353.708 297.262 351.503 297.975C345.829 299.809 344.62 300.577 343.871 302.825C343.109 305.114 342.355 305.553 340.121 305.006C338.68 304.653 334.86 302.477 334.261 301.667C334.154 301.523 332.932 301.144 331.545 300.826C330.158 300.508 328.482 299.932 327.82 299.546L326.616 298.845L323.474 299.778C321.745 300.291 319.224 301.047 317.872 301.456C316.519 301.866 314.75 302.68 313.941 303.264C312.888 304.024 312.222 304.265 311.601 304.11C310.848 303.922 310.734 304.02 310.734 304.858C310.734 305.525 310.275 306.245 309.252 307.187L307.77 308.551L308.031 311.325C308.218 313.312 308.171 314.172 307.864 314.361C307.629 314.506 306.915 315.423 306.277 316.397C305.221 318.01 304.928 318.214 303.012 318.668C299.099 319.595 298.143 318.179 300.311 314.667C301.207 313.214 301.479 312.361 301.488 310.973L301.499 309.169L299.681 308.762C297.522 308.278 296.261 307.657 296.212 307.054C296.193 306.812 296.204 306.026 296.237 305.306C296.294 304.062 296.228 303.983 294.931 303.741C292.999 303.38 291.017 302.294 290.169 301.135C289.536 300.267 288.935 300.043 285.384 299.347C282.451 298.772 280.832 298.247 279.554 297.455L277.785 296.358L275.753 297.424C273.601 298.553 271.437 298.805 270.086 298.083C269.474 297.757 269.239 297.793 268.893 298.264C268.656 298.587 268.306 298.851 268.115 298.851C267.924 298.851 267.534 299.38 267.249 300.025C266.803 301.036 266.57 301.186 265.566 301.109C264.534 301.029 264.226 301.248 262.881 303.026C261.08 305.404 259.932 306.073 257.657 306.073C256.194 306.073 256.004 306.157 256.228 306.705C257.237 309.181 257.187 310.634 256.011 312.979C255.367 314.263 253.419 316.184 252.76 316.184C252.17 316.184 252.399 316.716 253.513 317.931C254.141 318.616 254.604 319.527 254.612 320.088C254.635 321.854 255.598 326.443 256.376 328.492C256.797 329.601 257.769 331.543 258.536 332.808C259.924 335.097 259.927 335.11 259.189 335.705L258.448 336.304L259.239 338.709C259.675 340.032 260.031 341.343 260.031 341.624C260.031 342.67 263.398 343.124 265.475 342.358C268.422 341.272 268.614 341.285 270.768 342.712L272.792 344.051L275.259 343.26C276.616 342.825 279.626 342.281 281.948 342.053C285.414 341.711 286.261 341.51 286.685 340.932C287.154 340.293 287.349 340.268 288.832 340.664C291.127 341.276 291.122 341.278 291.579 339.468C292.083 337.47 292.316 337.309 293.681 338.013L294.758 338.569L294.734 336.855C294.703 334.481 295.066 333.765 298.049 330.325L300.66 327.314L300.536 324.728L300.412 322.142L302.817 322.036L305.222 321.93L306.283 325.126C307.468 328.696 309.416 331.884 311.08 332.974C311.872 333.494 312.335 334.222 312.728 335.566L313.274 337.436L314.446 337.101C315.781 336.719 318.833 336.666 320.092 337.002C320.747 337.177 320.902 337.421 320.776 338.08C320.635 338.813 320.756 338.932 321.636 338.932C322.258 338.932 323.147 339.358 323.897 340.016C325.303 341.246 325.804 341.338 326.7 340.529C327.048 340.216 328.481 339.665 329.886 339.304C331.291 338.944 333.83 337.9 335.527 336.985C338.877 335.179 339.345 335.042 339.345 335.863C339.345 336.621 339.425 336.595 342.733 334.798C344.359 333.914 346.348 333.086 347.155 332.958C348.606 332.726 348.638 332.746 350.501 335.014C352.277 337.176 352.382 337.419 352.382 339.353C352.382 341.837 352.622 342.543 353.464 342.543C354.306 342.543 354.906 341.782 355.807 339.569L356.547 337.752L360.35 337.665C362.441 337.617 364.828 337.735 365.653 337.927C367.447 338.345 368.021 338.094 370.853 335.66C371.948 334.718 373.454 333.697 374.199 333.391C375.131 333.007 375.489 332.667 375.348 332.3C375.227 331.985 375.97 330.683 377.165 329.12C379.252 326.39 381.4 322.625 382.223 320.253C382.612 319.132 382.609 318.696 382.204 317.73C381.935 317.088 381.389 315.136 380.991 313.394C380.593 311.651 380.173 309.82 380.058 309.323L379.848 308.42L380.692 309.191C384.498 312.662 390.227 311.236 391.483 306.505C392.37 303.167 390.635 299.139 387.592 297.469L386.042 296.619L382.952 298.166C379.511 299.89 379.576 299.828 378.82 302.096C378.151 304.103 377.092 304.323 376.335 302.611C376.018 301.892 375.409 301.339 374.624 301.056C373.954 300.814 372.465 299.916 371.314 299.059C367.786 296.432 367.203 296.239 362.541 296.156C360.241 296.115 358.032 295.974 357.634 295.842C357.208 295.702 356.621 295.826 356.211 296.141ZM396.273 297.073C396.345 297.286 396.558 297.461 396.747 297.461C396.937 297.461 397.15 297.286 397.221 297.073C397.292 296.86 397.079 296.685 396.747 296.685C396.415 296.685 396.202 296.86 396.273 297.073ZM289.023 297.926C288.461 298.601 288.771 299.574 289.548 299.574C290.355 299.574 290.649 298.531 290.019 297.902C289.549 297.434 289.43 297.437 289.023 297.926ZM301.137 298.851C301.446 299.447 301.78 299.935 301.88 299.935C301.979 299.935 301.808 299.447 301.499 298.851C301.19 298.256 300.856 297.768 300.756 297.768C300.656 297.768 300.828 298.256 301.137 298.851ZM225.475 301.611C225.216 302.285 225.175 302.224 226.265 302.79C226.939 303.139 227.124 303.116 227.3 302.658C227.623 301.819 227.184 301.018 226.4 301.018C226.017 301.018 225.601 301.285 225.475 301.611ZM251.921 301.952C251.518 302.999 251.694 304.549 252.24 304.757C253.02 305.056 253.591 303.799 253.173 302.702C252.735 301.552 252.198 301.231 251.921 301.952ZM505.094 303.425C504.657 303.86 504.841 304.547 505.456 304.783C505.788 304.91 506.201 304.873 506.373 304.701C506.546 304.529 506.583 304.118 506.455 303.786C506.219 303.173 505.53 302.99 505.094 303.425ZM420.831 304.445C420.831 305.253 421.498 306.434 421.953 306.434C422.618 306.434 422.156 304.104 421.465 303.974C421.07 303.899 420.831 304.077 420.831 304.445ZM164.241 306.18C161.226 307.883 160.167 312.102 161.873 315.615C163.031 318 164.751 319.072 167.42 319.072C168.579 319.072 169.967 318.844 170.505 318.565C174.99 316.239 175.705 308.827 171.701 306.168C169.968 305.017 166.29 305.024 164.241 306.18ZM427.712 305.478C427.712 306.08 428.7 308.28 429.384 309.198C430.28 310.403 432.68 312.073 433.023 311.731C433.135 311.62 433.03 310.713 432.79 309.716C432.282 307.606 430.126 305.351 428.616 305.351C428.119 305.351 427.712 305.408 427.712 305.478ZM497.609 311.229C497.609 312.481 498.56 313.624 499.417 313.4C500.287 313.173 500.352 312.307 499.58 311.209C498.82 310.127 497.609 310.139 497.609 311.229ZM486.025 312.121C486.035 313.817 486.574 314.216 487.11 312.925C487.509 311.965 487.503 311.733 487.074 311.462C486.24 310.935 486.019 311.074 486.025 312.121ZM252.575 312.754C252.244 314.069 252.945 314.738 253.781 313.905C254.254 313.433 254.313 313.135 254.024 312.678C253.406 311.701 252.832 311.731 252.575 312.754ZM474.631 312.181C474.303 312.71 475.072 314.017 475.711 314.017C476.456 314.017 476.371 313.163 475.553 312.425C475.113 312.028 474.78 311.939 474.631 312.181ZM197.649 312.602C196.843 313.07 196.846 313.728 197.657 314.727C198.155 315.34 198.52 315.462 199.287 315.269C200.43 314.983 200.643 313.714 199.706 312.779C199.051 312.127 198.543 312.082 197.649 312.602ZM507.818 315.728C507.999 316.669 509.198 316.774 509.198 315.849C509.198 315.332 508.966 315.1 508.447 315.1C507.929 315.1 507.734 315.295 507.818 315.728ZM201.93 318.918C201.08 319.766 201.242 320.707 202.322 321.198C203.489 321.728 203.853 321.422 204.138 319.673C204.339 318.439 204.292 318.35 203.426 318.35C202.917 318.35 202.244 318.606 201.93 318.918ZM224.287 321.115C223.992 321.88 225.469 323.119 226.499 322.971C227.473 322.832 227.7 321.602 226.864 320.992C225.958 320.332 224.563 320.398 224.287 321.115ZM150.288 325.061C147.777 327.994 146.908 329.415 146.517 331.225C146.21 332.643 146.696 332.988 148.03 332.301C150.4 331.079 152.071 328.529 153.327 324.218C153.842 322.452 153.836 322.322 153.256 322.322C152.913 322.322 151.578 323.555 150.288 325.061ZM93.4375 323.767C93.4375 323.965 93.6005 324.128 93.7996 324.128C93.9988 324.128 94.1618 323.965 94.1618 323.767C94.1618 323.568 93.9988 323.406 93.7996 323.406C93.6005 323.406 93.4375 323.568 93.4375 323.767ZM409.082 324.046C408.554 324.573 408.935 326.58 409.694 327.27C412.322 329.656 414.144 329.111 412.719 326.366C411.884 324.756 409.741 323.389 409.082 324.046ZM238.677 325.187C238.471 325.571 238.302 326.392 238.302 327.01C238.302 327.933 238.509 328.222 239.457 328.619C240.978 329.257 241.923 328.709 241.923 327.19C241.923 324.941 239.584 323.497 238.677 325.187ZM243.734 326.793C243.734 327.091 243.897 327.435 244.096 327.558C244.296 327.681 244.459 327.537 244.459 327.24C244.459 326.942 244.296 326.598 244.096 326.475C243.897 326.352 243.734 326.495 243.734 326.793ZM233.658 329.424C233.834 330.33 234.68 330.454 234.68 329.574C234.68 329.131 234.446 328.822 234.111 328.822C233.773 328.822 233.588 329.067 233.658 329.424ZM403.869 331.926C403.292 332.329 403.077 332.791 403.155 333.461C403.389 335.477 407.793 335.385 407.793 333.364C407.793 331.656 405.473 330.806 403.869 331.926ZM242.889 337.368C241.948 338.306 243.389 340.016 245.121 340.016C246.028 340.016 246.269 339.864 246.269 339.293C246.269 337.863 243.802 336.457 242.889 337.368ZM250.817 340.096C250.056 341.178 250.107 342.079 250.954 342.531C252.037 343.109 253.087 342.975 253.5 342.206C254.032 341.214 253.972 340.835 253.15 340.016C252.21 339.078 251.515 339.102 250.817 340.096ZM189.048 340.016C189.048 340.214 189.384 340.377 189.794 340.377C190.204 340.377 190.439 340.214 190.316 340.016C190.192 339.817 189.857 339.655 189.57 339.655C189.283 339.655 189.048 339.817 189.048 340.016ZM312.314 340.194C312.189 340.52 312.26 340.96 312.472 341.171C313.024 341.721 314.069 341.218 313.925 340.472C313.765 339.641 312.605 339.44 312.314 340.194ZM347.389 339.952C346.763 340.36 347.382 342.001 348.357 342.521C349.433 343.095 351.296 343.008 351.296 342.383C351.296 340.974 348.495 339.231 347.389 339.952ZM287.103 341.963C286.744 342.234 286.469 342.918 286.469 343.537C286.469 344.406 286.658 344.679 287.382 344.86C288.44 345.125 289.729 344.552 289.729 343.818C289.729 341.86 288.441 340.95 287.103 341.963ZM293.384 345.033C292.31 345.856 292.581 346.876 293.875 346.876C294.538 346.876 294.845 346.637 295.007 345.994C295.227 345.12 294.989 344.341 294.506 344.357C294.368 344.361 293.863 344.665 293.384 345.033ZM494.778 344.968C494.93 345.756 497.116 347.239 498.115 347.232C498.534 347.229 499.121 347.064 499.42 346.865C499.875 346.563 499.772 346.33 498.78 345.427C497.874 344.601 497.254 344.349 496.128 344.349C494.935 344.349 494.681 344.465 494.778 344.968ZM272.047 345.312C272.223 346.218 273.069 346.342 273.069 345.462C273.069 345.019 272.835 344.71 272.5 344.71C272.162 344.71 271.977 344.955 272.047 345.312ZM326.986 345.254C326.078 345.746 325.436 346.971 325.863 347.397C326.364 347.896 327.87 347.517 328.709 346.681C329.454 345.938 329.546 345.662 329.191 345.236C328.652 344.588 328.208 344.592 326.986 345.254ZM467.25 345.309C467.321 345.675 467.621 345.974 467.917 345.974C468.693 345.974 468.581 344.924 467.788 344.772C467.304 344.679 467.157 344.826 467.25 345.309ZM229.136 345.488C228.252 345.98 228.374 347.113 229.338 347.371C230.615 347.712 230.696 347.663 230.696 346.554C230.696 345.396 230.069 344.967 229.136 345.488ZM289.07 345.637C288.331 346.472 288.701 347.403 289.822 347.532C290.657 347.629 290.815 347.51 290.815 346.792C290.815 346.005 290.219 345.052 289.747 345.085C289.637 345.092 289.333 345.341 289.07 345.637ZM344.376 345.611C343.857 345.893 343.161 346.536 342.829 347.041C342.448 347.621 341.89 347.96 341.317 347.96C338.588 347.96 336.447 350.01 336.447 352.622C336.447 354.522 337.094 355.658 338.624 356.447C340.419 357.372 341.666 357.133 343.558 355.501C345.16 354.118 345.396 354.028 346.93 354.208C347.921 354.325 348.914 354.224 349.416 353.955C351.559 352.81 352.296 349.616 350.928 347.409C349.635 345.322 346.498 344.462 344.376 345.611ZM208.333 346.032C207.56 346.343 207.781 348.241 208.622 348.507C209.628 348.825 210.415 348.091 210.415 346.832C210.415 345.987 210.263 345.798 209.601 345.822C209.153 345.837 208.582 345.932 208.333 346.032ZM494.226 349.566C494.102 349.886 494.309 350.179 494.757 350.321C495.643 350.601 495.962 350.35 495.673 349.6C495.402 348.896 494.491 348.875 494.226 349.566ZM353.724 350.341C351.473 351.558 351.413 355.216 353.613 357.05C354.817 358.054 357.627 357.929 358.737 356.823C359.884 355.679 359.941 353.429 358.869 351.699C357.63 349.7 355.802 349.218 353.724 350.341ZM298.783 352.293C298.783 352.491 299.027 352.654 299.326 352.654C299.625 352.654 299.869 352.491 299.869 352.293C299.869 352.094 299.625 351.932 299.326 351.932C299.027 351.932 298.783 352.094 298.783 352.293ZM581.63 354.279C581.63 354.577 581.875 354.82 582.173 354.82C582.472 354.82 582.717 354.577 582.717 354.279C582.717 353.981 582.472 353.737 582.173 353.737C581.875 353.737 581.63 353.981 581.63 354.279ZM267.937 360.128C267.645 361.343 268.016 362.042 268.954 362.042C269.753 362.042 269.843 361.908 269.742 360.869C269.658 359.993 269.434 359.667 268.861 359.586C268.362 359.515 268.038 359.704 267.937 360.128ZM327.031 361.479C327.031 361.789 327.194 362.042 327.393 362.042C327.593 362.042 327.756 361.889 327.756 361.702C327.756 361.515 327.593 361.262 327.393 361.139C327.194 361.017 327.031 361.17 327.031 361.479ZM305.181 362.283C305.048 362.415 304.939 363.065 304.939 363.727C304.939 364.678 305.087 364.931 305.643 364.931C306.537 364.931 307.451 363.655 307.211 362.741C307.033 362.061 305.704 361.761 305.181 362.283ZM332.431 365.245C331.379 366.095 331.293 368.174 332.266 369.246C333.221 370.298 335.488 370.262 336.246 369.183C337.024 368.076 336.971 365.911 336.147 365.167C335.265 364.372 333.467 364.409 332.431 365.245ZM269.867 366.014C269.867 366.511 269.949 366.714 270.05 366.465C270.15 366.217 270.15 365.811 270.05 365.563C269.949 365.315 269.867 365.518 269.867 366.014ZM474.3 367.709C473.892 368.116 474.052 368.542 474.612 368.542C474.911 368.542 475.155 368.389 475.155 368.202C475.155 367.747 474.589 367.421 474.3 367.709ZM269.331 368.417C269.201 368.547 267.887 368.618 266.411 368.575L263.727 368.497L263.262 371.093C262.836 373.465 262.7 373.729 261.685 374.156C261.074 374.413 259.716 375.529 258.667 376.638C257.095 378.297 256.547 378.652 255.556 378.652C254.479 378.652 254.31 378.794 253.948 380.006C253.724 380.751 253.478 382.63 253.399 384.183C253.205 388.021 252.506 388.995 250.075 388.817C248.904 388.731 248.249 388.847 248.039 389.178C247.51 390.01 247.667 390.225 249.348 390.966C251.1 391.739 251.281 392.034 250.434 392.735C250.058 393.046 249.891 393.873 249.891 395.418C249.891 396.823 249.694 397.912 249.359 398.353C248.437 399.568 248.694 400.17 250.344 400.662C254.064 401.77 256.411 403.794 257.159 406.54C257.39 407.388 257.635 408.279 257.703 408.522C257.772 408.764 258.917 409.455 260.248 410.056L262.667 411.151L262.451 412.973C262.17 415.334 262.89 415.74 264.435 414.092C265.679 412.765 265.34 412.815 268.542 413.491C277.832 415.453 287.892 411.539 292.579 404.141C295.603 399.367 296.506 394.218 295.333 388.454L294.678 385.238L295.463 384.244C296.386 383.073 296.5 381.354 295.675 381.038C295.36 380.917 294.466 380.819 293.69 380.819C292.395 380.819 292.214 380.693 291.496 379.289C291.065 378.448 289.555 376.661 288.139 375.317C285.907 373.2 285.386 372.875 284.219 372.875C283.24 372.875 282.535 372.579 281.635 371.791C280.82 371.078 280.008 370.708 279.256 370.708C278.336 370.708 277.97 370.464 277.367 369.444C276.451 367.896 275.89 367.846 275.353 369.264C275.127 369.86 274.676 370.347 274.35 370.347C273.574 370.347 271.873 369.461 271.278 368.746C270.797 368.168 269.757 367.993 269.331 368.417ZM126.575 371.85C125.29 372.556 123.452 374.465 122.749 375.823C121.887 377.49 121.2 380.479 121.59 380.868C122.061 381.337 124.101 379.895 125.3 378.243C125.906 377.41 126.726 375.681 127.122 374.402C128.117 371.193 128.08 371.024 126.575 371.85ZM305.064 371.988C304.946 372.294 304.941 372.635 305.052 372.746C305.369 373.062 306.026 372.526 306.026 371.951C306.026 371.258 305.335 371.285 305.064 371.988ZM308.199 372.694C308.199 373.025 308.374 373.238 308.588 373.167C308.802 373.095 308.977 372.883 308.977 372.694C308.977 372.505 308.802 372.293 308.588 372.222C308.374 372.151 308.199 372.363 308.199 372.694ZM312.656 374.552C312.355 375.333 313.626 376.35 314.057 375.673C314.215 375.425 314.347 374.938 314.35 374.59C314.357 373.773 312.967 373.742 312.656 374.552ZM323.838 374.951C323.929 375.739 324.14 375.944 324.858 375.944C325.577 375.944 325.787 375.739 325.878 374.951C325.982 374.055 325.882 373.958 324.858 373.958C323.834 373.958 323.735 374.055 323.838 374.951ZM307.475 375.944C307.475 376.242 307.719 376.486 308.018 376.486C308.317 376.486 308.561 376.242 308.561 375.944C308.561 375.646 308.317 375.402 308.018 375.402C307.719 375.402 307.475 375.646 307.475 375.944ZM251.43 376.725C250.663 377.033 250.893 378.577 251.747 378.847C252.566 379.106 253.135 378.565 253.145 377.517C253.149 377.058 252.299 376.348 251.944 376.514C251.91 376.53 251.679 376.625 251.43 376.725ZM314.454 377.645C313.41 378.147 313.138 379.054 313.678 380.236C314.467 381.961 317.615 381.158 317.615 379.232C317.615 377.45 316.266 376.773 314.454 377.645ZM329.808 378.532C329.444 378.894 329.518 380.458 329.899 380.458C330.082 380.458 330.468 380.548 330.757 380.659C331.454 380.925 331.836 379.869 331.363 378.987C330.99 378.291 330.263 378.078 329.808 378.532ZM432.058 384.055C431.216 384.604 432.086 385.693 433.365 385.693C434.24 385.693 434.412 385.545 434.412 384.791C434.412 384.093 434.206 383.867 433.506 383.794C433.009 383.743 432.357 383.86 432.058 384.055ZM361.509 385.162C359.969 386.593 360.055 388.893 361.672 389.505C363.461 390.184 364.332 389.937 364.895 388.594C365.647 386.801 365.55 386.028 364.466 385.178C363.266 384.237 362.51 384.233 361.509 385.162ZM296.552 387.48C296.238 388.168 296.23 388.529 296.523 388.82C297.208 389.503 298.119 388.87 297.992 387.8C297.837 386.494 297.08 386.326 296.552 387.48ZM337.516 387.352C336.612 389.036 338.081 390.805 339.397 389.618C340.25 388.849 340.253 387.957 339.407 387.194C338.524 386.397 338.005 386.441 337.516 387.352ZM614.798 387.631C614.642 387.883 614.612 388.186 614.732 388.305C615.056 388.628 615.409 388.153 615.234 387.63C615.112 387.263 615.026 387.263 614.798 387.631ZM347.804 388.946C347.442 389.886 348.658 391.29 349.834 391.29C350.416 391.29 350.99 391.131 351.11 390.937C351.355 390.542 350.682 389.089 350.065 388.678C349.375 388.219 348.022 388.379 347.804 388.946ZM404.534 388.658C404.086 388.759 403.987 389.617 403.972 393.557C403.953 398.693 403.55 400.767 402.315 402.089C401.638 402.814 401.281 402.903 399.682 402.747C397.917 402.574 397.76 402.634 396.194 404.06C395.292 404.881 393.561 406.309 392.347 407.233C389.854 409.129 388.354 410.922 387.718 412.767C387.396 413.702 386.844 414.258 385.568 414.934C383.45 416.057 382.594 416.081 382.033 415.032C381.459 413.957 380.527 413.29 380.136 413.672C379.963 413.841 379.266 413.89 378.587 413.78C377.527 413.609 377.108 413.787 375.617 415.04C372.665 417.522 371.547 417.328 367.799 413.681C364.461 410.433 363.711 410.333 364.554 413.252C364.822 414.181 365.194 416.16 365.38 417.65C365.71 420.287 365.695 420.38 364.803 421.19C363.75 422.145 363.048 422.078 359.615 420.686C356.706 419.508 355.104 419.559 352.984 420.9C351.936 421.562 350.787 421.983 350.025 421.983C348.855 421.983 348.791 422.044 348.981 422.989C349.092 423.543 348.927 424.982 348.613 426.186C348.104 428.146 348.101 428.568 348.586 430.195C349.44 433.062 352.271 435.23 356.721 436.425L358.177 436.815V439.997C358.177 443.608 358.634 445.32 359.686 445.653C360.084 445.779 362.014 447.169 363.976 448.742C368.666 452.504 370.589 453.39 374.072 453.394C376.153 453.397 376.847 453.532 377.191 454.001C377.598 454.556 377.688 454.542 378.308 453.821C378.796 453.253 379.39 453.037 380.465 453.037C382.759 453.037 385.335 452.106 387.416 450.524L389.313 449.083L390.609 449.845C392.3 450.84 392.946 450.331 392.006 448.745C391.052 447.135 391.597 445.946 393.918 444.576C396.376 443.126 396.348 443.168 395.687 441.894C395.021 440.61 394.955 438.805 395.515 437.202C395.963 435.922 396.262 435.807 396.959 436.645C397.883 437.754 399.248 437.987 404.332 437.904L409.381 437.822L410.876 436.222C411.698 435.341 412.611 434.621 412.906 434.621C413.2 434.621 414.058 435.252 414.814 436.023C416.879 438.132 418.657 437.213 416.909 434.941C415.574 433.207 415.64 432.872 417.678 431.015C418.732 430.055 420.076 428.402 420.665 427.341C421.609 425.642 421.732 425.077 421.704 422.583L421.671 419.754L423.605 418.329C424.669 417.546 425.539 416.769 425.539 416.603C425.539 416.437 424.9 416.215 424.119 416.111C421.398 415.747 419.909 413.963 419.951 411.121C419.974 409.61 419.862 409.345 419.046 408.969C418.534 408.732 417.87 408.421 417.571 408.276C416.716 407.862 415.409 405.732 414.988 404.069C414.525 402.232 413.567 401.831 412.114 402.863C410.779 403.81 409.096 403.769 408.16 402.766C407.013 401.54 406.077 397.978 405.606 393.05C405.371 390.592 405.155 388.571 405.128 388.558C405.1 388.545 404.832 388.59 404.534 388.658ZM515.053 393.367C513.902 394.345 513.875 395.954 514.993 397.068C516.542 398.613 518.614 397.463 518.614 395.057C518.614 393.022 516.59 392.061 515.053 393.367ZM573.462 395.294C573.138 395.816 573.994 396.707 574.82 396.707C575.281 396.707 575.486 396.501 575.409 396.116C575.268 395.402 573.783 394.776 573.462 395.294ZM153.266 397.862C152.742 398.385 152.684 400.318 153.194 400.318C153.732 400.318 155.005 398.949 155.005 398.37C155.005 398.094 154.747 397.769 154.432 397.648C153.703 397.369 153.774 397.356 153.266 397.862ZM113.784 398.963C113.847 399.41 114.063 399.776 114.262 399.776C114.461 399.776 114.676 399.41 114.74 398.963C114.819 398.404 114.67 398.151 114.262 398.151C113.853 398.151 113.704 398.404 113.784 398.963ZM246.429 400.132C245.79 400.62 245.842 400.631 246.994 400.259C248.565 399.751 248.766 399.595 247.848 399.595C247.454 399.595 246.816 399.837 246.429 400.132ZM206.211 401.194C206.101 401.477 206.066 402.087 206.131 402.548C206.301 403.74 208.01 403.745 208.18 402.554C208.386 401.102 206.695 399.934 206.211 401.194ZM241.199 401.311C240.284 401.767 239.9 402.218 239.817 402.935C239.714 403.824 239.817 403.928 240.793 403.928C242.31 403.928 243.908 402.517 243.575 401.47C243.271 400.514 242.855 400.486 241.199 401.311ZM342.604 402.381C342.604 403.576 343.336 404.397 344.945 405.007C347.352 405.919 348.472 404.532 346.848 402.649C346.242 401.947 345.564 401.639 344.312 401.499C342.616 401.308 342.604 401.314 342.604 402.381ZM590.322 406.63C590.322 407.772 592.914 409.949 595.015 410.571C597.903 411.426 598.652 411.352 598.652 410.212C598.652 408.292 596.153 406.794 592.005 406.227C590.555 406.029 590.322 406.084 590.322 406.63ZM115.859 409.086C114.058 411.195 113.659 412.059 113.788 413.569L113.9 414.873L115.093 413.869C116.46 412.718 117.529 410.812 117.893 408.876C118.236 407.055 117.531 407.127 115.859 409.086ZM157.178 409.14C157.178 410.183 157.314 410.428 157.895 410.428C158.362 410.428 158.693 410.107 158.844 409.508C159.108 408.46 159.095 408.44 157.993 408.102C157.253 407.875 157.178 407.971 157.178 409.14ZM565.333 409.83C565.333 411.299 567.723 412.688 568.917 411.912C569.634 411.447 569.176 410.552 567.79 409.709C566.172 408.726 565.333 408.767 565.333 409.83ZM305.12 412.793C304.523 413.098 303.83 413.616 303.581 413.943C302.841 414.916 303.039 416.784 304.002 417.9C304.751 418.768 305.147 418.914 306.75 418.914C308.354 418.914 308.75 418.768 309.498 417.9C310.106 417.196 310.372 416.449 310.372 415.447C310.372 412.712 307.812 411.418 305.12 412.793ZM128.567 421.802C128.567 423.25 129.375 423.537 130.028 422.321C130.325 421.768 130.317 421.442 129.997 421.057C129.213 420.116 128.567 420.452 128.567 421.802ZM271.886 421.191C270.552 422.718 269.982 425.594 271.014 425.594C271.767 425.594 272.965 424.096 273.351 422.673C273.647 421.585 273.6 421.314 273.062 420.979C272.56 420.667 272.303 420.713 271.886 421.191ZM120.958 422.795C120.045 424.288 119.939 427.23 120.81 426.896C121.125 426.776 121.447 426.677 121.525 426.677C121.861 426.677 122.773 424.47 122.773 423.655C122.773 422.529 122.43 421.622 122.004 421.622C121.823 421.622 121.352 422.15 120.958 422.795ZM327.574 424.029C325.756 424.986 325.227 425.639 324.642 427.648C324.212 429.121 323.83 429.704 323.02 430.121C322.438 430.422 321.961 430.963 321.961 431.325C321.961 432.081 324.476 436.118 325.891 437.633C328.929 440.884 334.254 440.768 337 437.391C338.877 435.083 339.368 434.701 340.97 434.299C341.869 434.073 342.604 433.727 342.604 433.529C342.604 433.332 341.954 432.725 341.161 432.18C340.057 431.424 339.589 430.775 339.173 429.425C338.419 426.978 337.156 425.47 334.938 424.367C332.699 423.255 329.336 423.1 327.574 424.029ZM526.461 425.112C525.509 426.061 527.44 428.121 529.282 428.121C530.461 428.121 530.566 428.035 530.566 427.059C530.566 426.37 530.282 425.798 529.76 425.434C528.948 424.866 526.907 424.668 526.461 425.112ZM251.566 427.953C251.442 428.277 251.34 428.946 251.34 429.44C251.34 430.165 251.497 430.316 252.154 430.223C252.822 430.128 252.969 429.879 252.969 428.849C252.969 427.488 251.987 426.86 251.566 427.953ZM682.162 433.125C681.847 433.633 682.331 434.674 682.808 434.516C683.344 434.338 683.336 433.096 682.797 432.917C682.566 432.84 682.28 432.934 682.162 433.125ZM418.797 441.03C418.293 441.824 418.847 443.184 419.796 443.484C420.81 443.805 421.282 443.328 421.012 442.257C420.552 440.428 419.535 439.866 418.797 441.03ZM80.4124 446.874C79.5935 448.4 80.2389 449.947 81.321 449.052C82.0309 448.464 82.0283 446.176 81.3178 446.176C81.0262 446.176 80.6188 446.49 80.4124 446.874ZM293.296 447.486C292.574 447.695 291.728 449.576 292.092 450.163C292.856 451.395 297.884 452.13 298.715 451.131C299.196 450.554 298.37 448.71 297.346 448.072C296.539 447.57 294.181 447.228 293.296 447.486ZM681.758 452.691C681.419 453.239 682.338 454.237 682.778 453.798C683.184 453.393 682.868 452.314 682.344 452.314C682.15 452.314 681.886 452.484 681.758 452.691ZM485.748 453.276C485.106 453.534 485.187 455.044 485.881 455.735C486.636 456.488 487.204 456.282 487.621 455.105C488.131 453.668 487.151 452.711 485.748 453.276ZM349.847 454.481C349.847 454.68 350.102 454.842 350.412 454.842C350.722 454.842 350.876 454.68 350.753 454.481C350.63 454.282 350.376 454.12 350.188 454.12C350.001 454.12 349.847 454.282 349.847 454.481ZM357.362 458.594C356.514 459.236 356.561 459.644 357.632 460.913C358.722 462.204 360.541 462.968 363.338 463.307C365.239 463.538 365.42 463.5 365.42 462.865C365.42 459.992 359.595 456.904 357.362 458.594ZM517.542 458.977C516.788 459.883 517.236 460.8 518.433 460.8C519.181 460.8 519.548 460.602 519.635 460.151C519.779 459.406 519.104 458.453 518.433 458.453C518.183 458.453 517.782 458.689 517.542 458.977ZM55.5269 460.451C54.1391 461.539 53.045 463.259 52.6969 464.898C52.4536 466.043 52.4858 466.094 53.2916 465.851C55.3034 465.243 57.1276 462.38 56.8038 460.339L56.6782 459.548L55.5269 460.451ZM221.703 462.808C221.769 463.261 222.041 463.704 222.307 463.791C222.635 463.899 222.751 463.685 222.669 463.125C222.602 462.672 222.331 462.23 222.065 462.142C221.736 462.034 221.62 462.248 221.703 462.808ZM449.804 465.675C449.804 466.204 450.045 466.397 450.709 466.397C451.72 466.397 451.957 465.522 451.042 465.172C450.084 464.806 449.804 464.92 449.804 465.675ZM437.309 467.2C436.712 467.412 435.571 468.041 434.774 468.597C433.977 469.154 432.836 469.726 432.239 469.869C430.498 470.285 427.859 472.782 427.359 474.487C427.12 475.3 426.355 476.991 425.658 478.245C424.962 479.498 424.488 480.773 424.605 481.077C424.722 481.382 424.508 482.33 424.129 483.184C423.441 484.735 423.441 484.738 424.293 487.212C425.291 490.108 425.397 492.085 424.62 493.268C424.314 493.734 423.09 494.796 421.9 495.628C419.634 497.213 418.308 499.052 418.963 499.705C419.502 500.242 420.887 499.78 422.449 498.543C423.785 497.485 424.984 497.034 427.802 496.53C429.13 496.292 429.175 496.321 429.877 497.862C430.271 498.728 430.597 499.731 430.601 500.091C430.607 500.541 431.318 501.066 432.879 501.772C436.964 503.619 439.135 504.084 443.466 504.043L447.45 504.004L448.82 505.481C450.506 507.298 451.078 506.974 450.364 504.607C449.728 502.502 450.02 502.038 452.926 500.531C455.452 499.221 457.024 497.289 459.576 492.358L461.37 488.89L460.835 484.053C460.268 478.933 459.611 476.122 458.673 474.799C458.359 474.356 456.461 472.773 454.454 471.281C449.796 467.818 446.754 466.744 441.727 466.787C439.895 466.802 437.907 466.988 437.309 467.2ZM144.14 468.744C144.14 469.042 144.303 469.286 144.502 469.286C144.701 469.286 144.864 469.042 144.864 468.744C144.864 468.446 144.701 468.202 144.502 468.202C144.303 468.202 144.14 468.446 144.14 468.744ZM636.095 470.561C635.764 471.063 635.597 471.577 635.722 471.702C636.034 472.013 637.403 470.734 637.403 470.132C637.403 469.355 636.746 469.57 636.095 470.561ZM712.786 473.94C712.398 474.184 712.384 474.415 712.719 475.039C713.248 476.024 714 475.826 714 474.702C714 473.766 713.53 473.47 712.786 473.94ZM409.233 477.782C408.885 478.199 408.87 478.547 409.172 479.207C409.814 480.612 411.133 481.258 413.103 481.132C414.68 481.032 414.866 480.928 414.963 480.095C415.143 478.556 413.499 477.23 411.41 477.23C410.31 477.23 409.527 477.428 409.233 477.782ZM481.845 478.329C481.553 478.8 482.317 479.757 482.986 479.757C483.276 479.757 483.485 479.381 483.485 478.854C483.485 478.202 483.29 477.952 482.782 477.952C482.395 477.952 481.974 478.121 481.845 478.329ZM247.231 478.722C246.117 479.368 245.444 481.427 245.899 482.802C246.584 484.871 249.405 485.582 251.314 484.167C252.693 483.144 252.823 480.482 251.557 479.219C250.572 478.237 248.483 477.997 247.231 478.722ZM620.26 484.914C619.869 485.206 619.778 485.524 619.99 485.858C620.378 486.472 621.468 486.124 621.468 485.387C621.468 484.616 620.939 484.408 620.26 484.914ZM370.612 488.989C370.31 489.773 371.076 490.511 371.625 489.964C372.089 489.502 371.802 488.423 371.215 488.423C371.003 488.423 370.732 488.678 370.612 488.989ZM632.212 490.47C631.765 490.916 631.962 492.395 632.47 492.395C633.185 492.395 633.899 491.417 633.652 490.775C633.436 490.213 632.639 490.044 632.212 490.47ZM406.189 491.157C404.94 492.403 405.911 493.587 408.036 493.412C409.678 493.276 410.022 492.451 408.902 491.334C408.011 490.446 406.97 490.378 406.189 491.157ZM1.12487 492.721C0.334632 493.457 0 494.101 0 494.887C0 496.167 0.76018 496.375 2.07845 495.454C2.73504 494.996 3.61183 492.999 3.61943 491.944C3.6245 491.301 2.1592 491.757 1.12487 492.721ZM463.204 494.381C463.204 494.679 463.367 494.923 463.566 494.923C463.765 494.923 463.928 494.679 463.928 494.381C463.928 494.083 463.765 493.84 463.566 493.84C463.367 493.84 463.204 494.083 463.204 494.381ZM228.637 495.101C226.927 495.827 225.503 498.186 225.471 500.345C225.435 502.824 225.979 503.235 227.632 501.978C229.313 500.7 230.251 499.15 230.551 497.16C230.87 495.037 230.28 494.402 228.637 495.101ZM615.13 496.878C614.606 498.107 614.222 499.267 614.278 499.455C614.333 499.643 614.172 500.204 613.919 500.7C613.481 501.563 613.486 501.571 614.042 500.881C614.622 500.16 614.624 500.16 615.239 500.919C616.367 502.311 616.945 502.211 617.79 500.477C618.746 498.517 618.746 498.534 617.812 498.534C617.113 498.534 617.073 498.396 617.296 496.778C617.512 495.214 617.459 495.001 616.811 494.832C616.202 494.673 615.927 495.008 615.13 496.878ZM699.333 496.548C699.333 497.543 699.477 497.812 700.013 497.812C700.95 497.812 701.613 496.913 701.33 496.024C701.178 495.545 700.783 495.284 700.214 495.284C699.448 495.284 699.333 495.45 699.333 496.548ZM629.345 498.924C628.442 499.448 628.526 500.954 629.476 501.255C630.554 501.596 631.406 500.661 631.105 499.467C630.855 498.475 630.373 498.327 629.345 498.924ZM373.91 500.013C373.775 500.231 373.912 500.656 374.216 500.958C374.876 501.616 375.561 501.29 375.561 500.318C375.561 499.551 374.336 499.325 373.91 500.013ZM633.862 501.263C632.721 502.06 632.845 503.347 634.171 504.46C635.511 505.584 635.745 505.604 636.679 504.672C637.469 503.884 637.617 502.496 637.028 501.399C636.569 500.544 634.988 500.476 633.862 501.263ZM616.488 502.745C615.753 503.041 615.919 506.254 616.721 507.242L617.406 508.085L617.988 506.696C619.163 503.892 618.431 501.963 616.488 502.745ZM527.528 503.334C527.079 503.661 526.923 504.172 527.006 505.038C527.107 506.081 527.308 506.327 528.295 506.607C530.472 507.226 531.347 505.419 529.676 503.753C528.658 502.737 528.413 502.689 527.528 503.334ZM611.854 506.642C610.844 507.649 610.689 508.922 611.537 509.247C612.345 509.556 613.126 508.64 613.379 507.085C613.638 505.494 613.148 505.352 611.854 506.642ZM237.303 509.723C236.693 510.695 236.718 512.616 237.34 512.616C237.896 512.616 238.808 511.655 239.141 510.721C239.69 509.176 238.164 508.348 237.303 509.723ZM97.0591 509.662C97.0591 510.098 97.7461 510.607 97.9975 510.357C98.0884 510.266 97.9145 509.986 97.611 509.735C97.267 509.45 97.0591 509.423 97.0591 509.662ZM611.619 514.027C608.479 517.298 606.742 518.471 604.417 518.892C602.92 519.162 602.24 518.608 600.995 516.106C599.543 513.188 596.535 512.61 590.503 514.09C588.138 514.67 585.357 514.976 580.363 515.208C576.578 515.383 572.83 515.563 572.033 515.606C570.656 515.682 570.523 515.592 569.334 513.79L568.084 511.894H565.648C563.456 511.894 563.138 511.988 562.472 512.833C561.376 514.223 561.213 515.82 561.892 518.522L562.497 520.923L561.222 522.637C560.522 523.58 558.634 525.648 557.027 527.232C555.421 528.816 554.106 530.273 554.106 530.468C554.106 530.664 554.54 531.169 555.069 531.59L556.033 532.356L554.321 533.182C551.887 534.357 550.665 536.306 550.665 539.013C550.665 541.918 551.592 543.152 553.661 543.003C554.476 542.944 555.503 543.088 555.941 543.322C556.684 543.718 556.726 543.934 556.54 546.374C556.349 548.9 556.375 549.014 557.233 549.404C557.723 549.626 558.324 549.809 558.568 549.809C558.812 549.809 559.325 550.389 559.708 551.099C560.092 551.808 561.677 553.438 563.231 554.72C565.988 556.994 566.057 557.091 566.057 558.666C566.057 559.554 566.16 560.28 566.286 560.28C566.412 560.28 567.062 559.943 567.731 559.531L568.946 558.782L572.844 559.554C579.339 560.84 581.357 560.879 584.626 559.781C588.065 558.626 590.322 558.518 590.322 559.508C590.322 559.878 589.833 560.794 589.236 561.544C588.515 562.448 588.149 563.316 588.149 564.121C588.149 565.904 589.049 565.665 590.11 563.601C590.473 562.895 590.974 562.431 591.337 562.465C592.176 562.543 593.582 562.068 593.582 561.706C593.582 561.543 593.761 560.953 593.981 560.394L594.381 559.377L594.76 560.28C595.085 561.051 595.163 561.086 595.298 560.524C595.385 560.162 595.197 559.58 594.881 559.232C594.038 558.303 594.163 557.908 595.562 557.085C596.252 556.679 597.589 555.277 598.532 553.97C599.761 552.266 600.406 551.658 600.808 551.824C602.06 552.341 602.368 552.101 603.126 550.023C604.03 547.543 605.108 546.595 607.369 546.293C608.463 546.147 609.182 545.802 609.663 545.192C610.048 544.703 611.327 543.85 612.504 543.294C614.944 542.144 615.894 541.38 616.616 539.988C617.3 538.668 617.221 534.916 616.456 532.486L615.835 530.51L612.611 529.324C609.171 528.058 608.301 527.474 607.469 525.868C606.977 524.921 607.024 524.686 608.184 522.248C609.33 519.842 610.396 518.428 610.777 518.808C610.864 518.894 611.145 519.608 611.403 520.395C611.932 522.009 612.85 522.361 614.621 521.63C615.855 521.12 615.953 520.478 614.949 519.477C614.022 518.553 613.991 516.55 614.891 515.738C615.695 515.013 615.918 510.811 615.152 510.811C614.907 510.811 613.317 512.259 611.619 514.027ZM438.745 511.554C438.439 512.047 438.853 513.7 439.282 513.7C439.706 513.7 440.75 512.663 440.75 512.242C440.75 511.948 439.601 511.172 439.165 511.172C439.064 511.172 438.875 511.344 438.745 511.554ZM686.73 514.875C685.971 515.788 685.914 517.11 686.597 517.984C687.144 518.682 687.47 518.793 688.385 518.592C690.036 518.231 690.469 517.557 689.911 516.214C689.236 514.589 687.557 513.882 686.73 514.875ZM512.82 516.065C512.82 516.529 513.886 518.264 514.527 518.842C514.909 519.186 515.74 519.572 516.375 519.698C517.304 519.884 517.528 519.811 517.528 519.324C517.528 518.397 516.516 516.654 515.737 516.238C515.01 515.85 512.82 515.72 512.82 516.065ZM537.899 517.188C536.831 517.619 537.698 519.477 538.968 519.477C539.818 519.477 539.886 517.49 539.047 517.169C538.732 517.048 538.447 516.962 538.413 516.978C538.38 516.993 538.148 517.088 537.899 517.188ZM503.009 519.069C501.96 519.916 501.871 521.998 502.837 523.063C503.602 523.906 505.508 524.357 506.865 524.017C507.936 523.75 509.002 521.652 508.643 520.522C507.99 518.472 504.775 517.643 503.009 519.069ZM224.54 519.98C224.54 520.257 224.784 520.577 225.083 520.691C225.452 520.832 225.626 520.672 225.626 520.188C225.626 519.797 225.382 519.477 225.083 519.477C224.784 519.477 224.54 519.703 224.54 519.98ZM617.128 520.372C616.72 520.863 616.967 522.589 617.492 522.912C617.652 523.011 617.6 523.571 617.378 524.158C617.054 525.014 617.092 525.471 617.567 526.465C618.147 527.678 620.157 529.046 620.787 528.658C621.291 528.348 621.158 527.192 620.563 526.699C619.636 525.932 619.958 525.299 621.482 524.889C622.619 524.584 623.08 524.214 623.551 523.229C624.079 522.127 624.089 521.919 623.628 521.628C623.336 521.444 622.756 521.291 622.34 521.288C621.922 521.285 620.669 520.97 619.555 520.587C617.883 520.014 617.458 519.976 617.128 520.372ZM658.408 523.63C655.918 525.912 654.843 526.125 652.383 524.827L650.886 524.035L648.7 525.014C645.866 526.281 641.515 527.385 638.252 527.662C635.913 527.861 635.617 527.811 635.205 527.154C634.793 526.496 634.463 526.441 631.82 526.588C629.676 526.708 628.189 526.568 626.266 526.067C623.724 525.404 623.617 525.403 622.931 526.041C622.541 526.403 622.042 526.699 621.821 526.699C621.453 526.699 621.648 528.028 622.086 528.504C622.177 528.604 624.809 528.774 627.933 528.883C631.058 528.992 633.815 529.204 634.06 529.355C634.976 529.92 634.564 531.784 633.26 532.975C630.793 535.228 628.587 544.245 629.39 548.79C630.104 552.832 633.644 558.967 637.598 563.014C639.078 564.529 639.773 564.957 641.282 565.279C642.304 565.498 643.919 566.169 644.87 566.77C646.05 567.516 647.065 567.866 648.067 567.871C648.964 567.876 649.888 568.154 650.441 568.585C651.58 569.474 652.336 569.49 653.106 568.642C653.438 568.275 654.645 567.768 655.788 567.515C658.001 567.024 660.794 565.751 662.573 564.421C663.409 563.796 663.854 563.683 664.505 563.93C665.572 564.336 667.1 563.971 667.1 563.31C667.1 563.019 667.469 562.808 667.977 562.808C669.258 562.808 669.607 560.998 668.577 559.692C667.547 558.386 667.633 557.555 668.894 556.625C670.249 555.626 670.91 553.97 671.465 550.191C672.243 544.888 671.401 539.502 669.065 534.823C667.54 531.771 666.067 530.084 664.275 529.34C663.538 529.033 662.468 528.452 661.897 528.048C660.863 527.315 660.86 527.303 661.107 524.478C661.277 522.54 661.232 521.644 660.965 521.644C660.75 521.644 659.6 522.537 658.408 523.63ZM516.83 527.289C515.975 528.373 515.932 528.638 516.454 529.611C516.916 530.471 518.686 530.547 519.494 529.742C520.167 529.071 520.244 527.385 519.628 526.771C518.902 526.047 517.623 526.284 516.83 527.289ZM542.286 526.879C542.005 527.608 542.372 528.471 543.076 528.741C543.912 529.061 544.456 528.339 544.186 527.267C543.924 526.229 542.637 525.966 542.286 526.879ZM611.249 526.536C610.655 527.129 611.49 527.782 612.841 527.782C614.014 527.782 614.256 527.666 614.158 527.15C614.075 526.717 613.635 526.484 612.76 526.411C612.058 526.352 611.377 526.408 611.249 526.536ZM538.171 528.143C537.773 528.54 537.447 529.25 537.447 529.719C537.447 530.901 538.775 532.476 539.771 532.476C541.714 532.476 542.497 529.651 540.955 528.206C539.912 527.23 539.106 527.211 538.171 528.143ZM544.569 529.106C543.897 529.776 545.057 532.837 545.984 532.837C546.615 532.837 546.65 532.408 546.066 531.826C545.753 531.514 545.747 531.393 546.045 531.393C546.272 531.393 546.559 531.555 546.682 531.754C546.805 531.953 547.303 532.115 547.79 532.115C548.521 532.115 548.674 531.937 548.674 531.081C548.674 530.196 548.45 529.962 547.122 529.456C545.424 528.809 544.934 528.742 544.569 529.106ZM550.919 530.021C550.68 530.259 550.484 530.828 550.484 531.285C550.484 531.959 550.681 532.115 551.527 532.115C552.789 532.115 553.525 531.331 553.206 530.327C552.943 529.5 551.619 529.323 550.919 530.021ZM250.503 533.415C249.787 535.087 249.554 536.101 249.716 536.837C250.036 538.29 250.404 538.4 251.576 537.395C252.489 536.612 252.603 536.255 252.728 533.779C252.854 531.291 252.804 531.032 252.194 531.036C251.71 531.039 251.234 531.71 250.503 533.415ZM672.689 532.156C672.417 532.594 673.219 533.256 673.8 533.072C673.999 533.01 674.215 532.687 674.279 532.356C674.414 531.665 673.096 531.498 672.689 532.156ZM547.134 535.637C546.34 535.815 546.313 536.932 547.086 537.702C547.857 538.471 548.466 538.233 548.602 537.112C548.725 536.083 548.071 535.426 547.134 535.637ZM623.279 542.277C623.279 542.504 623.609 543.797 624.014 545.15C624.84 547.915 625.383 548.095 626.089 545.837C626.835 543.456 626.692 542.787 625.335 542.298C623.83 541.756 623.279 541.75 623.279 542.277ZM553.1 548.565C551.115 549.951 552.862 553.993 555.107 553.21C555.992 552.901 556.11 552.663 556.207 550.994C556.309 549.235 556.251 549.09 555.229 548.564C553.91 547.884 554.076 547.884 553.1 548.565ZM463.284 550.01C462.338 550.67 462.261 551.504 463.043 552.617C464.199 554.262 466.101 553.026 466.101 550.631C466.101 549.578 465.99 549.447 465.095 549.447C464.542 549.447 463.727 549.701 463.284 550.01ZM675.792 550.542C675.792 550.933 676.037 551.253 676.335 551.253C676.634 551.253 676.879 551.027 676.879 550.75C676.879 550.473 676.634 550.153 676.335 550.039C675.966 549.898 675.792 550.058 675.792 550.542ZM534.984 554.214C534.335 554.861 534.46 556.476 535.212 557.155C536.625 558.43 538.802 557.424 538.367 555.697C538.227 555.141 537.943 554.483 537.735 554.234C537.256 553.658 535.554 553.645 534.984 554.214ZM624.934 554.462C624.825 554.638 624.989 554.992 625.299 555.248C626.332 556.103 626.9 557.697 626.9 559.739C626.9 562.142 626.192 563.677 624.739 564.427C623.286 565.176 622.955 565.133 620.62 563.891C619.501 563.295 618.16 562.808 617.64 562.808C616.736 562.808 616.707 562.871 616.946 564.28L617.195 565.753L616.093 565.184C615.456 564.856 614.902 564.759 614.781 564.954C614.359 565.633 615.084 568.391 615.896 569.201C616.981 570.283 617.353 570.246 618.002 568.995C618.886 567.291 620.754 566.646 624.069 566.901L626.9 567.118L627.786 565.414C628.273 564.477 629.16 562.992 629.756 562.113C630.982 560.306 630.962 559.548 629.606 556.452C628.93 554.909 628.609 554.572 627.623 554.376C626.014 554.055 625.169 554.082 624.934 554.462ZM244.096 555.947C244.096 556.146 244.259 556.308 244.459 556.308C244.658 556.308 244.821 556.146 244.821 555.947C244.821 555.748 244.658 555.586 244.459 555.586C244.259 555.586 244.096 555.748 244.096 555.947ZM484.713 560.848C484.405 562.074 484.977 562.642 485.981 562.106C486.44 561.861 486.744 561.345 486.744 560.809C486.744 560.102 486.559 559.919 485.846 559.919C485.182 559.919 484.886 560.162 484.713 560.848ZM669.903 562.51C670.423 563.13 672.713 564.474 672.406 563.98C672.278 563.772 671.572 563.249 670.837 562.817C670.103 562.385 669.682 562.247 669.903 562.51ZM592.727 563.504C591.974 563.777 590.331 568.379 590.333 570.21C590.335 573.869 593.924 572.636 594.504 568.777C594.733 567.254 594.158 563.692 593.636 563.393C593.506 563.32 593.097 563.369 592.727 563.504ZM597.21 563.719C597.462 564.022 597.743 564.195 597.834 564.104C598.085 563.854 597.575 563.169 597.138 563.169C596.897 563.169 596.925 563.376 597.21 563.719ZM677.784 566.92C677.784 568.335 677.947 568.589 680.076 570.485C683.217 573.283 684.473 573.642 683.958 571.593C683.743 570.741 678.689 565.302 678.689 565.924C678.689 566.046 678.486 565.977 678.237 565.772C677.887 565.482 677.784 565.743 677.784 566.92ZM597.203 574.724C596.436 575.489 596.173 577.974 596.859 577.974C597.594 577.974 599.359 576.875 599.727 576.188C599.933 575.806 600.1 575.158 600.1 574.748C600.1 573.739 598.206 573.724 597.203 574.724ZM594.306 579.598C594.306 579.896 594.469 580.14 594.668 580.14C594.867 580.14 595.03 579.896 595.03 579.598C595.03 579.301 594.867 579.057 594.668 579.057C594.469 579.057 594.306 579.301 594.306 579.598ZM590.814 580.686C590.565 581.332 591.283 582.307 592.008 582.307C592.729 582.307 593.023 581.316 592.491 580.677C591.915 579.984 591.082 579.989 590.814 580.686ZM584.076 581.314C583.827 581.99 584.159 582.668 584.739 582.668C585.045 582.668 585.252 582.303 585.252 581.765C585.252 580.828 584.379 580.492 584.076 581.314ZM613.219 582.147C612.089 582.936 612.146 584.392 613.319 584.686C613.816 584.81 614.468 584.818 614.767 584.704C615.521 584.416 615.498 582.094 614.738 581.804C614.012 581.526 614.153 581.494 613.219 582.147ZM608.498 593.939C607.946 594.489 607.948 595.403 608.503 595.956C609.195 596.646 609.78 596.462 609.966 595.495C610.182 594.37 609.156 593.282 608.498 593.939ZM580.964 599.028C580.471 599.619 580.766 600 581.717 600C582.167 600 582.367 599.79 582.29 599.398C582.135 598.597 581.476 598.413 580.964 599.028Z" fill="#F0444A"/>
</svg>
